<svg xmlns="http://www.w3.org/2000/svg" xmlns:xlink="http://www.w3.org/1999/xlink" width="1760" height="1360"><g transform="translate(0 0)"><path d="M712 697.33H476.28c-.15 0-.28-.12-.28-.28 0-.15-.13-.28-.28-.28H240" fill="none"/><path d="M712 697.33h-9.85m-9.84 0h-19.68m-9.85 0h-19.7m-9.83 0h-19.7m-9.84 0H584m-9.83 0h-19.7m-9.84 0h-19.7m-9.83 0h-19.7m-9.84 0h-9.28c-.15 0-.28-.12-.28-.28 0-.15-.13-.28-.28-.28h-9.28m-9.85 0h-19.7m-9.84 0h-19.7m-9.84 0h-19.7m-9.83 0h-19.7m-9.85 0h-19.7m-9.83 0h-19.7m-9.84 0h-19.7m-9.83 0H240M712 697.33h3" stroke="#999" stroke-width="2" fill="none"/><path d="M240 696.77l14.27-4.64v9.27z" stroke="#999" stroke-width="2" fill="#999"/><path d="M700 511H240" fill="none"/><path d="M700 511h-10.22m-10.22 0H659.1m-10.2 0h-20.46m-10.22 0h-20.44m-10.22 0H567.1m-10.2 0h-20.46m-10.22 0h-20.44m-10.22 0H475.1m-10.2 0h-20.46m-10.22 0h-20.44m-10.22 0H383.1m-10.2 0h-20.46m-10.22 0h-20.44m-10.22 0H291.1m-10.2 0h-20.46m-10.22 0H240" stroke="#999" stroke-width="2" fill="none"/><path d="M240 511l14.27-4.64v9.28z" stroke="#999" stroke-width="2" fill="#999"/><path d="M160 145c0-2.76 2.24-5 5-5h150c2.76 0 5 2.24 5 5v110c0 2.76-2.24 5-5 5H165c-2.76 0-5-2.24-5-5z" stroke="#666" stroke-width="2" fill="#498a44"/><use xlink:href="#a" transform="matrix(1,0,0,1,160,140) translate(55.358024691358025 51.72222222222222)"/><use xlink:href="#b" transform="matrix(1,0,0,1,160,140) translate(22.98765432098765 73.05555555555556)"/><use xlink:href="#c" transform="matrix(1,0,0,1,160,140) translate(48.66666666666667 73.05555555555556)"/><use xlink:href="#d" transform="matrix(1,0,0,1,160,140) translate(116.2716049382716 73.05555555555556)"/><path d="M240 260v940" fill="none"/><path d="M240 260v10.1m0 10.12v20.2m0 10.12v20.2m0 10.12v20.22m0 10.1v20.22m0 10.1v20.22m0 10.1v20.22m0 10.1v20.23m0 10.1v20.22m0 10.1V543m0 10.12v20.2m0 10.12v20.22m0 10.1v20.22m0 10.1v20.22m0 10.1v20.22m0 10.1v20.23m0 10.1v20.22m0 10.1v20.22m0 10.1v20.2m0 10.12v20.22m0 10.1v20.22m0 10.1v20.22m0 10.1v20.22m0 10.1v20.23m0 10.1v20.22m0 10.1v20.22m0 10.1v20.22m0 10.1v20.22m0 10.1v20.22m0 10.1v20.22m0 10.1v20.22m0 10.1V1200" stroke="#999" stroke-width="2" fill="none"/><path d="M400 145c0-2.76 2.24-5 5-5h150c2.76 0 5 2.24 5 5v110c0 2.76-2.24 5-5 5H405c-2.76 0-5-2.24-5-5z" stroke="#666" stroke-width="2" fill="#a3d977"/><use xlink:href="#e" transform="matrix(1,0,0,1,400,140) translate(39.60493827160494 51.72222222222222)"/><use xlink:href="#f" transform="matrix(1,0,0,1,400,140) translate(9.53086419753086 73.05555555555556)"/><use xlink:href="#g" transform="matrix(1,0,0,1,400,140) translate(76.54320987654322 73.05555555555556)"/><path d="M32 18.33c0-2.76 2.24-5 5-5h1198c2.76 0 5 2.24 5 5v75.34c0 2.76-2.24 5-5 5H37c-2.76 0-5-2.24-5-5z" fill="none"/><use xlink:href="#h" transform="matrix(1,0,0,1,32,13.333333333333329) translate(0 50.111111111111114)"/><use xlink:href="#i" transform="matrix(1,0,0,1,32,13.333333333333329) translate(212.93827160493834 50.111111111111114)"/><use xlink:href="#j" transform="matrix(1,0,0,1,32,13.333333333333329) translate(372.7407407407408 50.111111111111114)"/><path d="M31.33 80H1728" stroke="#999" stroke-width="2" fill="none"/><path d="M1040 37c0-2.76 2.24-5 5-5h678c2.76 0 5 2.24 5 5v38c0 2.76-2.24 5-5 5h-678c-2.76 0-5-2.24-5-5z" fill="none"/><use xlink:href="#k" transform="matrix(1,0,0,1,1040,32) translate(271.5185185185226 28.4444444444444)"/><use xlink:href="#l" transform="matrix(1,0,0,1,1040,32) translate(492.1975308641995 28.4444444444444)"/><use xlink:href="#m" transform="matrix(1,0,0,1,1040,32) translate(516.4567901234585 28.4444444444444)"/><path d="M640 145c0-2.76 2.24-5 5-5h150c2.76 0 5 2.24 5 5v110c0 2.76-2.24 5-5 5H645c-2.76 0-5-2.24-5-5z" stroke="#666" stroke-width="2" fill="#ffc374"/><use xlink:href="#n" transform="matrix(1,0,0,1,640,140) translate(39.57999999999999 40.65)"/><use xlink:href="#o" transform="matrix(1,0,0,1,640,140) translate(42.05499999999999 62.25)"/><use xlink:href="#p" transform="matrix(1,0,0,1,640,140) translate(42.57999999999999 83.85000000000001)"/><path d="M880 145c0-2.76 2.24-5 5-5h150c2.76 0 5 2.24 5 5v110c0 2.76-2.24 5-5 5H885c-2.76 0-5-2.24-5-5z" stroke="#666" stroke-width="2" fill="#5abaa7"/><use xlink:href="#q" transform="matrix(1,0,0,1,880,140) translate(10.75499999999999 63.15)"/><use xlink:href="#r" transform="matrix(1,0,0,1,880,140) translate(91.655 63.15)"/><path d="M480 260v940" fill="none"/><path d="M480 260v10.1m0 10.12v20.2m0 10.12v20.2m0 10.12v20.22m0 10.1v20.22m0 10.1v20.22m0 10.1v20.22m0 10.1v20.23m0 10.1v20.22m0 10.1V543m0 10.12v20.2m0 10.12v20.22m0 10.1v20.22m0 10.1v20.22m0 10.1v20.22m0 10.1v20.23m0 10.1v20.22m0 10.1v20.22m0 10.1v20.2m0 10.12v20.22m0 10.1v20.22m0 10.1v20.22m0 10.1v20.22m0 10.1v20.23m0 10.1v20.22m0 10.1v20.22m0 10.1v20.22m0 10.1v20.22m0 10.1v20.22m0 10.1v20.22m0 10.1v20.22m0 10.1V1200" stroke="#999" stroke-width="2" fill="none"/><path d="M720 260v940" fill="none"/><path d="M720 260v10.1m0 10.12v20.2m0 10.12v20.2m0 10.12v20.22m0 10.1v20.22m0 10.1v20.22m0 10.1v20.22m0 10.1v20.23m0 10.1v20.22m0 10.1V543m0 10.12v20.2m0 10.12v20.22m0 10.1v20.22m0 10.1v20.22m0 10.1v20.22m0 10.1v20.23m0 10.1v20.22m0 10.1v20.22m0 10.1v20.2m0 10.12v20.22m0 10.1v20.22m0 10.1v20.22m0 10.1v20.22m0 10.1v20.23m0 10.1v20.22m0 10.1v20.22m0 10.1v20.22m0 10.1v20.22m0 10.1v20.22m0 10.1v20.22m0 10.1v20.22m0 10.1V1200" stroke="#999" stroke-width="2" fill="none"/><path d="M960 260v940" fill="none"/><path d="M960 260v10.1m0 10.12v20.2m0 10.12v20.2m0 10.12v20.22m0 10.1v20.22m0 10.1v20.22m0 10.1v20.22m0 10.1v20.23m0 10.1v20.22m0 10.1V543m0 10.12v20.2m0 10.12v20.22m0 10.1v20.22m0 10.1v20.22m0 10.1v20.22m0 10.1v20.23m0 10.1v20.22m0 10.1v20.22m0 10.1v20.2m0 10.12v20.22m0 10.1v20.22m0 10.1v20.22m0 10.1v20.22m0 10.1v20.23m0 10.1v20.22m0 10.1v20.22m0 10.1v20.22m0 10.1v20.22m0 10.1v20.22m0 10.1v20.22m0 10.1v20.22m0 10.1V1200M240 406.73h219" stroke="#999" stroke-width="2" fill="none"/><path d="M459 406.73l-14.27 4.63v-9.27z" fill="#999"/><path d="M460 406v1.45l-16.27 5.3V400.7zm-14.27 4l10.03-3.27-10.03-3.26z" fill="#999"/><path d="M460 385c0-2.76 2.24-5 5-5h30c2.76 0 5 2.24 5 5v430c0 2.76-2.24 5-5 5h-30c-2.76 0-5-2.24-5-5zM700 425c0-2.76 2.24-5 5-5h30c2.76 0 5 2.24 5 5v350c0 2.76-2.24 5-5 5h-30c-2.76 0-5-2.24-5-5zM940 465c0-2.76 2.24-5 5-5h30c2.76 0 5 2.24 5 5v290c0 2.76-2.24 5-5 5h-30c-2.76 0-5-2.24-5-5z" stroke="#666" stroke-width="2" fill="#ccc"/><path d="M500 455.7h200" stroke="#999" stroke-width="2" fill="none"/><path d="M700 455.7l-14.27 4.64v-9.27z" fill="#999"/><path d="M700 454.65v2.1l-15.27 4.96v-12zm-13.27 4.3l10.03-3.25-10.03-3.26z" fill="#999"/><use xlink:href="#s" transform="matrix(1,0,0,1,549.025,430.1009012098879) translate(0 14.4)"/><use xlink:href="#t" transform="matrix(1,0,0,1,549.025,430.1009012098879) translate(26 14.4)"/><use xlink:href="#u" transform="matrix(1,0,0,1,549.025,430.1009012098879) translate(80.95 14.4)"/><path d="M740 481.87h200" stroke="#999" stroke-width="2" fill="none"/><path d="M940 481.87l-14.27 4.64v-9.26z" fill="#999"/><path d="M940 480.82v2.1l-15.27 4.96v-12.02zm-13.27 4.3l10.03-3.25-10.03-3.26z" fill="#999"/><use xlink:href="#s" transform="matrix(1,0,0,1,789.025,456.27291242802335) translate(0 14.4)"/><use xlink:href="#t" transform="matrix(1,0,0,1,789.025,456.27291242802335) translate(26 14.4)"/><use xlink:href="#u" transform="matrix(1,0,0,1,789.025,456.27291242802335) translate(80.95 14.4)"/><path d="M981 514.2h258" stroke="#999" stroke-width="2" fill="none"/><path d="M981 515.2h-1v-2h1zM1239 514.2l-14.27 4.64v-9.27z" fill="#999"/><path d="M1240 513.48v1.45l-16.27 5.28v-12zm-14.27 3.98l10.03-3.26-10.03-3.26z" fill="#999"/><use xlink:href="#v" transform="matrix(1,0,0,1,1047.125,488.603043932779) translate(0 14.4)"/><path d="M460 471.1H350.9c-.5 0-.9-.4-.9-.9s-.4-.9-.9-.9H240" fill="none"/><path d="M460 471.1h-10.56m-10.56 0h-21.12m-10.57 0h-21.13m-10.56 0h-21.1m-8.8-1.8h-21.1m-10.57 0H292.8m-10.56 0h-21.12m-10.56 0H240" stroke="#999" stroke-width="2" fill="none"/><path d="M240 469.3l14.27-4.62v9.27z" stroke="#999" stroke-width="2" fill="#999"/><path d="M940 658.92h-99.23c-.43 0-.77-.35-.77-.77 0-.43-.34-.77-.77-.77H740" fill="none"/><path d="M940 658.92h-9.6m-9.6 0h-19.2m-9.6 0h-19.18m-9.6 0h-19.2m-8.05-1.54h-19.2m-9.6 0H788m-9.6 0h-19.2m-9.6 0H740" stroke="#999" stroke-width="2" fill="none"/><path d="M754.27 662L740 657.4l14.27-4.64z" fill="#999"/><path d="M755.27 663.4L740 658.42v-2.1l15.27-4.96zm-12.03-6.02l10.03 3.26v-6.52z" fill="#999"/><path d="M940 552.7h-99.23c-.43 0-.77.34-.77.76 0 .43-.34.77-.77.77H740" fill="none"/><path d="M940 552.7h-9.6m-9.6 0h-19.2m-9.6 0h-19.18m-9.6 0h-19.2m-8.05 1.53h-19.2m-9.6 0H788m-9.6 0h-19.2m-9.6 0H740" stroke="#999" stroke-width="2" fill="none"/><path d="M754.27 558.87L740 554.23l14.27-4.63z" fill="#999"/><path d="M755.27 560.24L740 555.28v-2.1l15.27-4.96zm-12.03-6l10.03 3.25v-6.53z" fill="#999"/><path d="M500 480h200" fill="none"/><path d="M500 480h9.52m9.53 0h19.05m9.52 0h19.05m9.52 0h19.04m9.52 0h19.05m9.53 0h19.05m9.52 0h19.05m9.53 0H700" stroke="#999" stroke-width="2" fill="none"/><path d="M514.27 484.64L500 480l14.27-4.64z" fill="#999"/><path d="M515.27 486L500 481.06v-2.1l15.27-4.96zm-12.03-6l10.03 3.26v-6.52z" fill="#999"/><path d="M1180 145c0-2.76 2.24-5 5-5h150c2.76 0 5 2.24 5 5v110c0 2.76-2.24 5-5 5h-150c-2.76 0-5-2.24-5-5z" stroke="#666" stroke-width="2" fill="#99d2f2"/><g><use xlink:href="#w" transform="matrix(1,0,0,1,1180,140) translate(42.05499999999999 63.15)"/></g><path d="M1260 260v935c0 2.76-2.24 5-5 5h-35" fill="none"/><path d="M1260 260v9.9m0 9.9v19.8m0 9.9v19.8m0 9.9V359m0 9.9v19.8m0 9.9v19.78m0 9.9v19.8m0 9.9v19.8m0 9.9v19.8m0 9.9v19.8m0 9.9v19.8m0 9.9v19.8m0 9.88v19.8m0 9.9v19.8m0 9.9v19.8m0 9.9v19.8m0 9.9v19.8m0 9.9v19.8m0 9.9v19.78m0 9.9v19.8m0 9.9v19.8m0 9.9v19.8m0 9.9v19.8m0 9.9v19.8m0 9.9v19.8m0 9.9v19.78m0 9.9v19.8m0 9.9v19.8m0 9.9v19.8m0 9.9v19.8m0 9.9v19.8m0 9.9v19.8m-.4 9.48h-19.8m-9.9 0h-9.9" stroke="#999" stroke-width="2" fill="none"/><path d="M1240 505c0-2.76 2.24-5 5-5h30c2.76 0 5 2.24 5 5v110c0 2.76-2.24 5-5 5h-30c-2.76 0-5-2.24-5-5z" stroke="#666" stroke-width="2" fill="#ccc"/><path d="M1239 581.94H981" fill="none"/><path d="M1239 581.94h-9.56m-9.55 0h-19.12m-9.56 0h-19.1m-9.56 0h-19.12m-9.55 0h-19.12m-9.56 0h-19.1m-9.56 0h-19.12m-9.55 0h-19.12m-9.56 0h-19.1m-9.56 0H981" stroke="#999" stroke-width="2" fill="none"/><path d="M1240 582.94h-1v-2h1zM995.27 586.58L981 581.94l14.27-4.63z" fill="#999"/><path d="M996.27 587.95L980 582.67v-1.45l16.27-5.3zm-12.03-6l10.03 3.25v-6.52z" fill="#999"/><defs><path fill="#333" d="M238-95c0 69-44 99-111 99C63 4 22-25 22-93v-155h51v151c-1 38 19 59 55 60 90 1 49-130 58-211h52v153" id="x"/><path fill="#333" d="M169-182c-1-43-94-46-97-3 18 66 151 10 154 114 3 95-165 93-204 36-6-8-10-19-12-30l50-8c3 46 112 56 116 5-17-69-150-10-154-114-4-87 153-88 188-35 5 8 8 18 10 28" id="y"/><path fill="#333" d="M24 0v-248h195v40H76v63h132v40H76v65h150V0H24" id="z"/><path fill="#333" d="M240-174c0 40-23 61-54 70L253 0h-59l-57-94H76V0H24v-248c93 4 217-23 216 74zM76-134c48-2 112 12 112-38 0-48-66-32-112-35v73" id="A"/><g id="a"><use transform="matrix(0.04938271604938272,0,0,0.04938271604938272,0,0)" xlink:href="#x"/><use transform="matrix(0.04938271604938272,0,0,0.04938271604938272,12.790123456790125,0)" xlink:href="#y"/><use transform="matrix(0.04938271604938272,0,0,0.04938271604938272,24.641975308641978,0)" xlink:href="#z"/><use transform="matrix(0.04938271604938272,0,0,0.04938271604938272,36.49382716049383,0)" xlink:href="#A"/></g><path fill="#333" d="M15-91v-56l181-69v40L49-119l147 57v40" id="B"/><g id="b"><use transform="matrix(0.04938271604938272,0,0,0.04938271604938272,0,0)" xlink:href="#B"/><use transform="matrix(0.04938271604938272,0,0,0.04938271604938272,10.370370370370372,0)" xlink:href="#B"/></g><path fill="#333" d="M199 0l-22-63H83L61 0H9l90-248h61L250 0h-51zm-33-102l-36-108c-10 38-24 72-36 108h72" id="C"/><path fill="#333" d="M67-125c0 53 21 87 73 88 37 1 54-22 65-47l45 17C233-25 199 4 140 4 58 4 20-42 15-125 8-235 124-281 211-232c18 10 29 29 36 50l-46 12c-8-25-30-41-62-41-52 0-71 34-72 86" id="D"/><path fill="#333" d="M136-208V0H84v-208H4v-40h212v40h-80" id="E"/><path fill="#333" d="M140-251c80 0 125 45 125 126S219 4 139 4C58 4 15-44 15-125s44-126 125-126zm-1 214c52 0 73-35 73-88 0-50-21-86-72-86-52 0-73 35-73 86s22 88 72 88" id="F"/><g id="c"><use transform="matrix(0.04938271604938272,0,0,0.04938271604938272,0,0)" xlink:href="#C"/><use transform="matrix(0.04938271604938272,0,0,0.04938271604938272,12.790123456790125,0)" xlink:href="#D"/><use transform="matrix(0.04938271604938272,0,0,0.04938271604938272,25.58024691358025,0)" xlink:href="#E"/><use transform="matrix(0.04938271604938272,0,0,0.04938271604938272,36.04938271604939,0)" xlink:href="#F"/><use transform="matrix(0.04938271604938272,0,0,0.04938271604938272,49.876543209876544,0)" xlink:href="#A"/></g><path fill="#333" d="M15-22v-40l146-57-146-57v-40l181 69v56" id="G"/><g id="d"><use transform="matrix(0.04938271604938272,0,0,0.04938271604938272,0,0)" xlink:href="#G"/><use transform="matrix(0.04938271604938272,0,0,0.04938271604938272,10.370370370370372,0)" xlink:href="#G"/></g><path fill="#333" d="M24 0v-248h52V0H24" id="H"/><path fill="#333" d="M147 0H94L2-248h55l64 206c17-72 42-137 63-206h54" id="I"/><path fill="#333" d="M146-102V0H94v-102L6-248h54l60 105 60-105h54" id="J"/><g id="e"><use transform="matrix(0.04938271604938272,0,0,0.04938271604938272,0,0)" xlink:href="#C"/><use transform="matrix(0.04938271604938272,0,0,0.04938271604938272,12.790123456790125,0)" xlink:href="#D"/><use transform="matrix(0.04938271604938272,0,0,0.04938271604938272,25.58024691358025,0)" xlink:href="#E"/><use transform="matrix(0.04938271604938272,0,0,0.04938271604938272,36.39506172839506,0)" xlink:href="#H"/><use transform="matrix(0.04938271604938272,0,0,0.04938271604938272,41.333333333333336,0)" xlink:href="#I"/><use transform="matrix(0.04938271604938272,0,0,0.04938271604938272,53.18518518518519,0)" xlink:href="#H"/><use transform="matrix(0.04938271604938272,0,0,0.04938271604938272,58.12345679012346,0)" xlink:href="#E"/><use transform="matrix(0.04938271604938272,0,0,0.04938271604938272,68.93827160493828,0)" xlink:href="#J"/></g><path fill="#333" d="M186 0v-106H76V0H24v-248h52v99h110v-99h50V0h-50" id="K"/><path fill="#333" d="M175 0L67-191c6 58 2 128 3 191H24v-248h59L193-55c-6-58-2-129-3-193h46V0h-61" id="L"/><path fill="#333" d="M67-125c0 54 23 88 75 88 28 0 53-7 68-21v-34h-60v-39h108v91C232-14 192 4 140 4 58 4 20-42 15-125 8-236 126-280 215-234c19 10 29 26 37 47l-47 15c-11-23-29-39-63-39-53 1-75 33-75 86" id="M"/><g id="f"><use transform="matrix(0.04938271604938272,0,0,0.04938271604938272,0,0)" xlink:href="#K"/><use transform="matrix(0.04938271604938272,0,0,0.04938271604938272,12.790123456790125,0)" xlink:href="#H"/><use transform="matrix(0.04938271604938272,0,0,0.04938271604938272,17.7283950617284,0)" xlink:href="#A"/><use transform="matrix(0.04938271604938272,0,0,0.04938271604938272,30.518518518518526,0)" xlink:href="#H"/><use transform="matrix(0.04938271604938272,0,0,0.04938271604938272,35.4567901234568,0)" xlink:href="#L"/><use transform="matrix(0.04938271604938272,0,0,0.04938271604938272,48.246913580246925,0)" xlink:href="#M"/></g><g id="g"><use transform="matrix(0.04938271604938272,0,0,0.04938271604938272,0,0)" xlink:href="#y"/><use transform="matrix(0.04938271604938272,0,0,0.04938271604938272,11.851851851851853,0)" xlink:href="#D"/><use transform="matrix(0.04938271604938272,0,0,0.04938271604938272,24.641975308641978,0)" xlink:href="#A"/><use transform="matrix(0.04938271604938272,0,0,0.04938271604938272,37.4320987654321,0)" xlink:href="#z"/><use transform="matrix(0.04938271604938272,0,0,0.04938271604938272,49.283950617283956,0)" xlink:href="#z"/><use transform="matrix(0.04938271604938272,0,0,0.04938271604938272,61.13580246913581,0)" xlink:href="#L"/></g><path fill="#999" d="M169-182c-1-43-94-46-97-3 18 66 151 10 154 114 3 95-165 93-204 36-6-8-10-19-12-30l50-8c3 46 112 56 116 5-17-69-150-10-154-114-4-87 153-88 188-35 5 8 8 18 10 28" id="N"/><path fill="#999" d="M24 0v-248h195v40H76v63h132v40H76v65h150V0H24" id="O"/><path fill="#999" d="M24 0v-248h52v208h133V0H24" id="P"/><path fill="#999" d="M67-125c0 53 21 87 73 88 37 1 54-22 65-47l45 17C233-25 199 4 140 4 58 4 20-42 15-125 8-235 124-281 211-232c18 10 29 29 36 50l-46 12c-8-25-30-41-62-41-52 0-71 34-72 86" id="Q"/><path fill="#999" d="M136-208V0H84v-208H4v-40h212v40h-80" id="R"/><path fill="#999" d="M24 0v-248h52V0H24" id="S"/><path fill="#999" d="M175 0L67-191c6 58 2 128 3 191H24v-248h59L193-55c-6-58-2-129-3-193h46V0h-61" id="T"/><path fill="#999" d="M67-125c0 54 23 88 75 88 28 0 53-7 68-21v-34h-60v-39h108v91C232-14 192 4 140 4 58 4 20-42 15-125 8-236 126-280 215-234c19 10 29 26 37 47l-47 15c-11-23-29-39-63-39-53 1-75 33-75 86" id="U"/><g id="h"><use transform="matrix(0.09876543209876544,0,0,0.09876543209876544,0,0)" xlink:href="#N"/><use transform="matrix(0.09876543209876544,0,0,0.09876543209876544,23.703703703703706,0)" xlink:href="#O"/><use transform="matrix(0.09876543209876544,0,0,0.09876543209876544,47.40740740740741,0)" xlink:href="#P"/><use transform="matrix(0.09876543209876544,0,0,0.09876543209876544,69.03703703703704,0)" xlink:href="#O"/><use transform="matrix(0.09876543209876544,0,0,0.09876543209876544,92.74074074074075,0)" xlink:href="#Q"/><use transform="matrix(0.09876543209876544,0,0,0.09876543209876544,118.320987654321,0)" xlink:href="#R"/><use transform="matrix(0.09876543209876544,0,0,0.09876543209876544,139.95061728395063,0)" xlink:href="#S"/><use transform="matrix(0.09876543209876544,0,0,0.09876543209876544,149.8271604938272,0)" xlink:href="#T"/><use transform="matrix(0.09876543209876544,0,0,0.09876543209876544,175.40740740740745,0)" xlink:href="#U"/></g><path fill="#999" d="M230 0l2-204L168 0h-37L68-204 70 0H24v-248h70l56 185 57-185h69V0h-46" id="V"/><path fill="#999" d="M140-251c80 0 125 45 125 126S219 4 139 4C58 4 15-44 15-125s44-126 125-126zm-1 214c52 0 73-35 73-88 0-50-21-86-72-86-52 0-73 35-73 86s22 88 72 88" id="W"/><g id="i"><use transform="matrix(0.09876543209876544,0,0,0.09876543209876544,0,0)" xlink:href="#V"/><use transform="matrix(0.09876543209876544,0,0,0.09876543209876544,29.530864197530867,0)" xlink:href="#S"/><use transform="matrix(0.09876543209876544,0,0,0.09876543209876544,39.40740740740741,0)" xlink:href="#N"/><use transform="matrix(0.09876543209876544,0,0,0.09876543209876544,63.111111111111114,0)" xlink:href="#N"/><use transform="matrix(0.09876543209876544,0,0,0.09876543209876544,86.81481481481482,0)" xlink:href="#S"/><use transform="matrix(0.09876543209876544,0,0,0.09876543209876544,96.69135802469137,0)" xlink:href="#W"/><use transform="matrix(0.09876543209876544,0,0,0.09876543209876544,124.34567901234568,0)" xlink:href="#T"/></g><path fill="#999" d="M24-248c120-7 223 5 221 122C244-46 201 0 124 0H24v-248zM76-40c74 7 117-18 117-86 0-67-45-88-117-82v168" id="X"/><path fill="#999" d="M199 0l-22-63H83L61 0H9l90-248h61L250 0h-51zm-33-102l-36-108c-10 38-24 72-36 108h72" id="Y"/><path fill="#999" d="M240-174c0 40-23 61-54 70L253 0h-59l-57-94H76V0H24v-248c93 4 217-23 216 74zM76-134c48-2 112 12 112-38 0-48-66-32-112-35v73" id="Z"/><g id="j"><use transform="matrix(0.09876543209876544,0,0,0.09876543209876544,0,0)" xlink:href="#X"/><use transform="matrix(0.09876543209876544,0,0,0.09876543209876544,25.58024691358025,0)" xlink:href="#S"/><use transform="matrix(0.09876543209876544,0,0,0.09876543209876544,35.4567901234568,0)" xlink:href="#Y"/><use transform="matrix(0.09876543209876544,0,0,0.09876543209876544,61.03703703703705,0)" xlink:href="#U"/><use transform="matrix(0.09876543209876544,0,0,0.09876543209876544,88.69135802469137,0)" xlink:href="#Z"/><use transform="matrix(0.09876543209876544,0,0,0.09876543209876544,114.27160493827161,0)" xlink:href="#Y"/><use transform="matrix(0.09876543209876544,0,0,0.09876543209876544,139.85185185185188,0)" xlink:href="#V"/></g><path fill="#999" d="M233-177c-1 41-23 64-60 70L243 0h-38l-65-103H63V0H30v-248c88 3 205-21 203 71zM63-129c60-2 137 13 137-47 0-61-80-42-137-45v92" id="aa"/><path fill="#999" d="M141-36C126-15 110 5 73 4 37 3 15-17 15-53c-1-64 63-63 125-63 3-35-9-54-41-54-24 1-41 7-42 31l-33-3c5-37 33-52 76-52 45 0 72 20 72 64v82c-1 20 7 32 28 27v20c-31 9-61-2-59-35zM48-53c0 20 12 33 32 33 41-3 63-29 60-74-43 2-92-5-92 41" id="ab"/><path fill="#999" d="M101-234c-31-9-42 10-38 44h38v23H63V0H32v-167H5v-23h27c-7-52 17-82 69-68v24" id="ac"/><path fill="#999" d="M100-194c63 0 86 42 84 106H49c0 40 14 67 53 68 26 1 43-12 49-29l28 8c-11 28-37 45-77 45C44 4 14-33 15-96c1-61 26-98 85-98zm52 81c6-60-76-77-97-28-3 7-6 17-6 28h103" id="ad"/><path fill="#999" d="M24 0v-261h32V0H24" id="ae"/><path fill="#999" d="M30-248c87 1 191-15 191 75 0 78-77 80-158 76V0H30v-248zm33 125c57 0 124 11 124-50 0-59-68-47-124-48v98" id="af"/><path fill="#999" d="M100-194c62-1 85 37 85 99 1 63-27 99-86 99S16-35 15-95c0-66 28-99 85-99zM99-20c44 1 53-31 53-75 0-43-8-75-51-75s-53 32-53 75 10 74 51 75" id="ag"/><path fill="#999" d="M117-194c89-4 53 116 60 194h-32v-121c0-31-8-49-39-48C34-167 62-67 57 0H25l-1-190h30c1 10-1 24 2 32 11-22 29-35 61-36" id="ah"/><path fill="#999" d="M59-47c-2 24 18 29 38 22v24C64 9 27 4 27-40v-127H5v-23h24l9-43h21v43h35v23H59v120" id="ai"/><path fill="#999" d="M135-143c-3-34-86-38-87 0 15 53 115 12 119 90S17 21 10-45l28-5c4 36 97 45 98 0-10-56-113-15-118-90-4-57 82-63 122-42 12 7 21 19 24 35" id="aj"/><path fill="#999" d="M185-189c-5-48-123-54-124 2 14 75 158 14 163 119 3 78-121 87-175 55-17-10-28-26-33-46l33-7c5 56 141 63 141-1 0-78-155-14-162-118-5-82 145-84 179-34 5 7 8 16 11 25" id="ak"/><path fill="#999" d="M24-231v-30h32v30H24zM24 0v-190h32V0H24" id="al"/><path fill="#999" d="M114-163C36-179 61-72 57 0H25l-1-190h30c1 12-1 29 2 39 6-27 23-49 58-41v29" id="am"/><g id="k"><use transform="matrix(0.06172839506172778,0,0,0.06172839506172778,0,0)" xlink:href="#aa"/><use transform="matrix(0.06172839506172778,0,0,0.06172839506172778,15.987654320987495,0)" xlink:href="#ab"/><use transform="matrix(0.06172839506172778,0,0,0.06172839506172778,28.33333333333305,0)" xlink:href="#ac"/><use transform="matrix(0.06172839506172778,0,0,0.06172839506172778,34.50617283950583,0)" xlink:href="#ab"/><use transform="matrix(0.06172839506172778,0,0,0.06172839506172778,46.851851851851386,0)" xlink:href="#ad"/><use transform="matrix(0.06172839506172778,0,0,0.06172839506172778,59.19753086419694,0)" xlink:href="#ae"/><use transform="matrix(0.06172839506172778,0,0,0.06172839506172778,70.24691358024621,0)" xlink:href="#af"/><use transform="matrix(0.06172839506172778,0,0,0.06172839506172778,85.06172839506088,0)" xlink:href="#ag"/><use transform="matrix(0.06172839506172778,0,0,0.06172839506172778,97.40740740740644,0)" xlink:href="#ah"/><use transform="matrix(0.06172839506172778,0,0,0.06172839506172778,109.753086419752,0)" xlink:href="#ai"/><use transform="matrix(0.06172839506172778,0,0,0.06172839506172778,115.92592592592477,0)" xlink:href="#ad"/><use transform="matrix(0.06172839506172778,0,0,0.06172839506172778,128.27160493827034,0)" xlink:href="#aj"/><use transform="matrix(0.06172839506172778,0,0,0.06172839506172778,145.55555555555412,0)" xlink:href="#ak"/><use transform="matrix(0.06172839506172778,0,0,0.06172839506172778,160.3703703703688,0)" xlink:href="#al"/><use transform="matrix(0.06172839506172778,0,0,0.06172839506172778,165.2469135802453,0)" xlink:href="#ad"/><use transform="matrix(0.06172839506172778,0,0,0.06172839506172778,177.59259259259085,0)" xlink:href="#al"/><use transform="matrix(0.06172839506172778,0,0,0.06172839506172778,182.46913580246735,0)" xlink:href="#am"/><use transform="matrix(0.06172839506172778,0,0,0.06172839506172778,189.81481481481296,0)" xlink:href="#ag"/></g><path fill="#999" d="M32 76v-337h29V76H32" id="an"/><use transform="matrix(0.06172839506172778,0,0,0.06172839506172778,0,0)" xlink:href="#an" id="l"/><path fill="#999" d="M140-251c81 0 123 46 123 126C263-46 219 4 140 4 59 4 17-45 17-125s42-126 123-126zm0 227c63 0 89-41 89-101s-29-99-89-99c-61 0-89 39-89 99S79-25 140-24" id="ao"/><path fill="#999" d="M96-169c-40 0-48 33-48 73s9 75 48 75c24 0 41-14 43-38l32 2c-6 37-31 61-74 61-59 0-76-41-82-99-10-93 101-131 147-64 4 7 5 14 7 22l-32 3c-4-21-16-35-41-35" id="ap"/><path fill="#999" d="M115-194c53 0 69 39 70 98 0 66-23 100-70 100C84 3 66-7 56-30L54 0H23l1-261h32v101c10-23 28-34 59-34zm-8 174c40 0 45-34 45-75 0-40-5-75-45-74-42 0-51 32-51 76 0 43 10 73 51 73" id="aq"/><path fill="#999" d="M27 0v-27h64v-190l-56 39v-29l58-41h29v221h61V0H27" id="ar"/><path fill="#999" d="M101-251c68 0 85 55 85 127S166 4 100 4C33 4 14-52 14-124c0-73 17-127 87-127zm-1 229c47 0 54-49 54-102s-4-102-53-102c-51 0-55 48-55 102 0 53 5 102 54 102" id="as"/><path fill="#999" d="M68-38c1 34 0 65-14 84H32c9-13 17-26 17-46H33v-38h35" id="at"/><path fill="#999" d="M101-251c82-7 93 87 43 132L82-64C71-53 59-42 53-27h129V0H18c2-99 128-94 128-182 0-28-16-43-45-43s-46 15-49 41l-32-3c6-41 34-60 81-64" id="au"/><path fill="#999" d="M110-160c48 1 74 30 74 79 0 53-28 85-80 85-65 0-83-55-86-122-5-90 50-162 133-122 14 7 22 21 27 39l-31 6c-5-40-67-38-82-6-9 19-15 44-15 74 11-20 30-34 60-33zm-7 138c34 0 49-23 49-58s-16-56-50-56c-29 0-50 16-49 49 1 36 15 65 50 65" id="av"/><g id="m"><use transform="matrix(0.06172839506172778,0,0,0.06172839506172778,0,0)" xlink:href="#ao"/><use transform="matrix(0.06172839506172778,0,0,0.06172839506172778,17.28395061728378,0)" xlink:href="#ap"/><use transform="matrix(0.06172839506172778,0,0,0.06172839506172778,28.39506172839478,0)" xlink:href="#ai"/><use transform="matrix(0.06172839506172778,0,0,0.06172839506172778,34.56790123456756,0)" xlink:href="#ag"/><use transform="matrix(0.06172839506172778,0,0,0.06172839506172778,46.913580246913114,0)" xlink:href="#aq"/><use transform="matrix(0.06172839506172778,0,0,0.06172839506172778,59.25925925925867,0)" xlink:href="#ad"/><use transform="matrix(0.06172839506172778,0,0,0.06172839506172778,71.60493827160423,0)" xlink:href="#am"/><use transform="matrix(0.06172839506172778,0,0,0.06172839506172778,85.12345679012262,0)" xlink:href="#ar"/><use transform="matrix(0.06172839506172778,0,0,0.06172839506172778,97.46913580246817,0)" xlink:href="#as"/><use transform="matrix(0.06172839506172778,0,0,0.06172839506172778,109.81481481481373,0)" xlink:href="#at"/><use transform="matrix(0.06172839506172778,0,0,0.06172839506172778,122.16049382715929,0)" xlink:href="#au"/><use transform="matrix(0.06172839506172778,0,0,0.06172839506172778,134.50617283950484,0)" xlink:href="#as"/><use transform="matrix(0.06172839506172778,0,0,0.06172839506172778,146.8518518518504,0)" xlink:href="#ar"/><use transform="matrix(0.06172839506172778,0,0,0.06172839506172778,159.19753086419595,0)" xlink:href="#av"/></g><path d="M205 0l-28-72H64L36 0H1l101-248h38L239 0h-34zm-38-99l-47-123c-12 45-31 82-46 123h93" id="aw"/><path d="M212-179c-10-28-35-45-73-45-59 0-87 40-87 99 0 60 29 101 89 101 43 0 62-24 78-52l27 14C228-24 195 4 139 4 59 4 22-46 18-125c-6-104 99-153 187-111 19 9 31 26 39 46" id="ax"/><path d="M127-220V0H93v-220H8v-28h204v28h-85" id="ay"/><path d="M33 0v-248h34V0H33" id="az"/><path d="M137 0h-34L2-248h35l83 218 83-218h36" id="aA"/><path d="M137-103V0h-34v-103L8-248h37l75 118 75-118h37" id="aB"/><g id="n"><use transform="matrix(0.05,0,0,0.05,0,0)" xlink:href="#aw"/><use transform="matrix(0.05,0,0,0.05,12,0)" xlink:href="#ax"/><use transform="matrix(0.05,0,0,0.05,24.950000000000003,0)" xlink:href="#ay"/><use transform="matrix(0.05,0,0,0.05,35.900000000000006,0)" xlink:href="#az"/><use transform="matrix(0.05,0,0,0.05,40.900000000000006,0)" xlink:href="#aA"/><use transform="matrix(0.05,0,0,0.05,52.900000000000006,0)" xlink:href="#az"/><use transform="matrix(0.05,0,0,0.05,57.900000000000006,0)" xlink:href="#ay"/><use transform="matrix(0.05,0,0,0.05,68.85000000000001,0)" xlink:href="#aB"/><path d="M-.9 1.25h82.65v1.32H-.9z"/></g><path d="M240 0l2-218c-23 76-54 145-80 218h-23L58-218 59 0H30v-248h44l77 211c21-75 51-140 76-211h43V0h-30" id="aC"/><path d="M185-189c-5-48-123-54-124 2 14 75 158 14 163 119 3 78-121 87-175 55-17-10-28-26-33-46l33-7c5 56 141 63 141-1 0-78-155-14-162-118-5-82 145-84 179-34 5 7 8 16 11 25" id="aD"/><path d="M140-251c81 0 123 46 123 126C263-46 219 4 140 4 59 4 17-45 17-125s42-126 123-126zm0 227c63 0 89-41 89-101s-29-99-89-99c-61 0-89 39-89 99S79-25 140-24" id="aE"/><path d="M190 0L58-211 59 0H30v-248h39L202-35l-2-213h31V0h-41" id="aF"/><g id="o"><use transform="matrix(0.05,0,0,0.05,0,0)" xlink:href="#aC"/><use transform="matrix(0.05,0,0,0.05,14.950000000000001,0)" xlink:href="#az"/><use transform="matrix(0.05,0,0,0.05,19.950000000000003,0)" xlink:href="#aD"/><use transform="matrix(0.05,0,0,0.05,31.950000000000003,0)" xlink:href="#aD"/><use transform="matrix(0.05,0,0,0.05,43.95,0)" xlink:href="#az"/><use transform="matrix(0.05,0,0,0.05,48.95,0)" xlink:href="#aE"/><use transform="matrix(0.05,0,0,0.05,62.95,0)" xlink:href="#aF"/><path d="M-.9 1.25h77.7v1.32H-.9z"/></g><path d="M233-177c-1 41-23 64-60 70L243 0h-38l-65-103H63V0H30v-248c88 3 205-21 203 71zM63-129c60-2 137 13 137-47 0-61-80-42-137-45v92" id="aG"/><path d="M30 0v-248h187v28H63v79h144v27H63v87h162V0H30" id="aH"/><g id="p"><use transform="matrix(0.05,0,0,0.05,0,0)" xlink:href="#aD"/><use transform="matrix(0.05,0,0,0.05,12,0)" xlink:href="#ax"/><use transform="matrix(0.05,0,0,0.05,24.950000000000003,0)" xlink:href="#aG"/><use transform="matrix(0.05,0,0,0.05,37.900000000000006,0)" xlink:href="#aH"/><use transform="matrix(0.05,0,0,0.05,49.900000000000006,0)" xlink:href="#aH"/><use transform="matrix(0.05,0,0,0.05,61.900000000000006,0)" xlink:href="#aF"/><path d="M-.9 1.25h76.65v1.32H-.9z"/></g><g id="q"><use transform="matrix(0.05,0,0,0.05,0,0)" xlink:href="#aC"/><use transform="matrix(0.05,0,0,0.05,14.950000000000001,0)" xlink:href="#az"/><use transform="matrix(0.05,0,0,0.05,19.950000000000003,0)" xlink:href="#aD"/><use transform="matrix(0.05,0,0,0.05,31.950000000000003,0)" xlink:href="#aD"/><use transform="matrix(0.05,0,0,0.05,43.95,0)" xlink:href="#az"/><use transform="matrix(0.05,0,0,0.05,48.95,0)" xlink:href="#aE"/><use transform="matrix(0.05,0,0,0.05,62.95,0)" xlink:href="#aF"/><path d="M-.9 1.25h82.7v1.32H-.9z"/></g><path d="M30-248c87 1 191-15 191 75 0 78-77 80-158 76V0H30v-248zm33 125c57 0 124 11 124-50 0-59-68-47-124-48v98" id="aI"/><path d="M30 0v-248h33v221h125V0H30" id="aJ"/><g id="r"><use transform="matrix(0.05,0,0,0.05,0,0)" xlink:href="#aI"/><use transform="matrix(0.05,0,0,0.05,10.65,0)" xlink:href="#aw"/><use transform="matrix(0.05,0,0,0.05,22.65,0)" xlink:href="#aF"/><use transform="matrix(0.05,0,0,0.05,35.6,0)" xlink:href="#aH"/><use transform="matrix(0.05,0,0,0.05,47.6,0)" xlink:href="#aJ"/><path d="M-.9 1.25h59.4v1.32H-.9z"/></g><path d="M18-100v-36l175-74v27L42-118l151 64v27" id="aK"/><g id="s"><use transform="matrix(0.05,0,0,0.05,0,0)" xlink:href="#aK"/><use transform="matrix(0.05,0,0,0.05,10.5,0)" xlink:href="#aK"/></g><path d="M96-169c-40 0-48 33-48 73s9 75 48 75c24 0 41-14 43-38l32 2c-6 37-31 61-74 61-59 0-76-41-82-99-10-93 101-131 147-64 4 7 5 14 7 22l-32 3c-4-21-16-35-41-35" id="aL"/><path d="M114-163C36-179 61-72 57 0H25l-1-190h30c1 12-1 29 2 39 6-27 23-49 58-41v29" id="aM"/><path d="M100-194c63 0 86 42 84 106H49c0 40 14 67 53 68 26 1 43-12 49-29l28 8c-11 28-37 45-77 45C44 4 14-33 15-96c1-61 26-98 85-98zm52 81c6-60-76-77-97-28-3 7-6 17-6 28h103" id="aN"/><path d="M141-36C126-15 110 5 73 4 37 3 15-17 15-53c-1-64 63-63 125-63 3-35-9-54-41-54-24 1-41 7-42 31l-33-3c5-37 33-52 76-52 45 0 72 20 72 64v82c-1 20 7 32 28 27v20c-31 9-61-2-59-35zM48-53c0 20 12 33 32 33 41-3 63-29 60-74-43 2-92-5-92 41" id="aO"/><path d="M59-47c-2 24 18 29 38 22v24C64 9 27 4 27-40v-127H5v-23h24l9-43h21v43h35v23H59v120" id="aP"/><g id="t"><use transform="matrix(0.05,0,0,0.05,0,0)" xlink:href="#aL"/><use transform="matrix(0.05,0,0,0.05,9,0)" xlink:href="#aM"/><use transform="matrix(0.05,0,0,0.05,14.949999999999998,0)" xlink:href="#aN"/><use transform="matrix(0.05,0,0,0.05,24.95,0)" xlink:href="#aO"/><use transform="matrix(0.05,0,0,0.05,34.95,0)" xlink:href="#aP"/><use transform="matrix(0.05,0,0,0.05,39.95,0)" xlink:href="#aN"/></g><path d="M18-27v-27l151-64-151-65v-27l175 74v36" id="aQ"/><g id="u"><use transform="matrix(0.05,0,0,0.05,0,0)" xlink:href="#aQ"/><use transform="matrix(0.05,0,0,0.05,10.5,0)" xlink:href="#aQ"/></g><path d="M115-194c55 1 70 41 70 98S169 2 115 4C84 4 66-9 55-30l1 105H24l-1-265h31l2 30c10-21 28-34 59-34zm-8 174c40 0 45-34 45-75s-6-73-45-74c-42 0-51 32-51 76 0 43 10 73 51 73" id="aR"/><path d="M24-231v-30h32v30H24zM24 0v-190h32V0H24" id="aS"/><path d="M135-143c-3-34-86-38-87 0 15 53 115 12 119 90S17 21 10-45l28-5c4 36 97 45 98 0-10-56-113-15-118-90-4-57 82-63 122-42 12 7 21 19 24 35" id="aT"/><path d="M100-194c62-1 85 37 85 99 1 63-27 99-86 99S16-35 15-95c0-66 28-99 85-99zM99-20c44 1 53-31 53-75 0-43-8-75-51-75s-53 32-53 75 10 74 51 75" id="aU"/><path d="M117-194c89-4 53 116 60 194h-32v-121c0-31-8-49-39-48C34-167 62-67 57 0H25l-1-190h30c1 10-1 24 2 32 11-22 29-35 61-36" id="aV"/><path d="M87 75C49 33 22-17 22-94c0-76 28-126 65-167h31c-38 41-64 92-64 168S80 34 118 75H87" id="aW"/><path d="M33-261c38 41 65 92 65 168S71 34 33 75H2C39 34 66-17 66-93S39-220 2-261h31" id="aX"/><g id="v"><use transform="matrix(0.05,0,0,0.05,0,0)" xlink:href="#aO"/><use transform="matrix(0.05,0,0,0.05,10,0)" xlink:href="#aL"/><use transform="matrix(0.05,0,0,0.05,19,0)" xlink:href="#aL"/><use transform="matrix(0.05,0,0,0.05,28,0)" xlink:href="#aN"/><use transform="matrix(0.05,0,0,0.05,38,0)" xlink:href="#aR"/><use transform="matrix(0.05,0,0,0.05,48,0)" xlink:href="#aP"/><use transform="matrix(0.05,0,0,0.05,53,0)" xlink:href="#aC"/><use transform="matrix(0.05,0,0,0.05,67.95,0)" xlink:href="#aS"/><use transform="matrix(0.05,0,0,0.05,71.9,0)" xlink:href="#aT"/><use transform="matrix(0.05,0,0,0.05,80.9,0)" xlink:href="#aT"/><use transform="matrix(0.05,0,0,0.05,89.9,0)" xlink:href="#aS"/><use transform="matrix(0.05,0,0,0.05,93.85000000000001,0)" xlink:href="#aU"/><use transform="matrix(0.05,0,0,0.05,103.85000000000001,0)" xlink:href="#aV"/><use transform="matrix(0.05,0,0,0.05,113.85000000000001,0)" xlink:href="#aW"/><use transform="matrix(0.05,0,0,0.05,119.80000000000001,0)" xlink:href="#aX"/></g><g id="w"><use transform="matrix(0.05,0,0,0.05,0,0)" xlink:href="#aC"/><use transform="matrix(0.05,0,0,0.05,14.950000000000001,0)" xlink:href="#az"/><use transform="matrix(0.05,0,0,0.05,19.950000000000003,0)" xlink:href="#aD"/><use transform="matrix(0.05,0,0,0.05,31.950000000000003,0)" xlink:href="#aD"/><use transform="matrix(0.05,0,0,0.05,43.95,0)" xlink:href="#az"/><use transform="matrix(0.05,0,0,0.05,48.95,0)" xlink:href="#aE"/><use transform="matrix(0.05,0,0,0.05,62.95,0)" xlink:href="#aF"/><path d="M-.9 1.25h77.7v1.32H-.9z"/></g></defs></g></svg>