<svg xmlns="http://www.w3.org/2000/svg" xmlns:xlink="http://www.w3.org/1999/xlink" width="3456" height="1360"><g transform="translate(0 0)"><path d="M701 730h579" fill="none"/><path d="M701 730h10.16m10.16 0h20.3m10.17 0h20.3m10.16 0h20.32m10.16 0h20.3m10.17 0h20.33m10.15 0H894m10.16 0h20.3m10.17 0h20.32m10.16 0h20.32m10.16 0h20.3m10.17 0h20.32m10.16 0h20.3m10.17 0h20.32m10.15 0h20.32m10.15 0h20.3m10.17 0h20.32m10.15 0h20.3m10.17 0h20.3m10.17 0H1280" stroke="#999" stroke-width="2" fill="none"/><path d="M715.27 734.64L701 730l14.27-4.64z" fill="#999"/><path d="M716.27 736L700 730.74v-1.46l16.27-5.28zm-12.03-6l10.03 3.26v-6.52z" fill="#999"/><path d="M1279 784H701" fill="none"/><path d="M1279 784h-10.14m-10.14 0h-20.28m-10.14 0h-20.28m-10.14 0h-20.28m-10.14 0h-20.28m-10.14 0h-20.3m-10.13 0h-20.27m-10.14 0h-20.3m-10.13 0h-20.28m-10.15 0h-20.28m-10.14 0h-20.28m-10.14 0h-20.27m-10.14 0h-20.3m-10.13 0H873.4m-10.15 0h-20.3m-10.13 0h-20.28m-10.14 0h-20.28m-10.14 0H751.7m-10.14 0h-20.28m-10.14 0H701" stroke="#999" stroke-width="2" fill="none"/><path d="M1280 785h-1v-2h1zM715.27 788.64L701 784l14.27-4.64z" fill="#999"/><path d="M716.27 790L700 784.74v-1.46l16.27-5.28zm-12.03-6l10.03 3.26v-6.52z" fill="#999"/><path d="M1700 260v539" fill="none"/><path d="M1700 260v9.98m0 9.98v19.97m0 9.98v19.97m0 9.98v19.96m0 10v19.96m0 9.98v19.96m0 10v19.95m0 9.98v19.96m0 9.97v19.97m0 9.98v19.96m0 9.98v19.97m0 9.98v19.97m0 9.98v19.96m0 10v19.96m0 9.98v19.96m0 10v19.95m0 9.98v19.96m0 9.97v19.97m0 9.98V799" stroke="#999" stroke-width="2" fill="none"/><path d="M1701 800h-2v-1h2z" fill="#999"/><path d="M1509.33 581.33v14.34c0 2.76 2.24 5 5 5H1575c2.76 0 5 2.24 5 5V675c0 2.76-2.24 5-5 5h-35M1509.33 581.33v-3" stroke="#999" stroke-width="2" fill="none"/><path d="M1554.27 684.64L1540 680l14.27-4.64z" fill="#999"/><path d="M1555.27 686l-15.27-4.95v-2.1l15.27-4.96zm-12.03-6l10.03 3.26v-6.52z" fill="#999"/><use xlink:href="#a" transform="matrix(1,0,0,1,1528.5526339067126,575.8258586618398) translate(0 14.4)"/><path d="M2159 862.67h-454c-2.76 0-5 2.24-5 5v30c0 2.76-2.24 5-5 5h-154" fill="none"/><path d="M2159 862.67h-9.97m-9.97 0h-19.94m-9.97 0h-19.94m-9.96 0h-19.94m-9.97 0h-19.94m-9.98 0h-19.94m-9.96 0h-19.94m-9.97 0h-19.93m-9.97 0h-19.94m-9.97 0h-19.95m-9.97 0h-19.94m-9.97 0h-19.94m-9.97 0h-19.94m-9.97 0h-19.94m-9.96 0h-19.94m-9.97 0h-19.94m-.4 9.57v19.94m0 9.97v.26c0 .15-.12.27-.26.27h-19.16m-9.97 0h-19.93m-9.97 0h-19.94m-9.97 0h-19.95m-9.97 0h-19.94m-9.97 0H1541" stroke="#999" stroke-width="2" fill="none"/><path d="M2160 863.67h-1v-2h1zM1555.27 907.3l-14.27-4.63 14.27-4.64z" fill="#999"/><path d="M1556.27 908.68l-16.27-5.3v-1.44l16.27-5.3zm-12.03-6l10.03 3.25v-6.52z" fill="#999"/><path d="M220 145c0-2.76 2.24-5 5-5h150c2.76 0 5 2.24 5 5v110c0 2.76-2.24 5-5 5H225c-2.76 0-5-2.24-5-5z" stroke="#666" stroke-width="2" fill="#ff8f80"/><use xlink:href="#b" transform="matrix(1,0,0,1,220,140) translate(61.75308641975309 62.97222222222222)"/><path d="M300 260v452.67c0 2.2 1.8 4 4 4s4 1.8 4 4v452.66" fill="none"/><path d="M300 260v9.9m0 9.9v19.83m0 9.9v19.82m0 9.9v19.82m0 9.9v19.82m0 9.9v19.8m0 9.92v19.8m0 9.92v19.8m0 9.92v19.8m0 9.92v19.8m0 9.92v19.8m0 9.92v19.8m0 9.92v19.8m0 9.92v19.8m0 9.92v19.8m0 9.92v19.8m8 1.92v19.8m0 9.92v19.8m0 9.92v19.8m0 9.92v19.8m0 9.92v19.82m0 9.9v19.82m0 9.9v19.82m0 9.9v19.82m0 9.9v19.82m0 9.9v19.82m0 9.9v19.82m0 9.9v19.82m0 9.9v19.82m0 9.9v19.82m0 9.9v19.82m0 9.9v9.9M308 1173.33v3" stroke="#999" stroke-width="2" fill="none"/><path d="M280 355c0-2.76 2.24-5 5-5h30c2.76 0 5 2.24 5 5v830c0 2.76-2.24 5-5 5h-30c-2.76 0-5-2.24-5-5z" stroke="#666" stroke-width="2" fill="#f2f2f2"/><path d="M580 145c0-2.76 2.24-5 5-5h150c2.76 0 5 2.24 5 5v110c0 2.76-2.24 5-5 5H585c-2.76 0-5-2.24-5-5z" stroke="#666" stroke-width="2" fill="#a3d977"/><use xlink:href="#c" transform="matrix(1,0,0,1,580,140) translate(33.67901234567901 32.97222222222222)"/><use xlink:href="#d" transform="matrix(1,0,0,1,580,140) translate(41.08641975308642 54.30555555555556)"/><use xlink:href="#e" transform="matrix(1,0,0,1,580,140) translate(39.60493827160494 75.6388888888889)"/><use xlink:href="#f" transform="matrix(1,0,0,1,580,140) translate(45.456790123456784 96.97222222222223)"/><use xlink:href="#g" transform="matrix(1,0,0,1,580,140) translate(71.1358024691358 96.97222222222223)"/><use xlink:href="#h" transform="matrix(1,0,0,1,580,140) translate(93.80246913580247 96.97222222222223)"/><path d="M1420 145c0-2.76 2.24-5 5-5h150c2.76 0 5 2.24 5 5v110c0 2.76-2.24 5-5 5h-150c-2.76 0-5-2.24-5-5z" stroke="#666" stroke-width="2" fill="#83bbe5"/><use xlink:href="#i" transform="matrix(1,0,0,1,1420,140) translate(7.58024691358024 40.47222222222222)"/><use xlink:href="#j" transform="matrix(1,0,0,1,1420,140) translate(74.5925925925926 40.47222222222222)"/><use xlink:href="#e" transform="matrix(1,0,0,1,1420,140) translate(39.60493827160494 61.80555555555556)"/><use xlink:href="#f" transform="matrix(1,0,0,1,1420,140) translate(45.456790123456784 83.1388888888889)"/><use xlink:href="#g" transform="matrix(1,0,0,1,1420,140) translate(71.1358024691358 83.1388888888889)"/><use xlink:href="#h" transform="matrix(1,0,0,1,1420,140) translate(93.80246913580247 83.1388888888889)"/><path d="M660 260v1080" fill="none"/><path d="M660 260v10m0 10v20m0 10v20m0 10v20m0 10v20m0 10v20m0 10v20m0 10v20m0 10v20m0 10v20m0 10v20m0 10v20m0 10v20m0 10v20m0 10v20m0 10v20m0 10v20m0 10v20m0 10v20m0 10v20m0 10v20m0 10v20m0 10v20m0 10v20m0 10v20m0 10v20m0 10v20m0 10v20m0 10v20m0 10v20m0 10v20m0 10v20m0 10v20m0 10v20m0 10v20m0 10v20m0 10v10" stroke="#999" stroke-width="2" fill="none"/><path d="M640 385c0-2.76 2.24-5 5-5h30c2.76 0 5 2.24 5 5v770c0 2.76-2.24 5-5 5h-30c-2.76 0-5-2.24-5-5z" stroke="#666" stroke-width="2" fill="#f2f2f2"/><path d="M320 420h319" stroke="#999" stroke-width="2" fill="none"/><path d="M639 420l-14.27 4.64v-9.28z" fill="#999"/><path d="M640 419.27v1.46L623.73 426v-12zm-14.27 4l10.03-3.27-10.03-3.26z" fill="#999"/><use xlink:href="#k" transform="matrix(1,0,0,1,427.025,394.3999999999997) translate(0 14.4)"/><use xlink:href="#l" transform="matrix(1,0,0,1,427.025,394.3999999999997) translate(26 14.4)"/><use xlink:href="#m" transform="matrix(1,0,0,1,427.025,394.3999999999997) translate(83.95 14.4)"/><path d="M660 465c0-2.76 2.24-5 5-5h30c2.76 0 5 2.24 5 5v70c0 2.76-2.24 5-5 5h-30c-2.76 0-5-2.24-5-5z" stroke="#666" stroke-width="2" fill="#fff"/><path d="M680 420h55c2.76 0 5 2.24 5 5v70c0 2.76-2.24 5-5 5h-35" stroke="#999" stroke-width="2" fill="none"/><path d="M714.27 504.64L700 500l14.27-4.64z" fill="#999"/><path d="M715.27 506L700 501.06v-2.1l15.27-4.96zm-12.03-6l10.03 3.26v-6.52z" fill="#999"/><use xlink:href="#n" transform="matrix(1,0,0,1,712.2775339318471,397.302776302823) translate(0 14.4)"/><use xlink:href="#o" transform="matrix(1,0,0,1,740,440.9999999999999) translate(0 14.4)"/><path d="M660 565c0-2.76 2.24-5 5-5h30c2.76 0 5 2.24 5 5v230c0 2.76-2.24 5-5 5h-30c-2.76 0-5-2.24-5-5z" stroke="#666" stroke-width="2" fill="#fff"/><path d="M32 18.33c0-2.76 2.24-5 5-5h838c2.76 0 5 2.24 5 5v75.34c0 2.76-2.24 5-5 5H37c-2.76 0-5-2.24-5-5z" fill="none"/><use xlink:href="#p" transform="matrix(1,0,0,1,32,13.333333333333329) translate(0 50.111111111111114)"/><use xlink:href="#q" transform="matrix(1,0,0,1,32,13.333333333333329) translate(216.6913580246914 50.111111111111114)"/><use xlink:href="#r" transform="matrix(1,0,0,1,32,13.333333333333329) translate(425.7777777777778 50.111111111111114)"/><path d="M31.33 80H1728" stroke="#999" stroke-width="2" fill="none"/><path d="M1040 21c0-2.76 2.24-5 5-5h678c2.76 0 5 2.24 5 5v70c0 2.76-2.24 5-5 5h-678c-2.76 0-5-2.24-5-5z" fill="none"/><use xlink:href="#s" transform="matrix(1,0,0,1,1040,16.000000000000398) translate(180.53086419753595 44.4444444444444)"/><use xlink:href="#t" transform="matrix(1,0,0,1,1040,16.000000000000398) translate(260.6543209876586 44.4444444444444)"/><use xlink:href="#u" transform="matrix(1,0,0,1,1040,16.000000000000398) translate(367.7530864197563 44.4444444444444)"/><use xlink:href="#v" transform="matrix(1,0,0,1,1040,16.000000000000398) translate(462.6296296296319 44.4444444444444)"/><use xlink:href="#w" transform="matrix(1,0,0,1,1040,16.000000000000398) translate(486.8888888888909 44.4444444444444)"/><path d="M20 145c0-2.76 2.24-5 5-5h150c2.76 0 5 2.24 5 5v110c0 2.76-2.24 5-5 5H25c-2.76 0-5-2.24-5-5z" stroke="#666" stroke-width="2" fill="#498a44"/><use xlink:href="#x" transform="matrix(1,0,0,1,20,140) translate(61.055 51.9)"/><use xlink:href="#y" transform="matrix(1,0,0,1,20,140) translate(33.029999999999994 73.5)"/><use xlink:href="#z" transform="matrix(1,0,0,1,20,140) translate(59.029999999999994 73.5)"/><use xlink:href="#A" transform="matrix(1,0,0,1,20,140) translate(105.98 73.5)"/><path d="M100 260v1080c0 2.76 2.24 5 5 5h2.5c1.38 0 2.5 1.12 2.5 2.5v2.5" fill="none"/><path d="M100 260v9.9m0 9.92v19.82m0 9.9v19.83m0 9.9v19.83m0 9.9v19.83m0 9.9v19.83m0 9.9v19.83m0 9.9v19.82m0 9.9v19.83m0 9.9v19.83m0 9.9v19.83m0 9.92v19.82m0 9.9v19.83m0 9.9v19.83m0 9.9v19.83m0 9.9v19.83m0 9.9v19.83m0 9.9v19.82m0 9.9v19.83m0 9.9v19.82m0 9.9v19.83m0 9.9v19.83m0 9.9v19.83m0 9.9v19.83m0 9.9v19.82m0 9.9v19.83m0 9.9v19.83m0 9.9v19.83m0 9.92v19.82m0 9.9v19.83m0 9.9v19.83m0 9.9v19.83m0 9.9v19.83m0 9.9V1251m0 9.9v19.82m0 9.9v19.83m0 9.9v19.83m5.1 4.82h2.45c1.35 0 2.45 1.1 2.45 2.45v2.55M100 394.67h179" stroke="#999" stroke-width="2" fill="none"/><path d="M279 394.67l-14.27 4.63v-9.27z" fill="#999"/><path d="M280 393.94v1.45l-16.27 5.28v-12.03zm-14.27 4l10.03-3.27-10.03-3.26z" fill="#999"/><path d="M120 365c0-2.76 2.24-5 5-5h130c2.76 0 5 2.24 5 5v20c0 2.76-2.24 5-5 5H125c-2.76 0-5-2.24-5-5z" fill="none"/><use xlink:href="#B" transform="matrix(1,0,0,1,120,360) translate(17.525 18.6)"/><use xlink:href="#C" transform="matrix(1,0,0,1,120,360) translate(43.525 18.6)"/><use xlink:href="#D" transform="matrix(1,0,0,1,120,360) translate(101.475 18.6)"/><path d="M639 516H321" fill="none"/><path d="M639 516h-9.64m-9.63 0h-19.28m-9.63 0h-19.27m-9.64 0h-19.26m-9.64 0h-19.27m-9.64 0H484.8m-9.64 0H455.9m-9.63 0H427m-9.64 0H398.1m-9.65 0h-19.27m-9.63 0h-19.28m-9.63 0H321" stroke="#999" stroke-width="2" fill="none"/><path d="M640 517h-1v-2h1zM335.27 520.64L321 516l14.27-4.64z" fill="#999"/><path d="M336.27 522L320 516.74v-1.46l16.27-5.28zm-12.03-6l10.03 3.26v-6.52z" fill="#999"/><path d="M1220 145c0-2.76 2.24-5 5-5h150c2.76 0 5 2.24 5 5v110c0 2.76-2.24 5-5 5h-150c-2.76 0-5-2.24-5-5z" stroke="#666" stroke-width="2" fill="#ffc374"/><use xlink:href="#E" transform="matrix(1,0,0,1,1220,140) translate(53.529999999999994 63.15)"/><path d="M2100 145c0-2.76 2.24-5 5-5h150c2.76 0 5 2.24 5 5v110c0 2.76-2.24 5-5 5h-150c-2.76 0-5-2.24-5-5z" stroke="#666" stroke-width="2" fill="#f5b5c8"/><use xlink:href="#F" transform="matrix(1,0,0,1,2100,140) translate(22.804999999999986 63.15)"/><path d="M1300 260v1080" fill="none"/><path d="M1300 260v10m0 10v20m0 10v20m0 10v20m0 10v20m0 10v20m0 10v20m0 10v20m0 10v20m0 10v20m0 10v20m0 10v20m0 10v20m0 10v20m0 10v20m0 10v20m0 10v20m0 10v20m0 10v20m0 10v20m0 10v20m0 10v20m0 10v20m0 10v20m0 10v20m0 10v20m0 10v20m0 10v20m0 10v20m0 10v20m0 10v20m0 10v20m0 10v20m0 10v20m0 10v20m0 10v20m0 10v10M100 560h540" stroke="#999" stroke-width="2" fill="none"/><path d="M640 560l-14.27 4.64v-9.28z" stroke="#999" stroke-width="2" fill="#999"/><path d="M1280 535c0-2.76 2.24-5 5-5h30c2.76 0 5 2.24 5 5v520c0 2.76-2.24 5-5 5h-30c-2.76 0-5-2.24-5-5z" stroke="#666" stroke-width="2" fill="#fff"/><path d="M760 445c0-2.76 2.24-5 5-5h110c2.76 0 5 2.24 5 5v20c0 2.76-2.24 5-5 5H765c-2.76 0-5-2.24-5-5z" fill="none"/><use xlink:href="#B" transform="matrix(1,0,0,1,760,440) translate(7.524999999999999 18.6)"/><use xlink:href="#C" transform="matrix(1,0,0,1,760,440) translate(33.525 18.6)"/><use xlink:href="#D" transform="matrix(1,0,0,1,760,440) translate(91.475 18.6)"/><path d="M840 145c0-2.76 2.24-5 5-5h150c2.76 0 5 2.24 5 5v110c0 2.76-2.24 5-5 5H845c-2.76 0-5-2.24-5-5z" stroke="#666" stroke-width="2" fill="#ba2b65"/><use xlink:href="#G" transform="matrix(1,0,0,1,840,140) translate(43.05499999999999 51.9)"/><use xlink:href="#H" transform="matrix(1,0,0,1,840,140) translate(45.029999999999994 73.5)"/><use xlink:href="#I" transform="matrix(1,0,0,1,840,140) translate(71.03 73.5)"/><use xlink:href="#A" transform="matrix(1,0,0,1,840,140) translate(93.97999999999999 73.5)"/><path d="M920 260v1080" fill="none"/><path d="M920 260v10m0 10v20m0 10v20m0 10v20m0 10v20m0 10v20m0 10v20m0 10v20m0 10v20m0 10v20m0 10v20m0 10v20m0 10v20m0 10v20m0 10v20m0 10v20m0 10v20m0 10v20m0 10v20m0 10v20m0 10v20m0 10v20m0 10v20m0 10v20m0 10v20m0 10v20m0 10v20m0 10v20m0 10v20m0 10v20m0 10v20m0 10v20m0 10v20m0 10v20m0 10v20m0 10v20m0 10v10" stroke="#999" stroke-width="2" fill="none"/><path d="M900 465c0-2.76 2.24-5 5-5h30c2.76 0 5 2.24 5 5v330c0 2.76-2.24 5-5 5h-30c-2.76 0-5-2.24-5-5z" stroke="#666" stroke-width="2" fill="#fff"/><path d="M960 485c0-2.76 2.24-5 5-5h140c2.76 0 5 2.24 5 5v20c0 2.76-2.24 5-5 5H965c-2.76 0-5-2.24-5-5z" fill="none"/><use xlink:href="#B" transform="matrix(1,0,0,1,960,480) translate(22.525 18.6)"/><use xlink:href="#C" transform="matrix(1,0,0,1,960,480) translate(48.525 18.6)"/><use xlink:href="#D" transform="matrix(1,0,0,1,960,480) translate(106.475 18.6)"/><path d="M100 260v26.2" fill="none"/><path d="M100 260v8.73m0 8.73v8.73" stroke="#999" stroke-width="2" fill="none"/><path d="M1030 145c0-2.76 2.24-5 5-5h150c2.76 0 5 2.24 5 5v110c0 2.76-2.24 5-5 5h-150c-2.76 0-5-2.24-5-5z" stroke="#666" stroke-width="2" fill="#00624f"/><use xlink:href="#J" transform="matrix(1,0,0,1,1030,140) translate(30.055 51.9)"/><use xlink:href="#K" transform="matrix(1,0,0,1,1030,140) translate(84.005 51.9)"/><use xlink:href="#L" transform="matrix(1,0,0,1,1030,140) translate(45.029999999999994 73.5)"/><use xlink:href="#I" transform="matrix(1,0,0,1,1030,140) translate(71.03 73.5)"/><use xlink:href="#A" transform="matrix(1,0,0,1,1030,140) translate(93.97999999999999 73.5)"/><path d="M1110 260v1090" fill="none"/><path d="M1110 260v10.1m0 10.1v20.17m0 10.1v20.18m0 10.1v20.18m0 10.1v20.17m0 10.1v20.18m0 10.1v20.18m0 10.1v20.18m0 10.1v20.17m0 10.1v20.2m0 10.1v20.17m0 10.1v20.18m0 10.1v20.18m0 10.1v20.17m0 10.1v20.18m0 10.1v20.18m0 10.1v20.18m0 10.1v20.17m0 10.1v20.2m0 10.1v20.17m0 10.1v20.18m0 10.1v20.18m0 10.1v20.17m0 10.1v20.18m0 10.1v20.18m0 10.1v20.18m0 10.1v20.17m0 10.1v20.2m0 10.1v20.17m0 10.1v20.18m0 10.1v20.18m0 10.1v20.17m0 10.1v20.18m0 10.1v20.18m0 10.1v20.18m0 10.1v20.17m0 10.1v10.1" stroke="#999" stroke-width="2" fill="none"/><path d="M1090 505c0-2.76 2.24-5 5-5h30c2.76 0 5 2.24 5 5v290c0 2.76-2.24 5-5 5h-30c-2.76 0-5-2.24-5-5z" stroke="#666" stroke-width="2" fill="#fff"/><path d="M1170 545c0-2.76 2.24-5 5-5h100c2.76 0 5 2.24 5 5v11.6c0 2.76-2.24 5-5 5h-100c-2.76 0-5-2.24-5-5z" fill="none"/><use xlink:href="#B" transform="matrix(1,0,0,1,1170,540) translate(2.5249999999999986 14.6)"/><use xlink:href="#C" transform="matrix(1,0,0,1,1170,540) translate(28.525 14.6)"/><use xlink:href="#D" transform="matrix(1,0,0,1,1170,540) translate(86.475 14.6)"/><path d="M1500 700v650" fill="none"/><path d="M1500 700v9.85m0 9.85v19.7m0 9.84v19.7m0 9.85v19.68m0 9.85v19.7m0 9.85v19.7m0 9.84v19.7m0 9.85v19.7m0 9.85v19.7m0 9.84v19.7m0 9.85v19.7m0 9.85v19.7m0 9.85v19.7m0 9.84v19.7m0 9.85v19.68m0 9.85v19.7m0 9.85v19.7m0 9.84v19.7m0 9.85v19.7m0 9.85v19.7m0 9.84v19.7m0 9.85v19.7m0 9.85v9.85" stroke="#999" stroke-width="2" fill="none"/><path d="M1500 260v320" fill="none"/><path d="M1500 260v9.7m0 9.7v19.4m0 9.68v19.4m0 9.7v19.4m0 9.7v19.38m0 9.7v19.4m0 9.7v19.38m0 9.7v19.4m0 9.7v19.38m0 9.7v19.4m0 9.7v19.4m0 9.68v9.7" stroke="#999" stroke-width="2" fill="none"/><path d="M1480 565c0-2.76 2.24-5 5-5h30c2.76 0 5 2.24 5 5v450c0 2.76-2.24 5-5 5h-30c-2.76 0-5-2.24-5-5z" stroke="#666" stroke-width="2" fill="#fff"/><path d="M1580 640.38h49.8c.1 0 .2-.08.2-.2 0-.1.1-.18.2-.18h49.8" stroke="#999" stroke-width="2" fill="none"/><path d="M1680 640l-14.27 4.64v-9.28z" fill="#999"/><path d="M1680 638.95v2.1l-15.27 4.96v-12zm-13.27 4.3l10.03-3.25-10.03-3.26z" fill="#999"/><path d="M2180 260v1090" fill="none"/><path d="M2180 260v10.1m0 10.1v20.17m0 10.1v20.18m0 10.1v20.18m0 10.1v20.17m0 10.1v20.18m0 10.1v20.18m0 10.1v20.18m0 10.1v20.17m0 10.1v20.2m0 10.1v20.17m0 10.1v20.18m0 10.1v20.18m0 10.1v20.17m0 10.1v20.18m0 10.1v20.18m0 10.1v20.18m0 10.1v20.17m0 10.1v20.2m0 10.1v20.17m0 10.1v20.18m0 10.1v20.18m0 10.1v20.17m0 10.1v20.18m0 10.1v20.18m0 10.1v20.18m0 10.1v20.17m0 10.1v20.2m0 10.1v20.17m0 10.1v20.18m0 10.1v20.18m0 10.1v20.17m0 10.1v20.18m0 10.1v20.18m0 10.1v20.18m0 10.1v20.17m0 10.1v10.1" stroke="#999" stroke-width="2" fill="none"/><path d="M1680 625c0-2.76 2.24-5 5-5h30c2.76 0 5 2.24 5 5v50c0 2.76-2.24 5-5 5h-30c-2.76 0-5-2.24-5-5z" stroke="#666" stroke-width="2" fill="#fff"/><path d="M1580 600c0-2.76 2.24-5 5-5h108c2.76 0 5 2.24 5 5v33.2c0 2.76-2.24 5-5 5h-108c-2.76 0-5-2.24-5-5z" fill="none"/><use xlink:href="#B" transform="matrix(1,0,0,1,1580,595) translate(6.524999999999999 25.6)"/><use xlink:href="#C" transform="matrix(1,0,0,1,1580,595) translate(32.525 25.6)"/><use xlink:href="#D" transform="matrix(1,0,0,1,1580,595) translate(90.475 25.6)"/><path d="M1620 145c0-2.76 2.24-5 5-5h150c2.76 0 5 2.24 5 5v110c0 2.76-2.24 5-5 5h-150c-2.76 0-5-2.24-5-5z" stroke="#666" stroke-width="2" fill="#19967d"/><use xlink:href="#M" transform="matrix(1,0,0,1,1620,140) translate(12.104999999999999 51.9)"/><use xlink:href="#K" transform="matrix(1,0,0,1,1620,140) translate(101.95500000000001 51.9)"/><use xlink:href="#L" transform="matrix(1,0,0,1,1620,140) translate(45.029999999999994 73.5)"/><use xlink:href="#I" transform="matrix(1,0,0,1,1620,140) translate(71.03 73.5)"/><use xlink:href="#A" transform="matrix(1,0,0,1,1620,140) translate(93.97999999999999 73.5)"/><path d="M1870 638.63h144.06c.24 0 .44-.2.44-.44 0-.26.2-.46.44-.46H2159" stroke="#999" stroke-width="2" fill="none"/><path d="M2159 637.74l-14.27 4.64v-9.27z" fill="#999"/><path d="M2160 637.02v1.45l-16.27 5.3v-12.04zm-14.27 3.98l10.03-3.26-10.03-3.26z" fill="#999"/><path d="M2160 634c0-2.76 2.24-5 5-5h30c2.76 0 5 2.24 5 5v32c0 2.76-2.24 5-5 5h-30c-2.76 0-5-2.24-5-5z" stroke="#666" stroke-width="2" fill="#fff"/><path d="M1870 663.46h144.06c.25 0 .44.2.44.44s.2.43.44.43H2159" fill="none"/><path d="M1870 663.46h9.66m9.66 0h19.33m9.66 0h19.34m9.66 0h19.32m9.67 0h19.3m9.67 0h8.8c.24 0 .43.2.43.44s.2.43.44.43h8.8m9.65 0h19.3m9.68 0h19.32m9.66 0h19.33m9.65 0h19.33m9.66 0h9.66" stroke="#999" stroke-width="2" fill="none"/><path d="M1870 663.46l14.27-4.63v9.27z" stroke="#999" stroke-width="2" fill="#999"/><path d="M2160 665.33h-1v-2h1z" fill="#999"/><path d="M1720 630h145c2.76 0 5 2.24 5 5v38.22c0 2.76-2.24 5-5 5h-145" stroke="#999" stroke-width="2" fill="none"/><path d="M1734.27 682.86l-14.27-4.64 14.27-4.64z" fill="#999"/><path d="M1735.27 684.23l-17.2-5.58.97-.7.17-.52 16.07-5.22zm-12.03-6l10.03 3.25v-6.52z" fill="#999"/><path d="M1742 593.4c0-2.76 2.24-5 5-5h108c2.76 0 5 2.24 5 5V624c0 2.76-2.24 5-5 5h-108c-2.76 0-5-2.24-5-5z" fill="none"/><use xlink:href="#N" transform="matrix(1,0,0,1,1742,588.4) translate(5.149999999999999 24.1)"/><path d="M1700 900v450" fill="none"/><path d="M1700 900v10m0 10v20m0 10v20m0 10v20m0 10v20m0 10v20m0 10v20m0 10v20m0 10v20m0 10v20m0 10v20m0 10v20m0 10v20m0 10v20m0 10v20m0 10v10" stroke="#999" stroke-width="2" fill="none"/><path d="M1900 600c0-2.76 2.24-5 5-5h230c2.76 0 5 2.24 5 5v50c0 2.76-2.24 5-5 5h-230c-2.76 0-5-2.24-5-5z" fill="none"/><use xlink:href="#B" transform="matrix(1,0,0,1,1900,595) translate(67.525 33.6)"/><use xlink:href="#C" transform="matrix(1,0,0,1,1900,595) translate(93.525 33.6)"/><use xlink:href="#D" transform="matrix(1,0,0,1,1900,595) translate(151.47500000000002 33.6)"/><path d="M1679 668h-48.05c-.8 0-1.45.65-1.45 1.45 0 .8-.65 1.45-1.45 1.45H1580" fill="none"/><path d="M1679 668h-11.32m-11.32 0h-22.65m-8.4 2.9h-22.66m-11.32 0H1580" stroke="#999" stroke-width="2" fill="none"/><path d="M1680 669h-1v-2h1z" fill="#999"/><path d="M1580 670.9l14.27-4.63v9.27z" stroke="#999" stroke-width="2" fill="#999"/><use xlink:href="#O" transform="matrix(1,0,0,1,1605.660337980964,674.8752675235843) translate(0 14.4)"/><path d="M100 810h1380" stroke="#999" stroke-width="2" fill="none"/><path d="M1480 810l-14.27 4.64v-9.28z" fill="#999"/><path d="M1480 808.95v2.1l-15.27 4.96v-12zm-13.27 4.3l10.03-3.25-10.03-3.26z" fill="#999"/><path d="M1680 805c0-2.76 2.24-5 5-5h30c2.76 0 5 2.24 5 5v110c0 2.76-2.24 5-5 5h-30c-2.76 0-5-2.24-5-5z" stroke="#666" stroke-width="2" fill="#fff"/><path d="M1520 822.67h159" stroke="#999" stroke-width="2" fill="none"/><path d="M1679 822.67l-14.27 4.63v-9.27z" fill="#999"/><path d="M1680 821.94v1.45l-16.27 5.28v-12.03zm-14.27 4l10.03-3.27-10.03-3.26z" fill="#999"/><path d="M2160 825c0-2.76 2.24-5 5-5h30c2.76 0 5 2.24 5 5v50c0 2.76-2.24 5-5 5h-30c-2.76 0-5-2.24-5-5z" stroke="#666" stroke-width="2" fill="#fff"/><path d="M1721 825.33h438" stroke="#999" stroke-width="2" fill="none"/><path d="M1721 826.33h-1v-2h1zM2159 825.33l-14.27 4.64v-9.27z" fill="#999"/><path d="M2160.12 824.64l-.12.36v1.06l-16.27 5.3V819.3zm-14.4 3.95l10.04-3.27-10.03-3.26z" fill="#999"/><use xlink:href="#P" transform="matrix(1,0,0,1,1849.175,799.7333333333333) translate(0 14.4)"/><path d="M1500 625c0-2.76 2.24-5 5-5h30c2.76 0 5 2.24 5 5v310c0 2.76-2.24 5-5 5h-30c-2.76 0-5-2.24-5-5z" stroke="#666" stroke-width="2" fill="#fff"/><path d="M1341 650.67h138" stroke="#999" stroke-width="2" fill="none"/><path d="M1341 651.67h-1v-2h1zM1479 650.67l-14.27 4.63v-9.27z" fill="#999"/><path d="M1480 649.94v1.45l-16.27 5.28v-12.03zm-14.27 4l10.03-3.27-10.03-3.26z" fill="#999"/><use xlink:href="#Q" transform="matrix(1,0,0,1,1357.525,625.0666666666667) translate(0 14.4)"/><use xlink:href="#R" transform="matrix(1,0,0,1,1357.525,625.0666666666667) translate(26 14.4)"/><use xlink:href="#S" transform="matrix(1,0,0,1,1357.525,625.0666666666667) translate(83.95 14.4)"/><path d="M1300 545c0-2.76 2.24-5 5-5h30c2.76 0 5 2.24 5 5v110c0 2.76-2.24 5-5 5h-30c-2.76 0-5-2.24-5-5z" stroke="#666" stroke-width="2" fill="#fff"/><path d="M100 671h269.33c.1 0 .17-.07.17-.17s.07-.16.17-.16H639" stroke="#999" stroke-width="2" fill="none"/><path d="M639 670.67l-14.27 4.63v-9.27z" fill="#999"/><path d="M640 669.94v1.45l-16.27 5.28v-12.03zm-14.27 4l10.03-3.27-10.03-3.26z" fill="#999"/><path d="M1279 578.67h-149" fill="none"/><path d="M1279 578.67h-9.93m-9.94 0h-19.86m-9.94 0h-19.86m-9.94 0h-19.86m-9.94 0h-19.86m-9.94 0H1130" stroke="#999" stroke-width="2" fill="none"/><path d="M1280 579.67h-1v-2h1zM1144.27 583.3l-14.27-4.63 14.27-4.64z" fill="#999"/><path d="M1145.27 584.68l-15.27-4.96v-2.1l15.27-4.97zm-12.03-6l10.03 3.25v-6.52z" fill="#999"/><path d="M1090 576h-70c-2.76 0-5-2.24-5-5v-10c0-2.76-2.24-5-5-5h-70" fill="none"/><path d="M1090 576h-9.44m-9.45 0h-18.88m-9.44 0h-18.9m-8.88-.56v-18.88m-8.9-.56h-18.88m-9.44 0h-18.9m-9.44 0H940" stroke="#999" stroke-width="2" fill="none"/><path d="M954.27 560.64L940 556l14.27-4.64z" fill="#999"/><path d="M955.27 562L940 557.06v-2.1l15.27-4.96zm-12.03-6l10.03 3.26v-6.52z" fill="#999"/><path d="M1341 562.67h35c2.76 0 5 2.24 5 5V603c0 2.76-2.24 5-5 5h-35" stroke="#999" stroke-width="2" fill="none"/><path d="M1341 563.67h-1v-2h1zM1355.27 612.64L1341 608l14.27-4.64z" fill="#999"/><path d="M1356.27 614l-16.27-5.27v-1.46l16.27-5.28zm-12.03-6l10.03 3.26v-6.52z" fill="#999"/><g><use xlink:href="#T" transform="matrix(1,0,0,1,1351.086542725261,539.9395197604288) translate(0 14.4)"/></g><path d="M740 480h160" stroke="#999" stroke-width="2" fill="none"/><path d="M900 480l-14.27 4.64v-9.28z" fill="#999"/><path d="M900 478.95v2.1L884.73 486v-12zm-13.27 4.3l10.03-3.25-10.03-3.26z" fill="#999"/><path d="M935 510h72.5c2.76 0 5 2.24 5 5v9.33c0 2.76 2.24 5 5 5h72.5" stroke="#999" stroke-width="2" fill="none"/><path d="M1090 529.33l-14.27 4.64v-9.27z" fill="#999"/><path d="M1090 528.28v2.1l-15.27 4.97v-12.03zm-13.27 4.3l10.03-3.25-10.03-3.26z" fill="#999"/><path d="M1170 540h109" stroke="#999" stroke-width="2" fill="none"/><path d="M1279 540l-14.27 4.64v-9.28z" fill="#999"/><path d="M1280 539.27v1.46l-16.27 5.28v-12zm-14.27 4l10.03-3.27-10.03-3.26z" fill="#999"/><path d="M900 530h-94.5c-2.76 0-5-2.24-5-5v-1.33c0-2.76-2.24-5-5-5H701" fill="none"/><path d="M900 530h-10.02m-10 0h-20.04m-10.02 0H829.9m-10.03 0h-19.04c-.18 0-.33-.15-.33-.33v-.33m0-10V519c0-.2-.15-.33-.33-.33h-19.04m-10.02 0H751.1m-10.02 0h-20.03m-10 0H701" stroke="#999" stroke-width="2" fill="none"/><path d="M715.27 523.3L701 518.67l14.27-4.64z" fill="#999"/><path d="M716.27 524.68l-16.27-5.3v-1.44l16.27-5.3zm-12.03-6l10.03 3.25v-6.52z" fill="#999"/><path d="M1130 532h35c2.76 0 5 2.24 5 5v18c0 2.76-2.24 5-5 5h-35" stroke="#999" stroke-width="2" fill="none"/><path d="M1144.27 564.64L1130 560l14.27-4.64z" fill="#999"/><path d="M1145.27 566l-15.27-4.95v-2.1l15.27-4.96zm-12.03-6l10.03 3.26v-6.52z" fill="#999"/><g><use xlink:href="#U" transform="matrix(1,0,0,1,1135.8324188634235,508.38270756325466) translate(0 14.4)"/></g><path d="M700 595h199" stroke="#999" stroke-width="2" fill="none"/><path d="M899 595l-14.27 4.64v-9.28z" fill="#999"/><path d="M900 594.27v1.46L883.73 601v-12zm-14.27 4l10.03-3.27-10.03-3.26z" fill="#999"/><path d="M940 629h150" stroke="#999" stroke-width="2" fill="none"/><path d="M1090 629l-14.27 4.64v-9.28z" fill="#999"/><path d="M1090 627.95v2.1l-15.27 4.96v-12zm-13.27 4.3l10.03-3.25-10.03-3.26z" fill="#999"/><path d="M1130 671h69.5c2.76 0 5 2.24 5 5v20.33c0 2.76 2.24 5 5 5h69.5" stroke="#999" stroke-width="2" fill="none"/><path d="M1279 701.33l-14.27 4.64v-9.27z" fill="#999"/><path d="M1280 700.6v1.46l-16.27 5.3V695.3zm-14.27 4l10.03-3.27-10.03-3.26z" fill="#999"/><path d="M1080 625c0-2.76 2.24-5 5-5h230c2.76 0 5 2.24 5 5v50c0 2.76-2.24 5-5 5h-230c-2.76 0-5-2.24-5-5z" fill="none"/><g><use xlink:href="#V" transform="matrix(1,0,0,1,1080,620) translate(65.74999999999999 33.6)"/></g><path d="M701 742.67h198" stroke="#999" stroke-width="2" fill="none"/><path d="M701 743.67h-1v-2h1zM899 742.67l-14.27 4.63v-9.27z" fill="#999"/><path d="M900 741.94v1.45l-16.27 5.28v-12.03zm-14.27 4l10.03-3.27-10.03-3.26z" fill="#999"/><path d="M940 750h74.67c.18 0 .33-.15.33-.33 0-.2.15-.34.33-.34H1090" stroke="#999" stroke-width="2" fill="none"/><path d="M1090 749.33l-14.27 4.64v-9.27z" fill="#999"/><path d="M1090 748.28v2.1l-15.27 4.97v-12.03zm-13.27 4.3l10.03-3.25-10.03-3.26z" fill="#999"/><path d="M1130 768h149" stroke="#999" stroke-width="2" fill="none"/><path d="M1279 768l-14.27 4.64v-9.28z" fill="#999"/><path d="M1280 767.27v1.46l-16.27 5.28v-12zm-14.27 4l10.03-3.27-10.03-3.26z" fill="#999"/><g><use xlink:href="#W" transform="matrix(1,0,0,1,1143.75,742.4) translate(0 14.4)"/></g><defs><path d="M137-138c1-29-70-34-71-4 15 46 118 7 119 86 1 83-164 76-172 9l43-7c4 19 20 25 44 25 33 8 57-30 24-41C81-84 22-81 20-136c-2-80 154-74 161-7" id="X"/><path d="M185-48c-13 30-37 53-82 52C43 2 14-33 14-96s30-98 90-98c62 0 83 45 84 108H66c0 31 8 55 39 56 18 0 30-7 34-22zm-45-69c5-46-57-63-70-21-2 6-4 13-4 21h74" id="Y"/><path d="M115-3C79 11 28 4 28-45v-112H4v-33h27l15-45h31v45h36v33H77v99c-1 23 16 31 38 25v30" id="Z"/><path d="M85 4C-2 5 27-109 22-190h50c7 57-23 150 33 157 60-5 35-97 40-157h50l1 190h-47c-2-12 1-28-3-38-12 25-28 42-61 42" id="aa"/><path d="M135-194c53 0 70 44 70 98 0 56-19 98-73 100-31 1-45-17-59-34 3 33 2 69 2 105H25l-1-265h48c2 10 0 23 3 31 11-24 29-35 60-35zM114-30c33 0 39-31 40-66 0-38-9-64-40-64-56 0-55 130 0 130" id="ab"/><path d="M169-182c-1-43-94-46-97-3 18 66 151 10 154 114 3 95-165 93-204 36-6-8-10-19-12-30l50-8c3 46 112 56 116 5-17-69-150-10-154-114-4-87 153-88 188-35 5 8 8 18 10 28" id="ac"/><path d="M190-63c-7 42-38 67-86 67-59 0-84-38-90-98-12-110 154-137 174-36l-49 2c-2-19-15-32-35-32-30 0-35 28-38 64-6 74 65 87 74 30" id="ad"/><path d="M135-150c-39-12-60 13-60 57V0H25l-1-190h47c2 13-1 29 3 40 6-28 27-53 61-41v41" id="ae"/><path d="M135-194c87-1 58 113 63 194h-50c-7-57 23-157-34-157-59 0-34 97-39 157H25l-1-190h47c2 12-1 28 3 38 12-26 28-41 61-42" id="af"/><path d="M67-93c0 74 22 123 53 168H70C40 30 18-18 18-93s22-123 52-168h50c-32 44-53 94-53 168" id="ag"/><path d="M102-93c0 74-22 123-52 168H0C30 29 54-18 53-93c0-74-22-123-53-168h50c30 45 52 94 52 168" id="ah"/><g id="a"><use transform="matrix(0.05,0,0,0.05,0,0)" xlink:href="#X"/><use transform="matrix(0.05,0,0,0.05,10,0)" xlink:href="#Y"/><use transform="matrix(0.05,0,0,0.05,20,0)" xlink:href="#Z"/><use transform="matrix(0.05,0,0,0.05,25.950000000000003,0)" xlink:href="#aa"/><use transform="matrix(0.05,0,0,0.05,36.9,0)" xlink:href="#ab"/><use transform="matrix(0.05,0,0,0.05,47.85,0)" xlink:href="#ac"/><use transform="matrix(0.05,0,0,0.05,59.85,0)" xlink:href="#ad"/><use transform="matrix(0.05,0,0,0.05,69.85,0)" xlink:href="#ae"/><use transform="matrix(0.05,0,0,0.05,76.85,0)" xlink:href="#Y"/><use transform="matrix(0.05,0,0,0.05,86.85,0)" xlink:href="#Y"/><use transform="matrix(0.05,0,0,0.05,96.85,0)" xlink:href="#af"/><use transform="matrix(0.05,0,0,0.05,107.80000000000001,0)" xlink:href="#ag"/><use transform="matrix(0.05,0,0,0.05,113.75,0)" xlink:href="#ah"/></g><path fill="#333" d="M199 0l-22-63H83L61 0H9l90-248h61L250 0h-51zm-33-102l-36-108c-10 38-24 72-36 108h72" id="ai"/><path fill="#333" d="M24-248c93 1 206-16 204 79-1 75-69 88-152 82V0H24v-248zm52 121c47 0 100 7 100-41 0-47-54-39-100-39v80" id="aj"/><g id="b"><use transform="matrix(0.04938271604938272,0,0,0.04938271604938272,0,0)" xlink:href="#ai"/><use transform="matrix(0.04938271604938272,0,0,0.04938271604938272,12.790123456790125,0)" xlink:href="#aj"/><use transform="matrix(0.04938271604938272,0,0,0.04938271604938272,24.641975308641978,0)" xlink:href="#aj"/></g><path fill="#333" d="M275 0h-61l-44-196L126 0H64L0-248h53L97-49l45-199h58l43 199 44-199h52" id="ak"/><path fill="#333" d="M24 0v-248h195v40H76v63h132v40H76v65h150V0H24" id="al"/><path fill="#333" d="M24 0v-248h52v208h133V0H24" id="am"/><path fill="#333" d="M67-125c0 53 21 87 73 88 37 1 54-22 65-47l45 17C233-25 199 4 140 4 58 4 20-42 15-125 8-235 124-281 211-232c18 10 29 29 36 50l-46 12c-8-25-30-41-62-41-52 0-71 34-72 86" id="an"/><path fill="#333" d="M140-251c80 0 125 45 125 126S219 4 139 4C58 4 15-44 15-125s44-126 125-126zm-1 214c52 0 73-35 73-88 0-50-21-86-72-86-52 0-73 35-73 86s22 88 72 88" id="ao"/><path fill="#333" d="M230 0l2-204L168 0h-37L68-204 70 0H24v-248h70l56 185 57-185h69V0h-46" id="ap"/><g id="c"><use transform="matrix(0.04938271604938272,0,0,0.04938271604938272,0,0)" xlink:href="#ak"/><use transform="matrix(0.04938271604938272,0,0,0.04938271604938272,16.74074074074074,0)" xlink:href="#al"/><use transform="matrix(0.04938271604938272,0,0,0.04938271604938272,28.592592592592595,0)" xlink:href="#am"/><use transform="matrix(0.04938271604938272,0,0,0.04938271604938272,39.40740740740741,0)" xlink:href="#an"/><use transform="matrix(0.04938271604938272,0,0,0.04938271604938272,52.19753086419754,0)" xlink:href="#ao"/><use transform="matrix(0.04938271604938272,0,0,0.04938271604938272,66.0246913580247,0)" xlink:href="#ap"/><use transform="matrix(0.04938271604938272,0,0,0.04938271604938272,80.79012345679013,0)" xlink:href="#al"/></g><path fill="#333" d="M24 0v-248h52V0H24" id="aq"/><path fill="#333" d="M175 0L67-191c6 58 2 128 3 191H24v-248h59L193-55c-6-58-2-129-3-193h46V0h-61" id="ar"/><path fill="#333" d="M24-248c120-7 223 5 221 122C244-46 201 0 124 0H24v-248zM76-40c74 7 117-18 117-86 0-67-45-88-117-82v168" id="as"/><g id="d"><use transform="matrix(0.04938271604938272,0,0,0.04938271604938272,0,0)" xlink:href="#ak"/><use transform="matrix(0.04938271604938272,0,0,0.04938271604938272,16.74074074074074,0)" xlink:href="#aq"/><use transform="matrix(0.04938271604938272,0,0,0.04938271604938272,21.679012345679013,0)" xlink:href="#ar"/><use transform="matrix(0.04938271604938272,0,0,0.04938271604938272,34.46913580246914,0)" xlink:href="#as"/><use transform="matrix(0.04938271604938272,0,0,0.04938271604938272,47.25925925925927,0)" xlink:href="#ao"/><use transform="matrix(0.04938271604938272,0,0,0.04938271604938272,61.08641975308644,0)" xlink:href="#ak"/></g><path fill="#333" d="M136-208V0H84v-208H4v-40h212v40h-80" id="at"/><path fill="#333" d="M147 0H94L2-248h55l64 206c17-72 42-137 63-206h54" id="au"/><path fill="#333" d="M146-102V0H94v-102L6-248h54l60 105 60-105h54" id="av"/><g id="e"><use transform="matrix(0.04938271604938272,0,0,0.04938271604938272,0,0)" xlink:href="#ai"/><use transform="matrix(0.04938271604938272,0,0,0.04938271604938272,12.790123456790125,0)" xlink:href="#an"/><use transform="matrix(0.04938271604938272,0,0,0.04938271604938272,25.58024691358025,0)" xlink:href="#at"/><use transform="matrix(0.04938271604938272,0,0,0.04938271604938272,36.39506172839506,0)" xlink:href="#aq"/><use transform="matrix(0.04938271604938272,0,0,0.04938271604938272,41.333333333333336,0)" xlink:href="#au"/><use transform="matrix(0.04938271604938272,0,0,0.04938271604938272,53.18518518518519,0)" xlink:href="#aq"/><use transform="matrix(0.04938271604938272,0,0,0.04938271604938272,58.12345679012346,0)" xlink:href="#at"/><use transform="matrix(0.04938271604938272,0,0,0.04938271604938272,68.93827160493828,0)" xlink:href="#av"/></g><path fill="#333" d="M15-91v-56l181-69v40L49-119l147 57v40" id="aw"/><g id="f"><use transform="matrix(0.04938271604938272,0,0,0.04938271604938272,0,0)" xlink:href="#aw"/><use transform="matrix(0.04938271604938272,0,0,0.04938271604938272,10.370370370370372,0)" xlink:href="#aw"/></g><path fill="#333" d="M238-95c0 69-44 99-111 99C63 4 22-25 22-93v-155h51v151c-1 38 19 59 55 60 90 1 49-130 58-211h52v153" id="ax"/><g id="g"><use transform="matrix(0.04938271604938272,0,0,0.04938271604938272,0,0)" xlink:href="#ax"/><use transform="matrix(0.04938271604938272,0,0,0.04938271604938272,12.790123456790125,0)" xlink:href="#aq"/></g><path fill="#333" d="M15-22v-40l146-57-146-57v-40l181 69v56" id="ay"/><g id="h"><use transform="matrix(0.04938271604938272,0,0,0.04938271604938272,0,0)" xlink:href="#ay"/><use transform="matrix(0.04938271604938272,0,0,0.04938271604938272,10.370370370370372,0)" xlink:href="#ay"/></g><path fill="#333" d="M186 0v-106H76V0H24v-248h52v99h110v-99h50V0h-50" id="az"/><path fill="#333" d="M240-174c0 40-23 61-54 70L253 0h-59l-57-94H76V0H24v-248c93 4 217-23 216 74zM76-134c48-2 112 12 112-38 0-48-66-32-112-35v73" id="aA"/><path fill="#333" d="M67-125c0 54 23 88 75 88 28 0 53-7 68-21v-34h-60v-39h108v91C232-14 192 4 140 4 58 4 20-42 15-125 8-236 126-280 215-234c19 10 29 26 37 47l-47 15c-11-23-29-39-63-39-53 1-75 33-75 86" id="aB"/><g id="i"><use transform="matrix(0.04938271604938272,0,0,0.04938271604938272,0,0)" xlink:href="#az"/><use transform="matrix(0.04938271604938272,0,0,0.04938271604938272,12.790123456790125,0)" xlink:href="#aq"/><use transform="matrix(0.04938271604938272,0,0,0.04938271604938272,17.7283950617284,0)" xlink:href="#aA"/><use transform="matrix(0.04938271604938272,0,0,0.04938271604938272,30.518518518518526,0)" xlink:href="#aq"/><use transform="matrix(0.04938271604938272,0,0,0.04938271604938272,35.4567901234568,0)" xlink:href="#ar"/><use transform="matrix(0.04938271604938272,0,0,0.04938271604938272,48.246913580246925,0)" xlink:href="#aB"/></g><g id="j"><use transform="matrix(0.04938271604938272,0,0,0.04938271604938272,0,0)" xlink:href="#ak"/><use transform="matrix(0.04938271604938272,0,0,0.04938271604938272,16.74074074074074,0)" xlink:href="#aq"/><use transform="matrix(0.04938271604938272,0,0,0.04938271604938272,21.679012345679013,0)" xlink:href="#ar"/><use transform="matrix(0.04938271604938272,0,0,0.04938271604938272,34.46913580246914,0)" xlink:href="#as"/><use transform="matrix(0.04938271604938272,0,0,0.04938271604938272,47.25925925925927,0)" xlink:href="#ao"/><use transform="matrix(0.04938271604938272,0,0,0.04938271604938272,61.08641975308644,0)" xlink:href="#ak"/></g><g id="k"><use transform="matrix(0.05,0,0,0.05,0,0)" xlink:href="#aw"/><use transform="matrix(0.05,0,0,0.05,10.5,0)" xlink:href="#aw"/></g><path fill="#333" d="M190-63c-7 42-38 67-86 67-59 0-84-38-90-98-12-110 154-137 174-36l-49 2c-2-19-15-32-35-32-30 0-35 28-38 64-6 74 65 87 74 30" id="aC"/><path fill="#333" d="M135-150c-39-12-60 13-60 57V0H25l-1-190h47c2 13-1 29 3 40 6-28 27-53 61-41v41" id="aD"/><path fill="#333" d="M185-48c-13 30-37 53-82 52C43 2 14-33 14-96s30-98 90-98c62 0 83 45 84 108H66c0 31 8 55 39 56 18 0 30-7 34-22zm-45-69c5-46-57-63-70-21-2 6-4 13-4 21h74" id="aE"/><path fill="#333" d="M133-34C117-15 103 5 69 4 32 3 11-16 11-54c-1-60 55-63 116-61 1-26-3-47-28-47-18 1-26 9-28 27l-52-2c7-38 36-58 82-57s74 22 75 68l1 82c-1 14 12 18 25 15v27c-30 8-71 5-69-32zm-48 3c29 0 43-24 42-57-32 0-66-3-65 30 0 17 8 27 23 27" id="aF"/><path fill="#333" d="M115-3C79 11 28 4 28-45v-112H4v-33h27l15-45h31v45h36v33H77v99c-1 23 16 31 38 25v30" id="aG"/><g id="l"><use transform="matrix(0.05,0,0,0.05,0,0)" xlink:href="#aC"/><use transform="matrix(0.05,0,0,0.05,10,0)" xlink:href="#aD"/><use transform="matrix(0.05,0,0,0.05,17,0)" xlink:href="#aE"/><use transform="matrix(0.05,0,0,0.05,27,0)" xlink:href="#aF"/><use transform="matrix(0.05,0,0,0.05,37,0)" xlink:href="#aG"/><use transform="matrix(0.05,0,0,0.05,42.95,0)" xlink:href="#aE"/></g><g id="m"><use transform="matrix(0.05,0,0,0.05,0,0)" xlink:href="#ay"/><use transform="matrix(0.05,0,0,0.05,10.5,0)" xlink:href="#ay"/></g><path fill="#333" d="M137-138c1-29-70-34-71-4 15 46 118 7 119 86 1 83-164 76-172 9l43-7c4 19 20 25 44 25 33 8 57-30 24-41C81-84 22-81 20-136c-2-80 154-74 161-7" id="aH"/><path fill="#333" d="M85 4C-2 5 27-109 22-190h50c7 57-23 150 33 157 60-5 35-97 40-157h50l1 190h-47c-2-12 1-28-3-38-12 25-28 42-61 42" id="aI"/><path fill="#333" d="M135-194c53 0 70 44 70 98 0 56-19 98-73 100-31 1-45-17-59-34 3 33 2 69 2 105H25l-1-265h48c2 10 0 23 3 31 11-24 29-35 60-35zM114-30c33 0 39-31 40-66 0-38-9-64-40-64-56 0-55 130 0 130" id="aJ"/><path fill="#333" d="M169-182c-1-43-94-46-97-3 18 66 151 10 154 114 3 95-165 93-204 36-6-8-10-19-12-30l50-8c3 46 112 56 116 5-17-69-150-10-154-114-4-87 153-88 188-35 5 8 8 18 10 28" id="aK"/><path fill="#333" d="M135-194c87-1 58 113 63 194h-50c-7-57 23-157-34-157-59 0-34 97-39 157H25l-1-190h47c2 12-1 28 3 38 12-26 28-41 61-42" id="aL"/><path fill="#333" d="M67-93c0 74 22 123 53 168H70C40 30 18-18 18-93s22-123 52-168h50c-32 44-53 94-53 168" id="aM"/><path fill="#333" d="M102-93c0 74-22 123-52 168H0C30 29 54-18 53-93c0-74-22-123-53-168h50c30 45 52 94 52 168" id="aN"/><g id="n"><use transform="matrix(0.05,0,0,0.05,0,0)" xlink:href="#aH"/><use transform="matrix(0.05,0,0,0.05,10,0)" xlink:href="#aE"/><use transform="matrix(0.05,0,0,0.05,20,0)" xlink:href="#aG"/><use transform="matrix(0.05,0,0,0.05,25.950000000000003,0)" xlink:href="#aI"/><use transform="matrix(0.05,0,0,0.05,36.9,0)" xlink:href="#aJ"/><use transform="matrix(0.05,0,0,0.05,47.85,0)" xlink:href="#aK"/><use transform="matrix(0.05,0,0,0.05,59.85,0)" xlink:href="#aC"/><use transform="matrix(0.05,0,0,0.05,69.85,0)" xlink:href="#aD"/><use transform="matrix(0.05,0,0,0.05,76.85,0)" xlink:href="#aE"/><use transform="matrix(0.05,0,0,0.05,86.85,0)" xlink:href="#aE"/><use transform="matrix(0.05,0,0,0.05,96.85,0)" xlink:href="#aL"/><use transform="matrix(0.05,0,0,0.05,107.80000000000001,0)" xlink:href="#aM"/><use transform="matrix(0.05,0,0,0.05,113.75,0)" xlink:href="#aN"/></g><path fill="#999" d="M199 0l-22-63H83L61 0H9l90-248h61L250 0h-51zm-33-102l-36-108c-10 38-24 72-36 108h72" id="aO"/><path fill="#999" d="M24 0v-248h52v208h133V0H24" id="aP"/><path fill="#999" d="M67-125c0 53 21 87 73 88 37 1 54-22 65-47l45 17C233-25 199 4 140 4 58 4 20-42 15-125 8-235 124-281 211-232c18 10 29 29 36 50l-46 12c-8-25-30-41-62-41-52 0-71 34-72 86" id="aQ"/><path fill="#999" d="M186 0v-106H76V0H24v-248h52v99h110v-99h50V0h-50" id="aR"/><path fill="#999" d="M24 0v-248h195v40H76v63h132v40H76v65h150V0H24" id="aS"/><path fill="#999" d="M230 0l2-204L168 0h-37L68-204 70 0H24v-248h70l56 185 57-185h69V0h-46" id="aT"/><path fill="#999" d="M24 0v-248h52V0H24" id="aU"/><path fill="#999" d="M169-182c-1-43-94-46-97-3 18 66 151 10 154 114 3 95-165 93-204 36-6-8-10-19-12-30l50-8c3 46 112 56 116 5-17-69-150-10-154-114-4-87 153-88 188-35 5 8 8 18 10 28" id="aV"/><path fill="#999" d="M136-208V0H84v-208H4v-40h212v40h-80" id="aW"/><g id="p"><use transform="matrix(0.09876543209876544,0,0,0.09876543209876544,0,0)" xlink:href="#aO"/><use transform="matrix(0.09876543209876544,0,0,0.09876543209876544,25.58024691358025,0)" xlink:href="#aP"/><use transform="matrix(0.09876543209876544,0,0,0.09876543209876544,47.20987654320988,0)" xlink:href="#aQ"/><use transform="matrix(0.09876543209876544,0,0,0.09876543209876544,72.79012345679013,0)" xlink:href="#aR"/><use transform="matrix(0.09876543209876544,0,0,0.09876543209876544,98.37037037037038,0)" xlink:href="#aS"/><use transform="matrix(0.09876543209876544,0,0,0.09876543209876544,122.07407407407409,0)" xlink:href="#aT"/><use transform="matrix(0.09876543209876544,0,0,0.09876543209876544,151.60493827160496,0)" xlink:href="#aU"/><use transform="matrix(0.09876543209876544,0,0,0.09876543209876544,161.48148148148152,0)" xlink:href="#aV"/><use transform="matrix(0.09876543209876544,0,0,0.09876543209876544,185.18518518518522,0)" xlink:href="#aW"/></g><path fill="#999" d="M140-251c80 0 125 45 125 126 0 70-33 111-92 124 6 28 34 38 68 31l-1 36C177 83 129 55 120 2 51-6 15-50 15-125c0-81 44-126 125-126zm-1 214c52 0 73-35 73-88 0-50-21-86-72-86-52 0-73 35-73 86s22 88 72 88" id="aX"/><path fill="#999" d="M238-95c0 69-44 99-111 99C63 4 22-25 22-93v-155h51v151c-1 38 19 59 55 60 90 1 49-130 58-211h52v153" id="aY"/><path fill="#999" d="M175 0L67-191c6 58 2 128 3 191H24v-248h59L193-55c-6-58-2-129-3-193h46V0h-61" id="aZ"/><g id="q"><use transform="matrix(0.09876543209876544,0,0,0.09876543209876544,0,0)" xlink:href="#aV"/><use transform="matrix(0.09876543209876544,0,0,0.09876543209876544,23.703703703703706,0)" xlink:href="#aS"/><use transform="matrix(0.09876543209876544,0,0,0.09876543209876544,47.40740740740741,0)" xlink:href="#aX"/><use transform="matrix(0.09876543209876544,0,0,0.09876543209876544,75.06172839506173,0)" xlink:href="#aY"/><use transform="matrix(0.09876543209876544,0,0,0.09876543209876544,100.64197530864199,0)" xlink:href="#aS"/><use transform="matrix(0.09876543209876544,0,0,0.09876543209876544,124.34567901234568,0)" xlink:href="#aZ"/><use transform="matrix(0.09876543209876544,0,0,0.09876543209876544,149.92592592592595,0)" xlink:href="#aQ"/><use transform="matrix(0.09876543209876544,0,0,0.09876543209876544,175.5061728395062,0)" xlink:href="#aS"/></g><path fill="#999" d="M24-248c120-7 223 5 221 122C244-46 201 0 124 0H24v-248zM76-40c74 7 117-18 117-86 0-67-45-88-117-82v168" id="ba"/><path fill="#999" d="M67-125c0 54 23 88 75 88 28 0 53-7 68-21v-34h-60v-39h108v91C232-14 192 4 140 4 58 4 20-42 15-125 8-236 126-280 215-234c19 10 29 26 37 47l-47 15c-11-23-29-39-63-39-53 1-75 33-75 86" id="bb"/><path fill="#999" d="M240-174c0 40-23 61-54 70L253 0h-59l-57-94H76V0H24v-248c93 4 217-23 216 74zM76-134c48-2 112 12 112-38 0-48-66-32-112-35v73" id="bc"/><g id="r"><use transform="matrix(0.09876543209876544,0,0,0.09876543209876544,0,0)" xlink:href="#ba"/><use transform="matrix(0.09876543209876544,0,0,0.09876543209876544,25.58024691358025,0)" xlink:href="#aU"/><use transform="matrix(0.09876543209876544,0,0,0.09876543209876544,35.4567901234568,0)" xlink:href="#aO"/><use transform="matrix(0.09876543209876544,0,0,0.09876543209876544,61.03703703703705,0)" xlink:href="#bb"/><use transform="matrix(0.09876543209876544,0,0,0.09876543209876544,88.69135802469137,0)" xlink:href="#bc"/><use transform="matrix(0.09876543209876544,0,0,0.09876543209876544,114.27160493827161,0)" xlink:href="#aO"/><use transform="matrix(0.09876543209876544,0,0,0.09876543209876544,139.85185185185188,0)" xlink:href="#aT"/></g><path fill="#999" d="M190 0L58-211 59 0H30v-248h39L202-35l-2-213h31V0h-41" id="bd"/><path fill="#999" d="M34 0v-190h32V0H34zM24-211c8-23 27-35 38-54h36v5l-58 49H24" id="be"/><path fill="#999" d="M96-169c-40 0-48 33-48 73s9 75 48 75c24 0 41-14 43-38l32 2c-6 37-31 61-74 61-59 0-76-41-82-99-10-93 101-131 147-64 4 7 5 14 7 22l-32 3c-4-21-16-35-41-35" id="bf"/><path fill="#999" d="M100-194c62-1 85 37 85 99 1 63-27 99-86 99S16-35 15-95c0-66 28-99 85-99zM99-20c44 1 53-31 53-75 0-43-8-75-51-75s-53 32-53 75 10 74 51 75" id="bg"/><path fill="#999" d="M24 0v-261h32V0H24" id="bh"/><path fill="#999" d="M141-36C126-15 110 5 73 4 37 3 15-17 15-53c-1-64 63-63 125-63 3-35-9-54-41-54-24 1-41 7-42 31l-33-3c5-37 33-52 76-52 45 0 72 20 72 64v82c-1 20 7 32 28 27v20c-31 9-61-2-59-35zM48-53c0 20 12 33 32 33 41-3 63-29 60-74-43 2-92-5-92 41" id="bi"/><path fill="#999" d="M135-143c-3-34-86-38-87 0 15 53 115 12 119 90S17 21 10-45l28-5c4 36 97 45 98 0-10-56-113-15-118-90-4-57 82-63 122-42 12 7 21 19 24 35" id="bj"/><g id="s"><use transform="matrix(0.06172839506172778,0,0,0.06172839506172778,0,0)" xlink:href="#bd"/><use transform="matrix(0.06172839506172778,0,0,0.06172839506172778,15.987654320987495,0)" xlink:href="#be"/><use transform="matrix(0.06172839506172778,0,0,0.06172839506172778,22.160493827160273,0)" xlink:href="#bf"/><use transform="matrix(0.06172839506172778,0,0,0.06172839506172778,33.271604938271274,0)" xlink:href="#bg"/><use transform="matrix(0.06172839506172778,0,0,0.06172839506172778,45.61728395061683,0)" xlink:href="#bh"/><use transform="matrix(0.06172839506172778,0,0,0.06172839506172778,50.493827160493325,0)" xlink:href="#bi"/><use transform="matrix(0.06172839506172778,0,0,0.06172839506172778,62.83950617283888,0)" xlink:href="#bj"/></g><path fill="#999" d="M47-170H22l-4-78h33" id="bk"/><path fill="#999" d="M30 0v-248h187v28H63v79h144v27H63v87h162V0H30" id="bl"/><path fill="#999" d="M206 0h-36l-40-164L89 0H53L-1-190h32L70-26l43-164h34l41 164 42-164h31" id="bm"/><path fill="#999" d="M101-234c-31-9-42 10-38 44h38v23H63V0H32v-167H5v-23h27c-7-52 17-82 69-68v24" id="bn"/><path fill="#999" d="M100-194c63 0 86 42 84 106H49c0 40 14 67 53 68 26 1 43-12 49-29l28 8c-11 28-37 45-77 45C44 4 14-33 15-96c1-61 26-98 85-98zm52 81c6-60-76-77-97-28-3 7-6 17-6 28h103" id="bo"/><path fill="#999" d="M117-194c89-4 53 116 60 194h-32v-121c0-31-8-49-39-48C34-167 62-67 57 0H25l-1-190h30c1 10-1 24 2 32 11-22 29-35 61-36" id="bp"/><path fill="#999" d="M59-47c-2 24 18 29 38 22v24C64 9 27 4 27-40v-127H5v-23h24l9-43h21v43h35v23H59v120" id="bq"/><path fill="#999" d="M106-169C34-169 62-67 57 0H25v-261h32l-1 103c12-21 28-36 61-36 89 0 53 116 60 194h-32v-121c2-32-8-49-39-48" id="br"/><g id="t"><use transform="matrix(0.06172839506172778,0,0,0.06172839506172778,0,0)" xlink:href="#bk"/><use transform="matrix(0.06172839506172778,0,0,0.06172839506172778,4.197530864197489,0)" xlink:href="#bl"/><use transform="matrix(0.06172839506172778,0,0,0.06172839506172778,19.012345679012157,0)" xlink:href="#bg"/><use transform="matrix(0.06172839506172778,0,0,0.06172839506172778,31.358024691357713,0)" xlink:href="#bm"/><use transform="matrix(0.06172839506172778,0,0,0.06172839506172778,47.34567901234521,0)" xlink:href="#bn"/><use transform="matrix(0.06172839506172778,0,0,0.06172839506172778,53.518518518517986,0)" xlink:href="#bo"/><use transform="matrix(0.06172839506172778,0,0,0.06172839506172778,65.86419753086355,0)" xlink:href="#bp"/><use transform="matrix(0.06172839506172778,0,0,0.06172839506172778,78.2098765432091,0)" xlink:href="#bq"/><use transform="matrix(0.06172839506172778,0,0,0.06172839506172778,84.38271604938188,0)" xlink:href="#br"/><use transform="matrix(0.06172839506172778,0,0,0.06172839506172778,96.72839506172744,0)" xlink:href="#bk"/></g><path fill="#999" d="M30-248c118-7 216 8 213 122C240-48 200 0 122 0H30v-248zM63-27c89 8 146-16 146-99s-60-101-146-95v194" id="bs"/><path fill="#999" d="M96-169c-40 0-48 33-48 73s9 75 48 75c24 0 41-14 43-38l32 2c-6 37-31 61-74 61-59 0-76-41-82-99-10-93 101-131 147-64 4 7 5 14 7 22l-32 3c-4-21-16-35-41-35zm3 187c19-1 33 8 33 26 0 31-30 33-64 32V58c18 2 39 4 41-13 1-15-18-13-34-13L87 0h19" id="bt"/><path fill="#999" d="M114-163C36-179 61-72 57 0H25l-1-190h30c1 12-1 29 2 39 6-27 23-49 58-41v29" id="bu"/><path fill="#999" d="M85-194c31 0 48 13 60 33l-1-100h32l1 261h-30c-2-10 0-23-3-31C134-8 116 4 85 4 32 4 16-35 15-94c0-66 23-100 70-100zm9 24c-40 0-46 34-46 75 0 40 6 74 45 74 42 0 51-32 51-76 0-42-9-74-50-73" id="bv"/><path fill="#999" d="M24-231v-30h32v30H24zM24 0v-190h32V0H24" id="bw"/><g id="u"><use transform="matrix(0.06172839506172778,0,0,0.06172839506172778,0,0)" xlink:href="#bs"/><use transform="matrix(0.06172839506172778,0,0,0.06172839506172778,15.987654320987495,0)" xlink:href="#bo"/><use transform="matrix(0.06172839506172778,0,0,0.06172839506172778,28.33333333333305,0)" xlink:href="#bt"/><use transform="matrix(0.06172839506172778,0,0,0.06172839506172778,39.44444444444405,0)" xlink:href="#bg"/><use transform="matrix(0.06172839506172778,0,0,0.06172839506172778,51.79012345678961,0)" xlink:href="#bu"/><use transform="matrix(0.06172839506172778,0,0,0.06172839506172778,59.135802469135214,0)" xlink:href="#bv"/><use transform="matrix(0.06172839506172778,0,0,0.06172839506172778,71.48148148148077,0)" xlink:href="#bw"/></g><path fill="#999" d="M32 76v-337h29V76H32" id="bx"/><use transform="matrix(0.06172839506172778,0,0,0.06172839506172778,0,0)" xlink:href="#bx" id="v"/><path fill="#999" d="M185-189c-5-48-123-54-124 2 14 75 158 14 163 119 3 78-121 87-175 55-17-10-28-26-33-46l33-7c5 56 141 63 141-1 0-78-155-14-162-118-5-82 145-84 179-34 5 7 8 16 11 25" id="by"/><path fill="#999" d="M115-194c55 1 70 41 70 98S169 2 115 4C84 4 66-9 55-30l1 105H24l-1-265h31l2 30c10-21 28-34 59-34zm-8 174c40 0 45-34 45-75s-6-73-45-74c-42 0-51 32-51 76 0 43 10 73 51 73" id="bz"/><path fill="#999" d="M210-169c-67 3-38 105-44 169h-31v-121c0-29-5-50-35-48C34-165 62-65 56 0H25l-1-190h30c1 10-1 24 2 32 10-44 99-50 107 0 11-21 27-35 58-36 85-2 47 119 55 194h-31v-121c0-29-5-49-35-48" id="bA"/><path fill="#999" d="M115-194c53 0 69 39 70 98 0 66-23 100-70 100C84 3 66-7 56-30L54 0H23l1-261h32v101c10-23 28-34 59-34zm-8 174c40 0 45-34 45-75 0-40-5-75-45-74-42 0-51 32-51 76 0 43 10 73 51 73" id="bB"/><path fill="#999" d="M101-251c82-7 93 87 43 132L82-64C71-53 59-42 53-27h129V0H18c2-99 128-94 128-182 0-28-16-43-45-43s-46 15-49 41l-32-3c6-41 34-60 81-64" id="bC"/><path fill="#999" d="M110-160c48 1 74 30 74 79 0 53-28 85-80 85-65 0-83-55-86-122-5-90 50-162 133-122 14 7 22 21 27 39l-31 6c-5-40-67-38-82-6-9 19-15 44-15 74 11-20 30-34 60-33zm-7 138c34 0 49-23 49-58s-16-56-50-56c-29 0-50 16-49 49 1 36 15 65 50 65" id="bD"/><path fill="#999" d="M68-38c1 34 0 65-14 84H32c9-13 17-26 17-46H33v-38h35" id="bE"/><path fill="#999" d="M101-251c68 0 85 55 85 127S166 4 100 4C33 4 14-52 14-124c0-73 17-127 87-127zm-1 229c47 0 54-49 54-102s-4-102-53-102c-51 0-55 48-55 102 0 53 5 102 54 102" id="bF"/><path fill="#999" d="M27 0v-27h64v-190l-56 39v-29l58-41h29v221h61V0H27" id="bG"/><g id="w"><use transform="matrix(0.06172839506172778,0,0,0.06172839506172778,0,0)" xlink:href="#by"/><use transform="matrix(0.06172839506172778,0,0,0.06172839506172778,14.814814814814667,0)" xlink:href="#bo"/><use transform="matrix(0.06172839506172778,0,0,0.06172839506172778,27.160493827160224,0)" xlink:href="#bz"/><use transform="matrix(0.06172839506172778,0,0,0.06172839506172778,39.50617283950578,0)" xlink:href="#bq"/><use transform="matrix(0.06172839506172778,0,0,0.06172839506172778,45.67901234567856,0)" xlink:href="#bo"/><use transform="matrix(0.06172839506172778,0,0,0.06172839506172778,58.024691358024114,0)" xlink:href="#bA"/><use transform="matrix(0.06172839506172778,0,0,0.06172839506172778,76.48148148148073,0)" xlink:href="#bB"/><use transform="matrix(0.06172839506172778,0,0,0.06172839506172778,88.82716049382628,0)" xlink:href="#bo"/><use transform="matrix(0.06172839506172778,0,0,0.06172839506172778,101.17283950617184,0)" xlink:href="#bu"/><use transform="matrix(0.06172839506172778,0,0,0.06172839506172778,114.69135802469023,0)" xlink:href="#bC"/><use transform="matrix(0.06172839506172778,0,0,0.06172839506172778,127.0370370370358,0)" xlink:href="#bD"/><use transform="matrix(0.06172839506172778,0,0,0.06172839506172778,139.38271604938134,0)" xlink:href="#bE"/><use transform="matrix(0.06172839506172778,0,0,0.06172839506172778,151.7283950617269,0)" xlink:href="#bC"/><use transform="matrix(0.06172839506172778,0,0,0.06172839506172778,164.07407407407246,0)" xlink:href="#bF"/><use transform="matrix(0.06172839506172778,0,0,0.06172839506172778,176.419753086418,0)" xlink:href="#bG"/><use transform="matrix(0.06172839506172778,0,0,0.06172839506172778,188.76543209876357,0)" xlink:href="#bD"/></g><path d="M232-93c-1 65-40 97-104 97C67 4 28-28 28-90v-158h33c8 89-33 224 67 224 102 0 64-133 71-224h33v155" id="bH"/><path d="M135-143c-3-34-86-38-87 0 15 53 115 12 119 90S17 21 10-45l28-5c4 36 97 45 98 0-10-56-113-15-118-90-4-57 82-63 122-42 12 7 21 19 24 35" id="bI"/><path d="M100-194c63 0 86 42 84 106H49c0 40 14 67 53 68 26 1 43-12 49-29l28 8c-11 28-37 45-77 45C44 4 14-33 15-96c1-61 26-98 85-98zm52 81c6-60-76-77-97-28-3 7-6 17-6 28h103" id="bJ"/><path d="M114-163C36-179 61-72 57 0H25l-1-190h30c1 12-1 29 2 39 6-27 23-49 58-41v29" id="bK"/><g id="x"><use transform="matrix(0.05,0,0,0.05,0,0)" xlink:href="#bH"/><use transform="matrix(0.05,0,0,0.05,12.950000000000001,0)" xlink:href="#bI"/><use transform="matrix(0.05,0,0,0.05,21.950000000000003,0)" xlink:href="#bJ"/><use transform="matrix(0.05,0,0,0.05,31.950000000000003,0)" xlink:href="#bK"/><path d="M-.9 1.25h39.7v1.32H-.9z"/></g><path d="M18-100v-36l175-74v27L42-118l151 64v27" id="bL"/><g id="y"><use transform="matrix(0.05,0,0,0.05,0,0)" xlink:href="#bL"/><use transform="matrix(0.05,0,0,0.05,10.5,0)" xlink:href="#bL"/><path d="M-.9 1.25h27.8v1.32H-.9z"/></g><path d="M205 0l-28-72H64L36 0H1l101-248h38L239 0h-34zm-38-99l-47-123c-12 45-31 82-46 123h93" id="bM"/><path d="M96-169c-40 0-48 33-48 73s9 75 48 75c24 0 41-14 43-38l32 2c-6 37-31 61-74 61-59 0-76-41-82-99-10-93 101-131 147-64 4 7 5 14 7 22l-32 3c-4-21-16-35-41-35" id="bN"/><path d="M59-47c-2 24 18 29 38 22v24C64 9 27 4 27-40v-127H5v-23h24l9-43h21v43h35v23H59v120" id="bO"/><path d="M100-194c62-1 85 37 85 99 1 63-27 99-86 99S16-35 15-95c0-66 28-99 85-99zM99-20c44 1 53-31 53-75 0-43-8-75-51-75s-53 32-53 75 10 74 51 75" id="bP"/><g id="z"><use transform="matrix(0.05,0,0,0.05,0,0)" xlink:href="#bM"/><use transform="matrix(0.05,0,0,0.05,12,0)" xlink:href="#bN"/><use transform="matrix(0.05,0,0,0.05,21,0)" xlink:href="#bO"/><use transform="matrix(0.05,0,0,0.05,26,0)" xlink:href="#bP"/><use transform="matrix(0.05,0,0,0.05,36,0)" xlink:href="#bK"/><path d="M-.9 1.25h48.75v1.32H-.9z"/></g><path d="M18-27v-27l151-64-151-65v-27l175 74v36" id="bQ"/><g id="A"><use transform="matrix(0.05,0,0,0.05,0,0)" xlink:href="#bQ"/><use transform="matrix(0.05,0,0,0.05,10.5,0)" xlink:href="#bQ"/><path d="M-.9 1.25h22.8v1.32H-.9z"/></g><g id="B"><use transform="matrix(0.05,0,0,0.05,0,0)" xlink:href="#aw"/><use transform="matrix(0.05,0,0,0.05,10.5,0)" xlink:href="#aw"/></g><g id="C"><use transform="matrix(0.05,0,0,0.05,0,0)" xlink:href="#aC"/><use transform="matrix(0.05,0,0,0.05,10,0)" xlink:href="#aD"/><use transform="matrix(0.05,0,0,0.05,17,0)" xlink:href="#aE"/><use transform="matrix(0.05,0,0,0.05,27,0)" xlink:href="#aF"/><use transform="matrix(0.05,0,0,0.05,37,0)" xlink:href="#aG"/><use transform="matrix(0.05,0,0,0.05,42.95,0)" xlink:href="#aE"/></g><g id="D"><use transform="matrix(0.05,0,0,0.05,0,0)" xlink:href="#ay"/><use transform="matrix(0.05,0,0,0.05,10.5,0)" xlink:href="#ay"/></g><path d="M143 4C61 4 22-44 18-125c-5-107 100-154 193-111 17 8 29 25 37 43l-32 9c-13-25-37-40-76-40-61 0-88 39-88 99 0 61 29 100 91 101 35 0 62-11 79-27v-45h-74v-28h105v86C228-13 192 4 143 4" id="bR"/><path d="M240 0l2-218c-23 76-54 145-80 218h-23L58-218 59 0H30v-248h44l77 211c21-75 51-140 76-211h43V0h-30" id="bS"/><path d="M30 0v-248h187v28H63v79h144v27H63v87h162V0H30" id="bT"/><g id="E"><use transform="matrix(0.05,0,0,0.05,0,0)" xlink:href="#bR"/><use transform="matrix(0.05,0,0,0.05,14,0)" xlink:href="#bM"/><use transform="matrix(0.05,0,0,0.05,26,0)" xlink:href="#bS"/><use transform="matrix(0.05,0,0,0.05,40.95,0)" xlink:href="#bT"/><path d="M-.9 1.25h54.75v1.32H-.9z"/></g><path d="M233-177c-1 41-23 64-60 70L243 0h-38l-65-103H63V0H30v-248c88 3 205-21 203 71zM63-129c60-2 137 13 137-47 0-61-80-42-137-45v92" id="bU"/><path d="M212-179c-10-28-35-45-73-45-59 0-87 40-87 99 0 60 29 101 89 101 43 0 62-24 78-52l27 14C228-24 195 4 139 4 59 4 22-46 18-125c-6-104 99-153 187-111 19 9 31 26 39 46" id="bV"/><path d="M190 0L58-211 59 0H30v-248h39L202-35l-2-213h31V0h-41" id="bW"/><path d="M137-103V0h-34v-103L8-248h37l75 118 75-118h37" id="bX"/><g id="F"><use transform="matrix(0.05,0,0,0.05,0,0)" xlink:href="#bS"/><use transform="matrix(0.05,0,0,0.05,14.950000000000001,0)" xlink:href="#bT"/><use transform="matrix(0.05,0,0,0.05,26.950000000000003,0)" xlink:href="#bU"/><use transform="matrix(0.05,0,0,0.05,39.900000000000006,0)" xlink:href="#bV"/><use transform="matrix(0.05,0,0,0.05,52.85,0)" xlink:href="#bT"/><use transform="matrix(0.05,0,0,0.05,64.85000000000001,0)" xlink:href="#bW"/><use transform="matrix(0.05,0,0,0.05,77.80000000000001,0)" xlink:href="#bM"/><use transform="matrix(0.05,0,0,0.05,89.80000000000001,0)" xlink:href="#bU"/><use transform="matrix(0.05,0,0,0.05,102.40000000000003,0)" xlink:href="#bX"/><path d="M-.9 1.25h116.2v1.32H-.9z"/></g><path d="M30-248c87 1 191-15 191 75 0 78-77 80-158 76V0H30v-248zm33 125c57 0 124 11 124-50 0-59-68-47-124-48v98" id="bY"/><path d="M141-36C126-15 110 5 73 4 37 3 15-17 15-53c-1-64 63-63 125-63 3-35-9-54-41-54-24 1-41 7-42 31l-33-3c5-37 33-52 76-52 45 0 72 20 72 64v82c-1 20 7 32 28 27v20c-31 9-61-2-59-35zM48-53c0 20 12 33 32 33 41-3 63-29 60-74-43 2-92-5-92 41" id="bZ"/><path d="M117-194c89-4 53 116 60 194h-32v-121c0-31-8-49-39-48C34-167 62-67 57 0H25l-1-190h30c1 10-1 24 2 32 11-22 29-35 61-36" id="ca"/><path d="M24 0v-261h32V0H24" id="cb"/><path d="M30 0v-248h33v221h125V0H30" id="cc"/><path d="M24-231v-30h32v30H24zM24 0v-190h32V0H24" id="cd"/><g id="G"><use transform="matrix(0.05,0,0,0.05,0,0)" xlink:href="#bY"/><use transform="matrix(0.05,0,0,0.05,12,0)" xlink:href="#bZ"/><use transform="matrix(0.05,0,0,0.05,22,0)" xlink:href="#ca"/><use transform="matrix(0.05,0,0,0.05,32,0)" xlink:href="#bJ"/><use transform="matrix(0.05,0,0,0.05,42,0)" xlink:href="#cb"/><use transform="matrix(0.05,0,0,0.05,45.95,0)" xlink:href="#cc"/><use transform="matrix(0.05,0,0,0.05,55.95,0)" xlink:href="#cd"/><use transform="matrix(0.05,0,0,0.05,59.900000000000006,0)" xlink:href="#bI"/><use transform="matrix(0.05,0,0,0.05,68.9,0)" xlink:href="#bO"/><path d="M-.9 1.25h75.7v1.32H-.9z"/></g><g id="H"><use transform="matrix(0.05,0,0,0.05,0,0)" xlink:href="#bL"/><use transform="matrix(0.05,0,0,0.05,10.5,0)" xlink:href="#bL"/><path d="M-.9 1.25h27.8v1.32H-.9z"/></g><path d="M33 0v-248h34V0H33" id="ce"/><g id="I"><use transform="matrix(0.05,0,0,0.05,0,0)" xlink:href="#bH"/><use transform="matrix(0.05,0,0,0.05,12.950000000000001,0)" xlink:href="#ce"/><path d="M-.9 1.25h24.75v1.32H-.9z"/></g><path d="M210-169c-67 3-38 105-44 169h-31v-121c0-29-5-50-35-48C34-165 62-65 56 0H25l-1-190h30c1 10-1 24 2 32 10-44 99-50 107 0 11-21 27-35 58-36 85-2 47 119 55 194h-31v-121c0-29-5-49-35-48" id="cf"/><g id="J"><use transform="matrix(0.05,0,0,0.05,0,0)" xlink:href="#bR"/><use transform="matrix(0.05,0,0,0.05,14,0)" xlink:href="#bZ"/><use transform="matrix(0.05,0,0,0.05,24,0)" xlink:href="#cf"/><use transform="matrix(0.05,0,0,0.05,38.95,0)" xlink:href="#bJ"/><path d="M-.9 1.25h55.75v1.32H-.9z"/></g><g id="K"><use transform="matrix(0.05,0,0,0.05,0,0)" xlink:href="#bY"/><use transform="matrix(0.05,0,0,0.05,12,0)" xlink:href="#bZ"/><use transform="matrix(0.05,0,0,0.05,22,0)" xlink:href="#ca"/><use transform="matrix(0.05,0,0,0.05,32,0)" xlink:href="#bJ"/><use transform="matrix(0.05,0,0,0.05,42,0)" xlink:href="#cb"/><path d="M-.9 1.25h47.75v1.32H-.9z"/></g><g id="L"><use transform="matrix(0.05,0,0,0.05,0,0)" xlink:href="#bL"/><use transform="matrix(0.05,0,0,0.05,10.5,0)" xlink:href="#bL"/><path d="M-.9 1.25h27.8v1.32H-.9z"/></g><path d="M179-190L93 31C79 59 56 82 12 73V49c39 6 53-20 64-50L1-190h34L92-34l54-156h33" id="cg"/><g id="M"><use transform="matrix(0.05,0,0,0.05,0,0)" xlink:href="#bS"/><use transform="matrix(0.05,0,0,0.05,14.950000000000001,0)" xlink:href="#bJ"/><use transform="matrix(0.05,0,0,0.05,24.950000000000003,0)" xlink:href="#bK"/><use transform="matrix(0.05,0,0,0.05,30.900000000000002,0)" xlink:href="#bN"/><use transform="matrix(0.05,0,0,0.05,39.900000000000006,0)" xlink:href="#bJ"/><use transform="matrix(0.05,0,0,0.05,49.900000000000006,0)" xlink:href="#ca"/><use transform="matrix(0.05,0,0,0.05,59.900000000000006,0)" xlink:href="#bZ"/><use transform="matrix(0.05,0,0,0.05,69.9,0)" xlink:href="#bK"/><use transform="matrix(0.05,0,0,0.05,75.85000000000001,0)" xlink:href="#cg"/><path d="M-.9 1.25h91.65v1.32H-.9z"/></g><path fill="#333" d="M25 0v-261h50V0H25" id="ch"/><g id="N"><use transform="matrix(0.05,0,0,0.05,0,0)" xlink:href="#aH"/><use transform="matrix(0.05,0,0,0.05,10,0)" xlink:href="#aE"/><use transform="matrix(0.05,0,0,0.05,20,0)" xlink:href="#aG"/><use transform="matrix(0.05,0,0,0.05,25.950000000000003,0)" xlink:href="#aI"/><use transform="matrix(0.05,0,0,0.05,36.9,0)" xlink:href="#aJ"/><use transform="matrix(0.05,0,0,0.05,47.85,0)" xlink:href="#aj"/><use transform="matrix(0.05,0,0,0.05,59.85,0)" xlink:href="#aF"/><use transform="matrix(0.05,0,0,0.05,69.85,0)" xlink:href="#aL"/><use transform="matrix(0.05,0,0,0.05,80.8,0)" xlink:href="#aE"/><use transform="matrix(0.05,0,0,0.05,90.8,0)" xlink:href="#ch"/><use transform="matrix(0.05,0,0,0.05,95.8,0)" xlink:href="#aM"/><use transform="matrix(0.05,0,0,0.05,101.75,0)" xlink:href="#aN"/></g><path d="M24-248c93 1 206-16 204 79-1 75-69 88-152 82V0H24v-248zm52 121c47 0 100 7 100-41 0-47-54-39-100-39v80" id="ci"/><path d="M133-34C117-15 103 5 69 4 32 3 11-16 11-54c-1-60 55-63 116-61 1-26-3-47-28-47-18 1-26 9-28 27l-52-2c7-38 36-58 82-57s74 22 75 68l1 82c-1 14 12 18 25 15v27c-30 8-71 5-69-32zm-48 3c29 0 43-24 42-57-32 0-66-3-65 30 0 17 8 27 23 27" id="cj"/><path d="M25 0v-261h50V0H25" id="ck"/><g id="O"><use transform="matrix(0.05,0,0,0.05,0,0)" xlink:href="#ci"/><use transform="matrix(0.05,0,0,0.05,12,0)" xlink:href="#cj"/><use transform="matrix(0.05,0,0,0.05,22,0)" xlink:href="#af"/><use transform="matrix(0.05,0,0,0.05,32.95,0)" xlink:href="#Y"/><use transform="matrix(0.05,0,0,0.05,42.95,0)" xlink:href="#ck"/></g><path d="M114-157C55-157 80-60 75 0H25v-261h50l-1 109c12-26 28-41 61-42 86-1 58 113 63 194h-50c-7-57 23-157-34-157" id="cl"/><path d="M230 0l2-204L168 0h-37L68-204 70 0H24v-248h70l56 185 57-185h69V0h-46" id="cm"/><path d="M123 10C108 53 80 86 19 72V37c35 8 53-11 59-39L3-190h52l48 148c12-52 28-100 44-148h51" id="cn"/><g id="P"><use transform="matrix(0.05,0,0,0.05,0,0)" xlink:href="#ab"/><use transform="matrix(0.05,0,0,0.05,10.950000000000001,0)" xlink:href="#aa"/><use transform="matrix(0.05,0,0,0.05,21.900000000000002,0)" xlink:href="#ae"/><use transform="matrix(0.05,0,0,0.05,28.900000000000002,0)" xlink:href="#ad"/><use transform="matrix(0.05,0,0,0.05,38.900000000000006,0)" xlink:href="#cl"/><use transform="matrix(0.05,0,0,0.05,49.85000000000001,0)" xlink:href="#cj"/><use transform="matrix(0.05,0,0,0.05,59.85,0)" xlink:href="#X"/><use transform="matrix(0.05,0,0,0.05,69.85000000000001,0)" xlink:href="#Y"/><use transform="matrix(0.05,0,0,0.05,79.85000000000001,0)" xlink:href="#cm"/><use transform="matrix(0.05,0,0,0.05,94.80000000000001,0)" xlink:href="#Y"/><use transform="matrix(0.05,0,0,0.05,104.80000000000001,0)" xlink:href="#ae"/><use transform="matrix(0.05,0,0,0.05,111.80000000000001,0)" xlink:href="#ad"/><use transform="matrix(0.05,0,0,0.05,121.80000000000001,0)" xlink:href="#Y"/><use transform="matrix(0.05,0,0,0.05,131.8,0)" xlink:href="#af"/><use transform="matrix(0.05,0,0,0.05,142.75,0)" xlink:href="#cj"/><use transform="matrix(0.05,0,0,0.05,152.75,0)" xlink:href="#ae"/><use transform="matrix(0.05,0,0,0.05,159.75,0)" xlink:href="#cn"/><use transform="matrix(0.05,0,0,0.05,169.75,0)" xlink:href="#ag"/><use transform="matrix(0.05,0,0,0.05,175.7,0)" xlink:href="#ah"/></g><path d="M15-91v-56l181-69v40L49-119l147 57v40" id="co"/><g id="Q"><use transform="matrix(0.05,0,0,0.05,0,0)" xlink:href="#co"/><use transform="matrix(0.05,0,0,0.05,10.5,0)" xlink:href="#co"/></g><g id="R"><use transform="matrix(0.05,0,0,0.05,0,0)" xlink:href="#ad"/><use transform="matrix(0.05,0,0,0.05,10,0)" xlink:href="#ae"/><use transform="matrix(0.05,0,0,0.05,17,0)" xlink:href="#Y"/><use transform="matrix(0.05,0,0,0.05,27,0)" xlink:href="#cj"/><use transform="matrix(0.05,0,0,0.05,37,0)" xlink:href="#Z"/><use transform="matrix(0.05,0,0,0.05,42.95,0)" xlink:href="#Y"/></g><path d="M15-22v-40l146-57-146-57v-40l181 69v56" id="cp"/><g id="S"><use transform="matrix(0.05,0,0,0.05,0,0)" xlink:href="#cp"/><use transform="matrix(0.05,0,0,0.05,10.5,0)" xlink:href="#cp"/></g><path d="M110-194c64 0 96 36 96 99 0 64-35 99-97 99-61 0-95-36-95-99 0-62 34-99 96-99zm-1 164c35 0 45-28 45-65 0-40-10-65-43-65-34 0-45 26-45 65 0 36 10 65 43 65" id="cq"/><path d="M88-194c31-1 46 15 58 34l-1-101h50l1 261h-48c-2-10 0-23-3-31C134-8 116 4 84 4 32 4 16-41 15-95c0-56 19-97 73-99zm17 164c33 0 40-30 41-66 1-37-9-64-41-64s-38 30-39 65c0 43 13 65 39 65" id="cr"/><path d="M195-6C206 82 75 100 31 46c-4-6-6-13-8-21l49-6c3 16 16 24 34 25 40 0 42-37 40-79-11 22-30 35-61 35-53 0-70-43-70-97 0-56 18-96 73-97 30 0 46 14 59 34l2-30h47zm-90-29c32 0 41-27 41-63 0-35-9-62-40-62-32 0-39 29-40 63 0 36 9 62 39 62" id="cs"/><g id="T"><use transform="matrix(0.05,0,0,0.05,0,0)" xlink:href="#ck"/><use transform="matrix(0.05,0,0,0.05,5,0)" xlink:href="#cq"/><use transform="matrix(0.05,0,0,0.05,15.950000000000001,0)" xlink:href="#cj"/><use transform="matrix(0.05,0,0,0.05,25.950000000000003,0)" xlink:href="#cr"/><use transform="matrix(0.05,0,0,0.05,36.900000000000006,0)" xlink:href="#ci"/><use transform="matrix(0.05,0,0,0.05,48.900000000000006,0)" xlink:href="#ae"/><use transform="matrix(0.05,0,0,0.05,55.900000000000006,0)" xlink:href="#cq"/><use transform="matrix(0.05,0,0,0.05,66.85000000000001,0)" xlink:href="#cs"/><use transform="matrix(0.05,0,0,0.05,77.80000000000001,0)" xlink:href="#ae"/><use transform="matrix(0.05,0,0,0.05,84.80000000000001,0)" xlink:href="#Y"/><use transform="matrix(0.05,0,0,0.05,94.80000000000001,0)" xlink:href="#X"/><use transform="matrix(0.05,0,0,0.05,104.80000000000001,0)" xlink:href="#X"/><use transform="matrix(0.05,0,0,0.05,114.80000000000001,0)" xlink:href="#ag"/><use transform="matrix(0.05,0,0,0.05,120.75,0)" xlink:href="#ah"/></g><g id="U"><use transform="matrix(0.05,0,0,0.05,0,0)" xlink:href="#ab"/><use transform="matrix(0.05,0,0,0.05,10.950000000000001,0)" xlink:href="#cj"/><use transform="matrix(0.05,0,0,0.05,20.950000000000003,0)" xlink:href="#af"/><use transform="matrix(0.05,0,0,0.05,31.900000000000006,0)" xlink:href="#Y"/><use transform="matrix(0.05,0,0,0.05,41.900000000000006,0)" xlink:href="#ck"/><use transform="matrix(0.05,0,0,0.05,46.900000000000006,0)" xlink:href="#ac"/><use transform="matrix(0.05,0,0,0.05,58.900000000000006,0)" xlink:href="#Y"/><use transform="matrix(0.05,0,0,0.05,68.9,0)" xlink:href="#Z"/><use transform="matrix(0.05,0,0,0.05,74.85000000000001,0)" xlink:href="#aa"/><use transform="matrix(0.05,0,0,0.05,85.80000000000001,0)" xlink:href="#ab"/><use transform="matrix(0.05,0,0,0.05,96.75000000000001,0)" xlink:href="#ag"/><use transform="matrix(0.05,0,0,0.05,102.7,0)" xlink:href="#ah"/></g><path fill="#333" d="M182-130c37 4 62 22 62 59C244 23 116-4 24 0v-248c84 5 203-23 205 63 0 31-19 50-47 55zM76-148c40-3 101 13 101-30 0-44-60-28-101-31v61zm0 110c48-3 116 14 116-37 0-48-69-32-116-35v72" id="ct"/><path fill="#333" d="M110-194c64 0 96 36 96 99 0 64-35 99-97 99-61 0-95-36-95-99 0-62 34-99 96-99zm-1 164c35 0 45-28 45-65 0-40-10-65-43-65-34 0-45 26-45 65 0 36 10 65 43 65" id="cu"/><g id="V"><use transform="matrix(0.05,0,0,0.05,0,0)" xlink:href="#aH"/><use transform="matrix(0.05,0,0,0.05,10,0)" xlink:href="#aG"/><use transform="matrix(0.05,0,0,0.05,15.949999999999998,0)" xlink:href="#aF"/><use transform="matrix(0.05,0,0,0.05,25.950000000000003,0)" xlink:href="#aD"/><use transform="matrix(0.05,0,0,0.05,32.95,0)" xlink:href="#aG"/><use transform="matrix(0.05,0,0,0.05,38.900000000000006,0)" xlink:href="#ct"/><use transform="matrix(0.05,0,0,0.05,51.85,0)" xlink:href="#aI"/><use transform="matrix(0.05,0,0,0.05,62.80000000000001,0)" xlink:href="#aG"/><use transform="matrix(0.05,0,0,0.05,68.75000000000001,0)" xlink:href="#aG"/><use transform="matrix(0.05,0,0,0.05,74.70000000000002,0)" xlink:href="#cu"/><use transform="matrix(0.05,0,0,0.05,85.65000000000002,0)" xlink:href="#aL"/><use transform="matrix(0.05,0,0,0.05,96.60000000000002,0)" xlink:href="#aM"/><use transform="matrix(0.05,0,0,0.05,102.55000000000003,0)" xlink:href="#aN"/></g><path d="M182-130c37 4 62 22 62 59C244 23 116-4 24 0v-248c84 5 203-23 205 63 0 31-19 50-47 55zM76-148c40-3 101 13 101-30 0-44-60-28-101-31v61zm0 110c48-3 116 14 116-37 0-48-69-32-116-35v72" id="cv"/><g id="W"><use transform="matrix(0.05,0,0,0.05,0,0)" xlink:href="#cr"/><use transform="matrix(0.05,0,0,0.05,10.950000000000001,0)" xlink:href="#Y"/><use transform="matrix(0.05,0,0,0.05,20.950000000000003,0)" xlink:href="#ck"/><use transform="matrix(0.05,0,0,0.05,25.950000000000003,0)" xlink:href="#Y"/><use transform="matrix(0.05,0,0,0.05,35.95,0)" xlink:href="#Z"/><use transform="matrix(0.05,0,0,0.05,41.900000000000006,0)" xlink:href="#Y"/><use transform="matrix(0.05,0,0,0.05,51.900000000000006,0)" xlink:href="#cv"/><use transform="matrix(0.05,0,0,0.05,64.85000000000001,0)" xlink:href="#aa"/><use transform="matrix(0.05,0,0,0.05,75.80000000000001,0)" xlink:href="#Z"/><use transform="matrix(0.05,0,0,0.05,81.75000000000001,0)" xlink:href="#Z"/><use transform="matrix(0.05,0,0,0.05,87.70000000000002,0)" xlink:href="#cq"/><use transform="matrix(0.05,0,0,0.05,98.65000000000002,0)" xlink:href="#af"/><use transform="matrix(0.05,0,0,0.05,109.60000000000002,0)" xlink:href="#ag"/><use transform="matrix(0.05,0,0,0.05,115.55000000000003,0)" xlink:href="#ah"/></g></defs></g></svg>