<svg xmlns="http://www.w3.org/2000/svg" xmlns:xlink="http://www.w3.org/1999/xlink" width="1760" height="2656"><g transform="translate(0 1296)"><path d="M32-3c0-2.76 2.24-5 5-5h838c2.76 0 5 2.24 5 5v118c0 2.76-2.24 5-5 5H37c-2.76 0-5-2.24-5-5z" fill="none"/><use xlink:href="#a" transform="matrix(1,0,0,1,32,-8) translate(0 28.444444444444446)"/><use xlink:href="#b" transform="matrix(1,0,0,1,32,-8) translate(216.6913580246914 28.444444444444446)"/><use xlink:href="#c" transform="matrix(1,0,0,1,32,-8) translate(346.7654320987655 28.444444444444446)"/><use xlink:href="#d" transform="matrix(1,0,0,1,32,-8) translate(0 71.11111111111111)"/><use xlink:href="#e" transform="matrix(1,0,0,1,32,-8) translate(0 113.77777777777779)"/><path d="M31.33 80H1728" stroke="#999" stroke-width="2" fill="none"/><path d="M1040 34.33c0-2.76 2.24-5 5-5h678c2.76 0 5 2.24 5 5v43.34c0 2.76-2.24 5-5 5h-678c-2.76 0-5-2.24-5-5z" fill="none"/><use xlink:href="#f" transform="matrix(1,0,0,1,1040,29.3333333333336) translate(424.41975308642236 18.1111111111112)"/><use xlink:href="#g" transform="matrix(1,0,0,1,1040,29.3333333333336) translate(504.543209876545 18.1111111111112)"/><use xlink:href="#h" transform="matrix(1,0,0,1,1040,29.3333333333336) translate(611.6419753086427 18.1111111111112)"/><use xlink:href="#i" transform="matrix(1,0,0,1,1040,29.3333333333336) translate(438.0000000000025 44.7777777777776)"/><use xlink:href="#j" transform="matrix(1,0,0,1,1040,29.3333333333336) translate(456.51851851852086 44.7777777777776)"/><use xlink:href="#k" transform="matrix(1,0,0,1,1040,29.3333333333336) translate(474.60493827160707 44.7777777777776)"/><use xlink:href="#l" transform="matrix(1,0,0,1,1040,29.3333333333336) translate(594.2345679012356 44.7777777777776)"/><use xlink:href="#m" transform="matrix(1,0,0,1,1040,29.3333333333336) translate(625.0987654320994 44.7777777777776)"/><use xlink:href="#n" transform="matrix(1,0,0,1,1040,29.3333333333336) translate(638.6172839506178 44.7777777777776)"/><path d="M100 125.75c0-2.76 2.24-5 5-5h490c2.76 0 5 2.24 5 5v122.5c0 2.76-2.24 5-5 5H105c-2.76 0-5-2.24-5-5z" fill="#fff"/><path d="M100 125.75c0-2.76 2.24-5 5-5h490c2.76 0 5 2.24 5 5v122.5c0 2.76-2.24 5-5 5H105c-2.76 0-5-2.24-5-5zM100 166.75h500M160 166.75v86.5M380 166.75v86.5" stroke="#666" stroke-width="2" fill="none"/><use xlink:href="#o" transform="matrix(1,0,0,1,110,120.75) translate(211.55 15.799999999999999)"/><use xlink:href="#p" transform="matrix(1,0,0,1,110,120.75) translate(171.775 37.4)"/><use xlink:href="#q" transform="matrix(1,0,0,1,110,120.75) translate(251.275 37.4)"/><use xlink:href="#r" transform="matrix(1,0,0,1,105,169.25) translate(22.025 15.1)"/><use xlink:href="#s" transform="matrix(1,0,0,1,165,169.25) translate(74.05 15.1)"/><use xlink:href="#t" transform="matrix(1,0,0,1,385,169.25) translate(72.025 15.1)"/><use xlink:href="#r" transform="matrix(1,0,0,1,105,197.25) translate(22.025 15.1)"/><use xlink:href="#u" transform="matrix(1,0,0,1,165,197.25) translate(66.575 15.1)"/><use xlink:href="#t" transform="matrix(1,0,0,1,385,197.25) translate(72.025 15.1)"/><use xlink:href="#v" transform="matrix(1,0,0,1,105,225.25) translate(19.75 15.1)"/><use xlink:href="#w" transform="matrix(1,0,0,1,165,225.25) translate(48.574999999999996 15.1)"/><use xlink:href="#x" transform="matrix(1,0,0,1,385,225.25) translate(66.07499999999999 15.1)"/><path d="M720 185c0-2.76 2.24-5 5-5h710c2.76 0 5 2.24 5 5v60.5c0 2.76-2.24 5-5 5H725c-2.76 0-5-2.24-5-5z" fill="#fff"/><path d="M720 185c0-2.76 2.24-5 5-5h710c2.76 0 5 2.24 5 5v60.5c0 2.76-2.24 5-5 5H725c-2.76 0-5-2.24-5-5zM720 220h720M780 220v30.5M1110 220v30.5" stroke="#666" stroke-width="2" fill="none"/><use xlink:href="#y" transform="matrix(1,0,0,1,730,180) translate(313.05 23.6)"/><use xlink:href="#z" transform="matrix(1,0,0,1,725,222.5) translate(9.5 15.1)"/><use xlink:href="#A" transform="matrix(1,0,0,1,785,222.5) translate(124.05 15.1)"/><use xlink:href="#B" transform="matrix(1,0,0,1,1115,222.5) translate(105.07499999999999 15.1)"/><path d="M720 236h-54.46c-2.76 0-5-2.25-5-5v-56.75c0-2.76-2.24-5-5-5H601.1" stroke="#999" stroke-width="2" fill="none"/><path d="M615.35 173.9l-14.26-4.65 14.25-4.64z" fill="#fff"/><path d="M616.35 175.26l-16.35-5.3v-1.4l16.35-5.32zm-12.03-6l10.03 3.25V166z" fill="#999"/><use xlink:href="#C" transform="matrix(1,0,0,1,638.6769148830289,144.7914826908437) translate(0.004999999999999005 14.4)"/><use xlink:href="#D" transform="matrix(1,0,0,1,638.6769148830289,144.7914826908437) translate(5.004999999999999 14.4)"/><use xlink:href="#E" transform="matrix(1,0,0,1,638.6769148830289,144.7914826908437) translate(20.005 14.4)"/><use xlink:href="#F" transform="matrix(1,0,0,1,638.6769148830289,144.7914826908437) translate(47.405 14.4)"/><path d="M100 305c0-2.76 2.24-5 5-5h490c2.76 0 5 2.24 5 5v122.5c0 2.76-2.24 5-5 5H105c-2.76 0-5-2.24-5-5z" fill="#fff"/><path d="M100 305c0-2.76 2.24-5 5-5h490c2.76 0 5 2.24 5 5v122.5c0 2.76-2.24 5-5 5H105c-2.76 0-5-2.24-5-5zM100 346h500M160 346v86.5M380 346v86.5" stroke="#666" stroke-width="2" fill="none"/><use xlink:href="#o" transform="matrix(1,0,0,1,110,300) translate(211.55 15.799999999999999)"/><use xlink:href="#G" transform="matrix(1,0,0,1,110,300) translate(185.625 37.4)"/><use xlink:href="#q" transform="matrix(1,0,0,1,110,300) translate(237.425 37.4)"/><use xlink:href="#r" transform="matrix(1,0,0,1,105,348.5) translate(22.025 15.1)"/><use xlink:href="#s" transform="matrix(1,0,0,1,165,348.5) translate(74.05 15.1)"/><use xlink:href="#t" transform="matrix(1,0,0,1,385,348.5) translate(72.025 15.1)"/><use xlink:href="#r" transform="matrix(1,0,0,1,105,376.5) translate(22.025 15.1)"/><use xlink:href="#u" transform="matrix(1,0,0,1,165,376.5) translate(66.575 15.1)"/><use xlink:href="#t" transform="matrix(1,0,0,1,385,376.5) translate(72.025 15.1)"/><use xlink:href="#v" transform="matrix(1,0,0,1,105,404.5) translate(19.75 15.1)"/><use xlink:href="#w" transform="matrix(1,0,0,1,165,404.5) translate(48.574999999999996 15.1)"/><use xlink:href="#x" transform="matrix(1,0,0,1,385,404.5) translate(66.07499999999999 15.1)"/><path d="M640 664c0-2.76 2.24-5 5-5h690c2.76 0 5 2.24 5 5v284.5c0 2.76-2.24 5-5 5H645c-2.76 0-5-2.24-5-5z" fill="#fff"/><path d="M640 664c0-2.76 2.24-5 5-5h690c2.76 0 5 2.24 5 5v284.5c0 2.76-2.24 5-5 5H645c-2.76 0-5-2.24-5-5zM640 699h700M700 699v254.5M1020 699v254.5" stroke="#666" stroke-width="2" fill="none"/><use xlink:href="#H" transform="matrix(1,0,0,1,650,659) translate(274.6 23.6)"/><use xlink:href="#r" transform="matrix(1,0,0,1,645,701.5) translate(22.025 15.1)"/><use xlink:href="#I" transform="matrix(1,0,0,1,705,701.5) translate(107.675 15.1)"/><use xlink:href="#t" transform="matrix(1,0,0,1,1025,701.5) translate(122.025 15.1)"/><use xlink:href="#r" transform="matrix(1,0,0,1,645,729.5) translate(22.025 15.1)"/><use xlink:href="#J" transform="matrix(1,0,0,1,705,729.5) translate(113.1 15.1)"/><use xlink:href="#K" transform="matrix(1,0,0,1,1025,729.5) translate(131.55 15.1)"/><use xlink:href="#r" transform="matrix(1,0,0,1,645,757.5) translate(22.025 15.1)"/><use xlink:href="#L" transform="matrix(1,0,0,1,705,757.5) translate(97.14999999999999 15.1)"/><use xlink:href="#K" transform="matrix(1,0,0,1,1025,757.5) translate(131.55 15.1)"/><use xlink:href="#r" transform="matrix(1,0,0,1,645,785.5) translate(22.025 15.1)"/><use xlink:href="#M" transform="matrix(1,0,0,1,705,785.5) translate(119.07499999999999 15.1)"/><use xlink:href="#N" transform="matrix(1,0,0,1,1025,785.5) translate(136.55 15.1)"/><use xlink:href="#r" transform="matrix(1,0,0,1,645,813.5) translate(22.025 15.1)"/><use xlink:href="#O" transform="matrix(1,0,0,1,705,813.5) translate(120.625 15.1)"/><use xlink:href="#P" transform="matrix(1,0,0,1,1025,813.5) translate(127.025 15.1)"/><use xlink:href="#r" transform="matrix(1,0,0,1,645,841.5) translate(22.025 15.1)"/><use xlink:href="#Q" transform="matrix(1,0,0,1,705,841.5) translate(111.57499999999999 15.1)"/><use xlink:href="#P" transform="matrix(1,0,0,1,1025,841.5) translate(127.025 15.1)"/><use xlink:href="#r" transform="matrix(1,0,0,1,645,869.5) translate(22.025 15.1)"/><use xlink:href="#R" transform="matrix(1,0,0,1,705,869.5) translate(103.57499999999999 15.1)"/><use xlink:href="#P" transform="matrix(1,0,0,1,1025,869.5) translate(127.025 15.1)"/><use xlink:href="#v" transform="matrix(1,0,0,1,645,897.5) translate(19.75 15.1)"/><use xlink:href="#S" transform="matrix(1,0,0,1,705,897.5) translate(27.19999999999999 15.1)"/><use xlink:href="#T" transform="matrix(1,0,0,1,705,897.5) translate(229.95 15.1)"/><use xlink:href="#U" transform="matrix(1,0,0,1,705,897.5) translate(239.95 15.1)"/><use xlink:href="#V" transform="matrix(1,0,0,1,1025,897.5) translate(138.525 15.1)"/><use xlink:href="#v" transform="matrix(1,0,0,1,645,925.5) translate(19.75 15.1)"/><use xlink:href="#W" transform="matrix(1,0,0,1,705,925.5) translate(14.224999999999994 15.1)"/><use xlink:href="#X" transform="matrix(1,0,0,1,705,925.5) translate(204.975 15.1)"/><use xlink:href="#V" transform="matrix(1,0,0,1,1025,925.5) translate(138.525 15.1)"/><path d="M990 659v-58.25c0-2.76 2.24-5 5-5h80c2.76 0 5-2.24 5-5V532.5" stroke="#999" stroke-width="2" fill="none"/><path d="M1091.04 549.2l-1.72 1.02-9.32-15.76-9.32 15.76-1.72-1 9.88-16.72h2.32z" fill="#999"/><path d="M915 383c0-2.76 2.24-5 5-5h320c2.76 0 5 2.24 5 5v144.5c0 2.76-2.24 5-5 5H920c-2.76 0-5-2.24-5-5z" fill="#fff"/><path d="M915 383c0-2.76 2.24-5 5-5h320c2.76 0 5 2.24 5 5v144.5c0 2.76-2.24 5-5 5H920c-2.76 0-5-2.24-5-5zM915 418h330M975 418v114.5M1110 418v114.5" stroke="#666" stroke-width="2" fill="none"/><use xlink:href="#Y" transform="matrix(1,0,0,1,925,378) translate(132.025 23.6)"/><use xlink:href="#r" transform="matrix(1,0,0,1,920,420.5) translate(22.025 15.1)"/><use xlink:href="#Z" transform="matrix(1,0,0,1,980,420.5) translate(41.55 15.1)"/><use xlink:href="#aa" transform="matrix(1,0,0,1,1115,420.5) translate(49.05 15.1)"/><use xlink:href="#r" transform="matrix(1,0,0,1,920,448.5) translate(22.025 15.1)"/><use xlink:href="#ab" transform="matrix(1,0,0,1,980,448.5) translate(38.025 15.1)"/><use xlink:href="#aa" transform="matrix(1,0,0,1,1115,448.5) translate(49.05 15.1)"/><use xlink:href="#r" transform="matrix(1,0,0,1,920,476.5) translate(22.025 15.1)"/><use xlink:href="#ac" transform="matrix(1,0,0,1,980,476.5) translate(31.549999999999997 15.1)"/><use xlink:href="#ad" transform="matrix(1,0,0,1,1115,476.5) translate(30.549999999999997 15.1)"/><use xlink:href="#v" transform="matrix(1,0,0,1,920,504.5) translate(19.75 15.1)"/><use xlink:href="#ae" transform="matrix(1,0,0,1,980,504.5) translate(9.599999999999994 15.1)"/><use xlink:href="#V" transform="matrix(1,0,0,1,1115,504.5) translate(46.025 15.1)"/><path d="M620 1065c0-2.76 2.24-5 5-5h570c2.76 0 5 2.24 5 5v172.5c0 2.76-2.24 5-5 5H625c-2.76 0-5-2.24-5-5z" fill="#fff"/><path d="M620 1065c0-2.76 2.24-5 5-5h570c2.76 0 5 2.24 5 5v172.5c0 2.76-2.24 5-5 5H625c-2.76 0-5-2.24-5-5zM620 1100h580M680 1100v142.5M940 1100v142.5" stroke="#666" stroke-width="2" fill="none"/><use xlink:href="#af" transform="matrix(1,0,0,1,630,1060) translate(232.55 23.6)"/><use xlink:href="#r" transform="matrix(1,0,0,1,625,1102.5) translate(22.025 15.1)"/><use xlink:href="#ag" transform="matrix(1,0,0,1,685,1102.5) translate(76.1 15.1)"/><use xlink:href="#t" transform="matrix(1,0,0,1,945,1102.5) translate(92.025 15.1)"/><use xlink:href="#r" transform="matrix(1,0,0,1,625,1130.5) translate(22.025 15.1)"/><use xlink:href="#ah" transform="matrix(1,0,0,1,685,1130.5) translate(10.174999999999997 15.1)"/><use xlink:href="#ai" transform="matrix(1,0,0,1,685,1130.5) translate(184.925 15.1)"/><use xlink:href="#aj" transform="matrix(1,0,0,1,945,1130.5) translate(81.55 15.1)"/><use xlink:href="#v" transform="matrix(1,0,0,1,625,1158.5) translate(19.75 15.1)"/><use xlink:href="#ak" transform="matrix(1,0,0,1,685,1158.5) translate(23.624999999999986 15.1)"/><use xlink:href="#ai" transform="matrix(1,0,0,1,685,1158.5) translate(171.47500000000002 15.1)"/><use xlink:href="#al" transform="matrix(1,0,0,1,945,1158.5) translate(31.674999999999983 15.1)"/><use xlink:href="#am" transform="matrix(1,0,0,1,945,1158.5) translate(150.875 15.1)"/><use xlink:href="#v" transform="matrix(1,0,0,1,625,1186.5) translate(19.75 15.1)"/><use xlink:href="#an" transform="matrix(1,0,0,1,685,1186.5) translate(22.125 15.1)"/><use xlink:href="#ai" transform="matrix(1,0,0,1,685,1186.5) translate(172.975 15.1)"/><use xlink:href="#V" transform="matrix(1,0,0,1,945,1186.5) translate(108.525 15.1)"/><use xlink:href="#v" transform="matrix(1,0,0,1,625,1214.5) translate(19.75 15.1)"/><use xlink:href="#ao" transform="matrix(1,0,0,1,685,1214.5) translate(16.625 15.1)"/><use xlink:href="#ai" transform="matrix(1,0,0,1,685,1214.5) translate(178.475 15.1)"/><use xlink:href="#V" transform="matrix(1,0,0,1,945,1214.5) translate(108.525 15.1)"/><path d="M910 1060v-25c0-2.76 2.24-5 5-5h470c2.76 0 5-2.24 5-5V635c0-2.76-2.24-5-5-5h-300c-2.76 0-5-2.24-5-5v-92.5" stroke="#999" stroke-width="2" fill="none"/><path d="M920 1041h-20v-2h20zM1091.04 549.2l-1.72 1.02-9.32-15.76-9.32 15.76-1.72-1 9.88-16.72h2.32z" fill="#999"/><path d="M60 863c0-2.76 2.24-5 5-5h490c2.76 0 5 2.24 5 5v172.5c0 2.76-2.24 5-5 5H65c-2.76 0-5-2.24-5-5z" fill="#fff"/><path d="M60 863c0-2.76 2.24-5 5-5h490c2.76 0 5 2.24 5 5v172.5c0 2.76-2.24 5-5 5H65c-2.76 0-5-2.24-5-5zM60 898h500M120 898v142.5M340 898v142.5" stroke="#666" stroke-width="2" fill="none"/><use xlink:href="#ap" transform="matrix(1,0,0,1,70,858) translate(215.525 23.6)"/><use xlink:href="#r" transform="matrix(1,0,0,1,65,900.5) translate(22.025 15.1)"/><use xlink:href="#aq" transform="matrix(1,0,0,1,125,900.5) translate(54.55 15.1)"/><use xlink:href="#t" transform="matrix(1,0,0,1,345,900.5) translate(72.025 15.1)"/><use xlink:href="#v" transform="matrix(1,0,0,1,65,928.5) translate(19.75 15.1)"/><use xlink:href="#ar" transform="matrix(1,0,0,1,125,928.5) translate(46.12499999999999 15.1)"/><use xlink:href="#aj" transform="matrix(1,0,0,1,345,928.5) translate(61.55 15.1)"/><use xlink:href="#v" transform="matrix(1,0,0,1,65,956.5) translate(19.75 15.1)"/><use xlink:href="#as" transform="matrix(1,0,0,1,125,956.5) translate(58.099999999999994 15.1)"/><use xlink:href="#al" transform="matrix(1,0,0,1,345,956.5) translate(11.674999999999983 15.1)"/><use xlink:href="#am" transform="matrix(1,0,0,1,345,956.5) translate(130.875 15.1)"/><use xlink:href="#v" transform="matrix(1,0,0,1,65,984.5) translate(19.75 15.1)"/><use xlink:href="#at" transform="matrix(1,0,0,1,125,984.5) translate(14.150000000000006 15.1)"/><use xlink:href="#al" transform="matrix(1,0,0,1,345,984.5) translate(11.674999999999983 15.1)"/><use xlink:href="#am" transform="matrix(1,0,0,1,345,984.5) translate(130.875 15.1)"/><use xlink:href="#v" transform="matrix(1,0,0,1,65,1012.5) translate(19.75 15.1)"/><use xlink:href="#au" transform="matrix(1,0,0,1,125,1012.5) translate(6.650000000000006 15.1)"/><use xlink:href="#V" transform="matrix(1,0,0,1,345,1012.5) translate(88.525 15.1)"/><path d="M1080 378V250.5" stroke="#999" stroke-width="2" fill="none"/><path d="M1084.64 264.77h-9.28l4.64-14.27z" fill="#fff"/><path d="M1086 265.77h-12l4.95-15.27h2.1zm-9.26-2h6.52l-3.26-10.03z" fill="#999"/><use xlink:href="#C" transform="matrix(1,0,0,1,1088,290.8035164149895) translate(0.005000000000002558 14.4)"/><use xlink:href="#D" transform="matrix(1,0,0,1,1088,290.8035164149895) translate(5.005000000000003 14.4)"/><use xlink:href="#E" transform="matrix(1,0,0,1,1088,290.8035164149895) translate(20.005000000000003 14.4)"/><use xlink:href="#av" transform="matrix(1,0,0,1,1088,290.8035164149895) translate(47.405 14.4)"/><path d="M60 565c0-2.76 2.24-5 5-5h490c2.76 0 5 2.24 5 5v256.5c0 2.76-2.24 5-5 5H65c-2.76 0-5-2.24-5-5z" fill="#fff"/><path d="M60 565c0-2.76 2.24-5 5-5h490c2.76 0 5 2.24 5 5v256.5c0 2.76-2.24 5-5 5H65c-2.76 0-5-2.24-5-5zM60 600h500M120 600v226.5M340 600v226.5" stroke="#666" stroke-width="2" fill="none"/><use xlink:href="#aw" transform="matrix(1,0,0,1,70,560) translate(197.575 23.6)"/><use xlink:href="#r" transform="matrix(1,0,0,1,65,602.5) translate(22.025 15.1)"/><use xlink:href="#ax" transform="matrix(1,0,0,1,125,602.5) translate(62.275 15.1)"/><use xlink:href="#t" transform="matrix(1,0,0,1,345,602.5) translate(72.025 15.1)"/><use xlink:href="#r" transform="matrix(1,0,0,1,65,630.5) translate(22.025 15.1)"/><use xlink:href="#ay" transform="matrix(1,0,0,1,125,630.5) translate(77.1 15.1)"/><use xlink:href="#t" transform="matrix(1,0,0,1,345,630.5) translate(72.025 15.1)"/><g><use xlink:href="#r" transform="matrix(1,0,0,1,65,658.5) translate(22.025 15.1)"/></g><g><use xlink:href="#az" transform="matrix(1,0,0,1,125,658.5) translate(82.525 15.1)"/></g><g><use xlink:href="#K" transform="matrix(1,0,0,1,345,658.5) translate(81.55 15.1)"/></g><g><use xlink:href="#r" transform="matrix(1,0,0,1,65,686.5) translate(22.025 15.1)"/></g><g><use xlink:href="#aA" transform="matrix(1,0,0,1,125,686.5) translate(88.5 15.1)"/></g><g><use xlink:href="#N" transform="matrix(1,0,0,1,345,686.5) translate(86.55 15.1)"/></g><g><use xlink:href="#r" transform="matrix(1,0,0,1,65,714.5) translate(22.025 15.1)"/></g><g><use xlink:href="#aB" transform="matrix(1,0,0,1,125,714.5) translate(90.05 15.1)"/></g><g><use xlink:href="#P" transform="matrix(1,0,0,1,345,714.5) translate(77.025 15.1)"/></g><g><use xlink:href="#r" transform="matrix(1,0,0,1,65,742.5) translate(22.025 15.1)"/></g><g><use xlink:href="#aC" transform="matrix(1,0,0,1,125,742.5) translate(81 15.1)"/></g><g><use xlink:href="#P" transform="matrix(1,0,0,1,345,742.5) translate(77.025 15.1)"/></g><g><use xlink:href="#r" transform="matrix(1,0,0,1,65,770.5) translate(22.025 15.1)"/></g><g><use xlink:href="#aD" transform="matrix(1,0,0,1,125,770.5) translate(73 15.1)"/></g><g><use xlink:href="#P" transform="matrix(1,0,0,1,345,770.5) translate(77.025 15.1)"/></g><g><use xlink:href="#r" transform="matrix(1,0,0,1,65,798.5) translate(22.025 15.1)"/></g><g><use xlink:href="#aE" transform="matrix(1,0,0,1,125,798.5) translate(66.57499999999999 15.1)"/></g><g><use xlink:href="#K" transform="matrix(1,0,0,1,345,798.5) translate(81.55 15.1)"/></g><path d="M560 614.5h34.5c2.76 0 5 2.25 5 5v309.6c0 2.75 2.24 5 5 5H639" stroke="#999" stroke-width="2" fill="none"/><path d="M639 934.1l-14.27 4.62v-9.27z" fill="#999"/><path d="M640 933.36v1.46l-16.27 5.28v-12.02zm-14.27 4l10.03-3.27-10.03-3.27z" fill="#999"/><g><use xlink:href="#aF" transform="matrix(1,0,0,1,607.4999999999999,631.8703352516666) translate(0.004999999999999005 14.4)"/><use xlink:href="#E" transform="matrix(1,0,0,1,607.4999999999999,631.8703352516666) translate(15.004999999999999 14.4)"/><use xlink:href="#F" transform="matrix(1,0,0,1,607.4999999999999,631.8703352516666) translate(42.405 14.4)"/></g><path d="M560 1026.3h25c2.76 0 5 2.24 5 5v135.23c0 2.76 2.24 5 5 5h25" stroke="#999" stroke-width="2" fill="none"/><path d="M620 1171.53l-14.27 4.63v-9.27z" fill="#999"/><path d="M620 1170.48v2.1l-15.27 4.96v-12.02zm-13.27 4.3l10.03-3.25-10.03-3.26z" fill="#999"/><g><use xlink:href="#aF" transform="matrix(1,0,0,1,598,1032.710673958601) translate(0.004999999999999005 14.4)"/><use xlink:href="#E" transform="matrix(1,0,0,1,598,1032.710673958601) translate(15.004999999999999 14.4)"/><use xlink:href="#F" transform="matrix(1,0,0,1,598,1032.710673958601) translate(42.405 14.4)"/></g><path d="M600 361.15h155c2.76 0 5-2.23 5-5V251.5" stroke="#999" stroke-width="2" fill="none"/><path d="M614.27 365.8L600 361.14l14.27-4.63z" fill="#fff"/><path d="M615.27 367.17L600 362.2v-2.1l15.27-4.96zm-12.03-6.02l10.03 3.26v-6.5zM761 251.5h-2v-1h2z" fill="#999"/><g><use xlink:href="#aF" transform="matrix(1,0,0,1,655.0678176184152,335.55384615384617) translate(0.004999999999999005 14.4)"/><use xlink:href="#E" transform="matrix(1,0,0,1,655.0678176184152,335.55384615384617) translate(15.004999999999999 14.4)"/><use xlink:href="#F" transform="matrix(1,0,0,1,655.0678176184152,335.55384615384617) translate(42.405 14.4)"/></g><defs><path fill="#999" d="M199 0l-22-63H83L61 0H9l90-248h61L250 0h-51zm-33-102l-36-108c-10 38-24 72-36 108h72" id="aG"/><path fill="#999" d="M24 0v-248h52v208h133V0H24" id="aH"/><path fill="#999" d="M67-125c0 53 21 87 73 88 37 1 54-22 65-47l45 17C233-25 199 4 140 4 58 4 20-42 15-125 8-235 124-281 211-232c18 10 29 29 36 50l-46 12c-8-25-30-41-62-41-52 0-71 34-72 86" id="aI"/><path fill="#999" d="M186 0v-106H76V0H24v-248h52v99h110v-99h50V0h-50" id="aJ"/><path fill="#999" d="M24 0v-248h195v40H76v63h132v40H76v65h150V0H24" id="aK"/><path fill="#999" d="M230 0l2-204L168 0h-37L68-204 70 0H24v-248h70l56 185 57-185h69V0h-46" id="aL"/><path fill="#999" d="M24 0v-248h52V0H24" id="aM"/><path fill="#999" d="M169-182c-1-43-94-46-97-3 18 66 151 10 154 114 3 95-165 93-204 36-6-8-10-19-12-30l50-8c3 46 112 56 116 5-17-69-150-10-154-114-4-87 153-88 188-35 5 8 8 18 10 28" id="aN"/><path fill="#999" d="M136-208V0H84v-208H4v-40h212v40h-80" id="aO"/><g id="a"><use transform="matrix(0.09876543209876544,0,0,0.09876543209876544,0,0)" xlink:href="#aG"/><use transform="matrix(0.09876543209876544,0,0,0.09876543209876544,25.58024691358025,0)" xlink:href="#aH"/><use transform="matrix(0.09876543209876544,0,0,0.09876543209876544,47.20987654320988,0)" xlink:href="#aI"/><use transform="matrix(0.09876543209876544,0,0,0.09876543209876544,72.79012345679013,0)" xlink:href="#aJ"/><use transform="matrix(0.09876543209876544,0,0,0.09876543209876544,98.37037037037038,0)" xlink:href="#aK"/><use transform="matrix(0.09876543209876544,0,0,0.09876543209876544,122.07407407407409,0)" xlink:href="#aL"/><use transform="matrix(0.09876543209876544,0,0,0.09876543209876544,151.60493827160496,0)" xlink:href="#aM"/><use transform="matrix(0.09876543209876544,0,0,0.09876543209876544,161.48148148148152,0)" xlink:href="#aN"/><use transform="matrix(0.09876543209876544,0,0,0.09876543209876544,185.18518518518522,0)" xlink:href="#aO"/></g><g id="b"><use transform="matrix(0.09876543209876544,0,0,0.09876543209876544,0,0)" xlink:href="#aI"/><use transform="matrix(0.09876543209876544,0,0,0.09876543209876544,25.58024691358025,0)" xlink:href="#aH"/><use transform="matrix(0.09876543209876544,0,0,0.09876543209876544,47.20987654320988,0)" xlink:href="#aG"/><use transform="matrix(0.09876543209876544,0,0,0.09876543209876544,72.79012345679013,0)" xlink:href="#aN"/><use transform="matrix(0.09876543209876544,0,0,0.09876543209876544,96.49382716049384,0)" xlink:href="#aN"/></g><path fill="#999" d="M24-248c120-7 223 5 221 122C244-46 201 0 124 0H24v-248zM76-40c74 7 117-18 117-86 0-67-45-88-117-82v168" id="aP"/><path fill="#999" d="M67-125c0 54 23 88 75 88 28 0 53-7 68-21v-34h-60v-39h108v91C232-14 192 4 140 4 58 4 20-42 15-125 8-236 126-280 215-234c19 10 29 26 37 47l-47 15c-11-23-29-39-63-39-53 1-75 33-75 86" id="aQ"/><path fill="#999" d="M240-174c0 40-23 61-54 70L253 0h-59l-57-94H76V0H24v-248c93 4 217-23 216 74zM76-134c48-2 112 12 112-38 0-48-66-32-112-35v73" id="aR"/><g id="c"><use transform="matrix(0.09876543209876544,0,0,0.09876543209876544,0,0)" xlink:href="#aP"/><use transform="matrix(0.09876543209876544,0,0,0.09876543209876544,25.58024691358025,0)" xlink:href="#aM"/><use transform="matrix(0.09876543209876544,0,0,0.09876543209876544,35.4567901234568,0)" xlink:href="#aG"/><use transform="matrix(0.09876543209876544,0,0,0.09876543209876544,61.03703703703705,0)" xlink:href="#aQ"/><use transform="matrix(0.09876543209876544,0,0,0.09876543209876544,88.69135802469137,0)" xlink:href="#aR"/><use transform="matrix(0.09876543209876544,0,0,0.09876543209876544,114.27160493827161,0)" xlink:href="#aG"/><use transform="matrix(0.09876543209876544,0,0,0.09876543209876544,139.85185185185188,0)" xlink:href="#aL"/></g><path fill="#999" d="M190 0L58-211 59 0H30v-248h39L202-35l-2-213h31V0h-41" id="aS"/><path fill="#999" d="M34 0v-190h32V0H34zM24-211c8-23 27-35 38-54h36v5l-58 49H24" id="aT"/><path fill="#999" d="M96-169c-40 0-48 33-48 73s9 75 48 75c24 0 41-14 43-38l32 2c-6 37-31 61-74 61-59 0-76-41-82-99-10-93 101-131 147-64 4 7 5 14 7 22l-32 3c-4-21-16-35-41-35" id="aU"/><path fill="#999" d="M100-194c62-1 85 37 85 99 1 63-27 99-86 99S16-35 15-95c0-66 28-99 85-99zM99-20c44 1 53-31 53-75 0-43-8-75-51-75s-53 32-53 75 10 74 51 75" id="aV"/><path fill="#999" d="M24 0v-261h32V0H24" id="aW"/><path fill="#999" d="M141-36C126-15 110 5 73 4 37 3 15-17 15-53c-1-64 63-63 125-63 3-35-9-54-41-54-24 1-41 7-42 31l-33-3c5-37 33-52 76-52 45 0 72 20 72 64v82c-1 20 7 32 28 27v20c-31 9-61-2-59-35zM48-53c0 20 12 33 32 33 41-3 63-29 60-74-43 2-92-5-92 41" id="aX"/><path fill="#999" d="M135-143c-3-34-86-38-87 0 15 53 115 12 119 90S17 21 10-45l28-5c4 36 97 45 98 0-10-56-113-15-118-90-4-57 82-63 122-42 12 7 21 19 24 35" id="aY"/><g id="f"><use transform="matrix(0.06172839506172778,0,0,0.06172839506172778,0,0)" xlink:href="#aS"/><use transform="matrix(0.06172839506172778,0,0,0.06172839506172778,15.987654320987495,0)" xlink:href="#aT"/><use transform="matrix(0.06172839506172778,0,0,0.06172839506172778,22.160493827160273,0)" xlink:href="#aU"/><use transform="matrix(0.06172839506172778,0,0,0.06172839506172778,33.271604938271274,0)" xlink:href="#aV"/><use transform="matrix(0.06172839506172778,0,0,0.06172839506172778,45.61728395061683,0)" xlink:href="#aW"/><use transform="matrix(0.06172839506172778,0,0,0.06172839506172778,50.493827160493325,0)" xlink:href="#aX"/><use transform="matrix(0.06172839506172778,0,0,0.06172839506172778,62.83950617283888,0)" xlink:href="#aY"/></g><path fill="#999" d="M47-170H22l-4-78h33" id="aZ"/><path fill="#999" d="M30 0v-248h187v28H63v79h144v27H63v87h162V0H30" id="ba"/><path fill="#999" d="M206 0h-36l-40-164L89 0H53L-1-190h32L70-26l43-164h34l41 164 42-164h31" id="bb"/><path fill="#999" d="M101-234c-31-9-42 10-38 44h38v23H63V0H32v-167H5v-23h27c-7-52 17-82 69-68v24" id="bc"/><path fill="#999" d="M100-194c63 0 86 42 84 106H49c0 40 14 67 53 68 26 1 43-12 49-29l28 8c-11 28-37 45-77 45C44 4 14-33 15-96c1-61 26-98 85-98zm52 81c6-60-76-77-97-28-3 7-6 17-6 28h103" id="bd"/><path fill="#999" d="M117-194c89-4 53 116 60 194h-32v-121c0-31-8-49-39-48C34-167 62-67 57 0H25l-1-190h30c1 10-1 24 2 32 11-22 29-35 61-36" id="be"/><path fill="#999" d="M59-47c-2 24 18 29 38 22v24C64 9 27 4 27-40v-127H5v-23h24l9-43h21v43h35v23H59v120" id="bf"/><path fill="#999" d="M106-169C34-169 62-67 57 0H25v-261h32l-1 103c12-21 28-36 61-36 89 0 53 116 60 194h-32v-121c2-32-8-49-39-48" id="bg"/><g id="g"><use transform="matrix(0.06172839506172778,0,0,0.06172839506172778,0,0)" xlink:href="#aZ"/><use transform="matrix(0.06172839506172778,0,0,0.06172839506172778,4.197530864197489,0)" xlink:href="#ba"/><use transform="matrix(0.06172839506172778,0,0,0.06172839506172778,19.012345679012157,0)" xlink:href="#aV"/><use transform="matrix(0.06172839506172778,0,0,0.06172839506172778,31.358024691357713,0)" xlink:href="#bb"/><use transform="matrix(0.06172839506172778,0,0,0.06172839506172778,47.34567901234521,0)" xlink:href="#bc"/><use transform="matrix(0.06172839506172778,0,0,0.06172839506172778,53.518518518517986,0)" xlink:href="#bd"/><use transform="matrix(0.06172839506172778,0,0,0.06172839506172778,65.86419753086355,0)" xlink:href="#be"/><use transform="matrix(0.06172839506172778,0,0,0.06172839506172778,78.2098765432091,0)" xlink:href="#bf"/><use transform="matrix(0.06172839506172778,0,0,0.06172839506172778,84.38271604938188,0)" xlink:href="#bg"/><use transform="matrix(0.06172839506172778,0,0,0.06172839506172778,96.72839506172744,0)" xlink:href="#aZ"/></g><path fill="#999" d="M30-248c118-7 216 8 213 122C240-48 200 0 122 0H30v-248zM63-27c89 8 146-16 146-99s-60-101-146-95v194" id="bh"/><path fill="#999" d="M96-169c-40 0-48 33-48 73s9 75 48 75c24 0 41-14 43-38l32 2c-6 37-31 61-74 61-59 0-76-41-82-99-10-93 101-131 147-64 4 7 5 14 7 22l-32 3c-4-21-16-35-41-35zm3 187c19-1 33 8 33 26 0 31-30 33-64 32V58c18 2 39 4 41-13 1-15-18-13-34-13L87 0h19" id="bi"/><path fill="#999" d="M114-163C36-179 61-72 57 0H25l-1-190h30c1 12-1 29 2 39 6-27 23-49 58-41v29" id="bj"/><path fill="#999" d="M85-194c31 0 48 13 60 33l-1-100h32l1 261h-30c-2-10 0-23-3-31C134-8 116 4 85 4 32 4 16-35 15-94c0-66 23-100 70-100zm9 24c-40 0-46 34-46 75 0 40 6 74 45 74 42 0 51-32 51-76 0-42-9-74-50-73" id="bk"/><path fill="#999" d="M24-231v-30h32v30H24zM24 0v-190h32V0H24" id="bl"/><g id="h"><use transform="matrix(0.06172839506172778,0,0,0.06172839506172778,0,0)" xlink:href="#bh"/><use transform="matrix(0.06172839506172778,0,0,0.06172839506172778,15.987654320987495,0)" xlink:href="#bd"/><use transform="matrix(0.06172839506172778,0,0,0.06172839506172778,28.33333333333305,0)" xlink:href="#bi"/><use transform="matrix(0.06172839506172778,0,0,0.06172839506172778,39.44444444444405,0)" xlink:href="#aV"/><use transform="matrix(0.06172839506172778,0,0,0.06172839506172778,51.79012345678961,0)" xlink:href="#bj"/><use transform="matrix(0.06172839506172778,0,0,0.06172839506172778,59.135802469135214,0)" xlink:href="#bk"/><use transform="matrix(0.06172839506172778,0,0,0.06172839506172778,71.48148148148077,0)" xlink:href="#bl"/></g><path fill="#999" d="M32 76v-337h29V76H32" id="bm"/><use transform="matrix(0.06172839506172778,0,0,0.06172839506172778,0,0)" xlink:href="#bm" id="j"/><path fill="#999" d="M185-189c-5-48-123-54-124 2 14 75 158 14 163 119 3 78-121 87-175 55-17-10-28-26-33-46l33-7c5 56 141 63 141-1 0-78-155-14-162-118-5-82 145-84 179-34 5 7 8 16 11 25" id="bn"/><path fill="#999" d="M115-194c55 1 70 41 70 98S169 2 115 4C84 4 66-9 55-30l1 105H24l-1-265h31l2 30c10-21 28-34 59-34zm-8 174c40 0 45-34 45-75s-6-73-45-74c-42 0-51 32-51 76 0 43 10 73 51 73" id="bo"/><path fill="#999" d="M210-169c-67 3-38 105-44 169h-31v-121c0-29-5-50-35-48C34-165 62-65 56 0H25l-1-190h30c1 10-1 24 2 32 10-44 99-50 107 0 11-21 27-35 58-36 85-2 47 119 55 194h-31v-121c0-29-5-49-35-48" id="bp"/><path fill="#999" d="M115-194c53 0 69 39 70 98 0 66-23 100-70 100C84 3 66-7 56-30L54 0H23l1-261h32v101c10-23 28-34 59-34zm-8 174c40 0 45-34 45-75 0-40-5-75-45-74-42 0-51 32-51 76 0 43 10 73 51 73" id="bq"/><path fill="#999" d="M68-38c1 34 0 65-14 84H32c9-13 17-26 17-46H33v-38h35" id="br"/><g id="k"><use transform="matrix(0.06172839506172778,0,0,0.06172839506172778,0,0)" xlink:href="#bn"/><use transform="matrix(0.06172839506172778,0,0,0.06172839506172778,14.814814814814667,0)" xlink:href="#bd"/><use transform="matrix(0.06172839506172778,0,0,0.06172839506172778,27.160493827160224,0)" xlink:href="#bo"/><use transform="matrix(0.06172839506172778,0,0,0.06172839506172778,39.50617283950578,0)" xlink:href="#bf"/><use transform="matrix(0.06172839506172778,0,0,0.06172839506172778,45.67901234567856,0)" xlink:href="#bd"/><use transform="matrix(0.06172839506172778,0,0,0.06172839506172778,58.024691358024114,0)" xlink:href="#bp"/><use transform="matrix(0.06172839506172778,0,0,0.06172839506172778,76.48148148148073,0)" xlink:href="#bq"/><use transform="matrix(0.06172839506172778,0,0,0.06172839506172778,88.82716049382628,0)" xlink:href="#bd"/><use transform="matrix(0.06172839506172778,0,0,0.06172839506172778,101.17283950617184,0)" xlink:href="#bj"/><use transform="matrix(0.06172839506172778,0,0,0.06172839506172778,107.2839506172829,0)" xlink:href="#br"/></g><path fill="#999" d="M101-251c82-7 93 87 43 132L82-64C71-53 59-42 53-27h129V0H18c2-99 128-94 128-182 0-28-16-43-45-43s-46 15-49 41l-32-3c6-41 34-60 81-64" id="bs"/><path fill="#999" d="M155-56V0h-30v-56H8v-25l114-167h33v167h35v25h-35zm-30-156c-27 46-58 90-88 131h88v-131" id="bt"/><g id="l"><use transform="matrix(0.06172839506172778,0,0,0.06172839506172778,0,0)" xlink:href="#bs"/><use transform="matrix(0.06172839506172778,0,0,0.06172839506172778,12.345679012345556,0)" xlink:href="#bt"/></g><path fill="#999" d="M16-82v-28h88v28H16" id="bu"/><use transform="matrix(0.06172839506172778,0,0,0.06172839506172778,0,0)" xlink:href="#bu" id="m"/><path fill="#999" d="M101-251c68 0 85 55 85 127S166 4 100 4C33 4 14-52 14-124c0-73 17-127 87-127zm-1 229c47 0 54-49 54-102s-4-102-53-102c-51 0-55 48-55 102 0 53 5 102 54 102" id="bv"/><path fill="#999" d="M27 0v-27h64v-190l-56 39v-29l58-41h29v221h61V0H27" id="bw"/><path fill="#999" d="M110-160c48 1 74 30 74 79 0 53-28 85-80 85-65 0-83-55-86-122-5-90 50-162 133-122 14 7 22 21 27 39l-31 6c-5-40-67-38-82-6-9 19-15 44-15 74 11-20 30-34 60-33zm-7 138c34 0 49-23 49-58s-16-56-50-56c-29 0-50 16-49 49 1 36 15 65 50 65" id="bx"/><g id="n"><use transform="matrix(0.06172839506172778,0,0,0.06172839506172778,0,0)" xlink:href="#bs"/><use transform="matrix(0.06172839506172778,0,0,0.06172839506172778,12.345679012345556,0)" xlink:href="#bv"/><use transform="matrix(0.06172839506172778,0,0,0.06172839506172778,24.691358024691112,0)" xlink:href="#bw"/><use transform="matrix(0.06172839506172778,0,0,0.06172839506172778,37.03703703703667,0)" xlink:href="#bx"/></g><path fill="#333" d="M205 0l-28-72H64L36 0H1l101-248h38L239 0h-34zm-38-99l-47-123c-12 45-31 82-46 123h93" id="by"/><path fill="#333" d="M96-169c-40 0-48 33-48 73s9 75 48 75c24 0 41-14 43-38l32 2c-6 37-31 61-74 61-59 0-76-41-82-99-10-93 101-131 147-64 4 7 5 14 7 22l-32 3c-4-21-16-35-41-35" id="bz"/><path fill="#333" d="M59-47c-2 24 18 29 38 22v24C64 9 27 4 27-40v-127H5v-23h24l9-43h21v43h35v23H59v120" id="bA"/><path fill="#333" d="M24-231v-30h32v30H24zM24 0v-190h32V0H24" id="bB"/><path fill="#333" d="M108 0H70L1-190h34L89-25l56-165h34" id="bC"/><path fill="#333" d="M179-190L93 31C79 59 56 82 12 73V49c39 6 53-20 64-50L1-190h34L92-34l54-156h33" id="bD"/><g id="o"><use transform="matrix(0.05,0,0,0.05,0,0)" xlink:href="#by"/><use transform="matrix(0.05,0,0,0.05,12,0)" xlink:href="#bz"/><use transform="matrix(0.05,0,0,0.05,21,0)" xlink:href="#bA"/><use transform="matrix(0.05,0,0,0.05,26,0)" xlink:href="#bB"/><use transform="matrix(0.05,0,0,0.05,29.950000000000003,0)" xlink:href="#bC"/><use transform="matrix(0.05,0,0,0.05,38.95,0)" xlink:href="#bB"/><use transform="matrix(0.05,0,0,0.05,42.900000000000006,0)" xlink:href="#bA"/><use transform="matrix(0.05,0,0,0.05,47.900000000000006,0)" xlink:href="#bD"/></g><path fill="#333" d="M266 0h-40l-56-210L115 0H75L2-248h35L96-30l15-64 43-154h32l59 218 59-218h35" id="bE"/><path fill="#333" d="M100-194c63 0 86 42 84 106H49c0 40 14 67 53 68 26 1 43-12 49-29l28 8c-11 28-37 45-77 45C44 4 14-33 15-96c1-61 26-98 85-98zm52 81c6-60-76-77-97-28-3 7-6 17-6 28h103" id="bF"/><path fill="#333" d="M24 0v-261h32V0H24" id="bG"/><path fill="#333" d="M100-194c62-1 85 37 85 99 1 63-27 99-86 99S16-35 15-95c0-66 28-99 85-99zM99-20c44 1 53-31 53-75 0-43-8-75-51-75s-53 32-53 75 10 74 51 75" id="bH"/><path fill="#333" d="M210-169c-67 3-38 105-44 169h-31v-121c0-29-5-50-35-48C34-165 62-65 56 0H25l-1-190h30c1 10-1 24 2 32 10-44 99-50 107 0 11-21 27-35 58-36 85-2 47 119 55 194h-31v-121c0-29-5-49-35-48" id="bI"/><g id="p"><use transform="matrix(0.05,0,0,0.05,0,0)" xlink:href="#bE"/><use transform="matrix(0.05,0,0,0.05,16.599999999999998,0)" xlink:href="#bF"/><use transform="matrix(0.05,0,0,0.05,26.599999999999994,0)" xlink:href="#bG"/><use transform="matrix(0.05,0,0,0.05,30.549999999999997,0)" xlink:href="#bz"/><use transform="matrix(0.05,0,0,0.05,39.55,0)" xlink:href="#bH"/><use transform="matrix(0.05,0,0,0.05,49.55,0)" xlink:href="#bI"/><use transform="matrix(0.05,0,0,0.05,64.5,0)" xlink:href="#bF"/></g><path fill="#333" d="M185-189c-5-48-123-54-124 2 14 75 158 14 163 119 3 78-121 87-175 55-17-10-28-26-33-46l33-7c5 56 141 63 141-1 0-78-155-14-162-118-5-82 145-84 179-34 5 7 8 16 11 25" id="bJ"/><path fill="#333" d="M114-163C36-179 61-72 57 0H25l-1-190h30c1 12-1 29 2 39 6-27 23-49 58-41v29" id="bK"/><path fill="#333" d="M117-194c89-4 53 116 60 194h-32v-121c0-31-8-49-39-48C34-167 62-67 57 0H25l-1-190h30c1 10-1 24 2 32 11-22 29-35 61-36" id="bL"/><g id="q"><use transform="matrix(0.05,0,0,0.05,0,0)" xlink:href="#bJ"/><use transform="matrix(0.05,0,0,0.05,12,0)" xlink:href="#bz"/><use transform="matrix(0.05,0,0,0.05,21,0)" xlink:href="#bK"/><use transform="matrix(0.05,0,0,0.05,26.950000000000003,0)" xlink:href="#bF"/><use transform="matrix(0.05,0,0,0.05,36.95,0)" xlink:href="#bF"/><use transform="matrix(0.05,0,0,0.05,46.95,0)" xlink:href="#bL"/></g><path fill="#333" d="M16-82v-28h88v28H16" id="bM"/><use transform="matrix(0.05,0,0,0.05,0,0)" xlink:href="#bM" id="r"/><path fill="#333" d="M135-143c-3-34-86-38-87 0 15 53 115 12 119 90S17 21 10-45l28-5c4 36 97 45 98 0-10-56-113-15-118-90-4-57 82-63 122-42 12 7 21 19 24 35" id="bN"/><g id="s"><use transform="matrix(0.05,0,0,0.05,0,0)" xlink:href="#bB"/><use transform="matrix(0.05,0,0,0.05,3.95,0)" xlink:href="#bN"/><use transform="matrix(0.05,0,0,0.05,12.949999999999998,0)" xlink:href="#by"/><use transform="matrix(0.05,0,0,0.05,24.95,0)" xlink:href="#bz"/><use transform="matrix(0.05,0,0,0.05,33.95,0)" xlink:href="#bA"/><use transform="matrix(0.05,0,0,0.05,38.95,0)" xlink:href="#bB"/><use transform="matrix(0.05,0,0,0.05,42.900000000000006,0)" xlink:href="#bC"/><use transform="matrix(0.05,0,0,0.05,51.900000000000006,0)" xlink:href="#bF"/></g><path fill="#333" d="M160-131c35 5 61 23 61 61C221 17 115-2 30 0v-248c76 3 177-17 177 60 0 33-19 50-47 57zm-97-11c50-1 110 9 110-42 0-47-63-36-110-37v79zm0 115c55-2 124 14 124-45 0-56-70-42-124-44v89" id="bO"/><path fill="#333" d="M141-36C126-15 110 5 73 4 37 3 15-17 15-53c-1-64 63-63 125-63 3-35-9-54-41-54-24 1-41 7-42 31l-33-3c5-37 33-52 76-52 45 0 72 20 72 64v82c-1 20 7 32 28 27v20c-31 9-61-2-59-35zM48-53c0 20 12 33 32 33 41-3 63-29 60-74-43 2-92-5-92 41" id="bP"/><g id="t"><use transform="matrix(0.05,0,0,0.05,0,0)" xlink:href="#bO"/><use transform="matrix(0.05,0,0,0.05,12,0)" xlink:href="#bH"/><use transform="matrix(0.05,0,0,0.05,22,0)" xlink:href="#bH"/><use transform="matrix(0.05,0,0,0.05,32,0)" xlink:href="#bG"/><use transform="matrix(0.05,0,0,0.05,35.95,0)" xlink:href="#bF"/><use transform="matrix(0.05,0,0,0.05,45.95,0)" xlink:href="#bP"/><use transform="matrix(0.05,0,0,0.05,55.95,0)" xlink:href="#bL"/></g><path fill="#333" d="M212-179c-10-28-35-45-73-45-59 0-87 40-87 99 0 60 29 101 89 101 43 0 62-24 78-52l27 14C228-24 195 4 139 4 59 4 22-46 18-125c-6-104 99-153 187-111 19 9 31 26 39 46" id="bQ"/><path fill="#333" d="M85-194c31 0 48 13 60 33l-1-100h32l1 261h-30c-2-10 0-23-3-31C134-8 116 4 85 4 32 4 16-35 15-94c0-66 23-100 70-100zm9 24c-40 0-46 34-46 75 0 40 6 74 45 74 42 0 51-32 51-76 0-42-9-74-50-73" id="bR"/><g id="u"><use transform="matrix(0.05,0,0,0.05,0,0)" xlink:href="#bB"/><use transform="matrix(0.05,0,0,0.05,3.95,0)" xlink:href="#bN"/><use transform="matrix(0.05,0,0,0.05,12.949999999999998,0)" xlink:href="#bQ"/><use transform="matrix(0.05,0,0,0.05,25.899999999999995,0)" xlink:href="#bK"/><use transform="matrix(0.05,0,0,0.05,31.849999999999994,0)" xlink:href="#bF"/><use transform="matrix(0.05,0,0,0.05,41.849999999999994,0)" xlink:href="#bP"/><use transform="matrix(0.05,0,0,0.05,51.849999999999994,0)" xlink:href="#bA"/><use transform="matrix(0.05,0,0,0.05,56.849999999999994,0)" xlink:href="#bF"/><use transform="matrix(0.05,0,0,0.05,66.85,0)" xlink:href="#bR"/></g><path fill="#333" d="M118-107v75H92v-75H18v-26h74v-75h26v75h74v26h-74" id="bS"/><use transform="matrix(0.05,0,0,0.05,0,0)" xlink:href="#bS" id="v"/><path fill="#333" d="M84 4C-5 8 30-112 23-190h32v120c0 31 7 50 39 49 72-2 45-101 50-169h31l1 190h-30c-1-10 1-25-2-33-11 22-28 36-60 37" id="bT"/><path fill="#333" d="M115-194c55 1 70 41 70 98S169 2 115 4C84 4 66-9 55-30l1 105H24l-1-265h31l2 30c10-21 28-34 59-34zm-8 174c40 0 45-34 45-75s-6-73-45-74c-42 0-51 32-51 76 0 43 10 73 51 73" id="bU"/><path fill="#333" d="M87 75C49 33 22-17 22-94c0-76 28-126 65-167h31c-38 41-64 92-64 168S80 34 118 75H87" id="bV"/><path fill="#333" d="M33-261c38 41 65 92 65 168S71 34 33 75H2C39 34 66-17 66-93S39-220 2-261h31" id="bW"/><g id="w"><use transform="matrix(0.05,0,0,0.05,0,0)" xlink:href="#bN"/><use transform="matrix(0.05,0,0,0.05,9,0)" xlink:href="#bF"/><use transform="matrix(0.05,0,0,0.05,19,0)" xlink:href="#bA"/><use transform="matrix(0.05,0,0,0.05,24,0)" xlink:href="#bT"/><use transform="matrix(0.05,0,0,0.05,34,0)" xlink:href="#bU"/><use transform="matrix(0.05,0,0,0.05,44,0)" xlink:href="#bJ"/><use transform="matrix(0.05,0,0,0.05,56,0)" xlink:href="#bz"/><use transform="matrix(0.05,0,0,0.05,65,0)" xlink:href="#bK"/><use transform="matrix(0.05,0,0,0.05,70.95,0)" xlink:href="#bF"/><use transform="matrix(0.05,0,0,0.05,80.95,0)" xlink:href="#bF"/><use transform="matrix(0.05,0,0,0.05,90.95,0)" xlink:href="#bL"/><use transform="matrix(0.05,0,0,0.05,100.95,0)" xlink:href="#bV"/><use transform="matrix(0.05,0,0,0.05,106.9,0)" xlink:href="#bW"/></g><path fill="#333" d="M30-248c87 1 191-15 191 75 0 78-77 80-158 76V0H30v-248zm33 125c57 0 124 11 124-50 0-59-68-47-124-48v98" id="bX"/><path fill="#333" d="M30 0v-248h33v221h125V0H30" id="bY"/><g id="x"><use transform="matrix(0.05,0,0,0.05,0,0)" xlink:href="#bX"/><use transform="matrix(0.05,0,0,0.05,12,0)" xlink:href="#bP"/><use transform="matrix(0.05,0,0,0.05,22,0)" xlink:href="#bB"/><use transform="matrix(0.05,0,0,0.05,25.950000000000003,0)" xlink:href="#bL"/><use transform="matrix(0.05,0,0,0.05,35.95,0)" xlink:href="#bF"/><use transform="matrix(0.05,0,0,0.05,45.95,0)" xlink:href="#bG"/><use transform="matrix(0.05,0,0,0.05,49.900000000000006,0)" xlink:href="#bY"/><use transform="matrix(0.05,0,0,0.05,59.900000000000006,0)" xlink:href="#bB"/><use transform="matrix(0.05,0,0,0.05,63.85,0)" xlink:href="#bN"/><use transform="matrix(0.05,0,0,0.05,72.85000000000001,0)" xlink:href="#bA"/></g><g id="y"><use transform="matrix(0.05,0,0,0.05,0,0)" xlink:href="#bX"/><use transform="matrix(0.05,0,0,0.05,12,0)" xlink:href="#bP"/><use transform="matrix(0.05,0,0,0.05,22,0)" xlink:href="#bL"/><use transform="matrix(0.05,0,0,0.05,32,0)" xlink:href="#bF"/><use transform="matrix(0.05,0,0,0.05,42,0)" xlink:href="#bG"/><use transform="matrix(0.05,0,0,0.05,45.95,0)" xlink:href="#bY"/><use transform="matrix(0.05,0,0,0.05,55.95,0)" xlink:href="#bB"/><use transform="matrix(0.05,0,0,0.05,59.900000000000006,0)" xlink:href="#bN"/><use transform="matrix(0.05,0,0,0.05,68.9,0)" xlink:href="#bA"/></g><path fill="#333" d="M194 0L95-120 63-95V0H30v-248h33v124l119-124h40L117-140 236 0h-42" id="bZ"/><g id="z"><use transform="matrix(0.05,0,0,0.05,0,0)" xlink:href="#bZ"/><use transform="matrix(0.05,0,0,0.05,12,0)" xlink:href="#bF"/><use transform="matrix(0.05,0,0,0.05,22,0)" xlink:href="#bD"/></g><g id="A"><use transform="matrix(0.05,0,0,0.05,0,0)" xlink:href="#bU"/><use transform="matrix(0.05,0,0,0.05,10,0)" xlink:href="#bP"/><use transform="matrix(0.05,0,0,0.05,20,0)" xlink:href="#bL"/><use transform="matrix(0.05,0,0,0.05,30,0)" xlink:href="#bF"/><use transform="matrix(0.05,0,0,0.05,40,0)" xlink:href="#bG"/><use transform="matrix(0.05,0,0,0.05,43.95,0)" xlink:href="#bY"/><use transform="matrix(0.05,0,0,0.05,53.95,0)" xlink:href="#bB"/><use transform="matrix(0.05,0,0,0.05,57.900000000000006,0)" xlink:href="#bN"/><use transform="matrix(0.05,0,0,0.05,66.9,0)" xlink:href="#bA"/></g><path fill="#333" d="M18-100v-36l175-74v27L42-118l151 64v27" id="ca"/><path fill="#333" d="M18-27v-27l151-64-151-65v-27l175 74v36" id="cb"/><g id="B"><use transform="matrix(0.05,0,0,0.05,0,0)" xlink:href="#by"/><use transform="matrix(0.05,0,0,0.05,12,0)" xlink:href="#bK"/><use transform="matrix(0.05,0,0,0.05,17.95,0)" xlink:href="#bK"/><use transform="matrix(0.05,0,0,0.05,23.9,0)" xlink:href="#bP"/><use transform="matrix(0.05,0,0,0.05,33.9,0)" xlink:href="#bD"/><use transform="matrix(0.05,0,0,0.05,42.9,0)" xlink:href="#ca"/><use transform="matrix(0.05,0,0,0.05,53.400000000000006,0)" xlink:href="#bX"/><use transform="matrix(0.05,0,0,0.05,65.4,0)" xlink:href="#bP"/><use transform="matrix(0.05,0,0,0.05,75.4,0)" xlink:href="#bL"/><use transform="matrix(0.05,0,0,0.05,85.4,0)" xlink:href="#bF"/><use transform="matrix(0.05,0,0,0.05,95.4,0)" xlink:href="#bG"/><use transform="matrix(0.05,0,0,0.05,99.35000000000001,0)" xlink:href="#cb"/></g><path fill="#333" d="M27 0v-27h64v-190l-56 39v-29l58-41h29v221h61V0H27" id="cc"/><use transform="matrix(0.05,0,0,0.05,0,0)" xlink:href="#cc" id="D"/><g id="E"><use transform="matrix(0.05,0,0,0.05,0,0)" xlink:href="#bM"/><use transform="matrix(0.05,0,0,0.05,5.95,0)" xlink:href="#bM"/><use transform="matrix(0.05,0,0,0.05,11.9,0)" xlink:href="#cb"/></g><use transform="matrix(0.05,0,0,0.05,0,0)" xlink:href="#cc" id="F"/><path fill="#333" d="M197 0v-115H63V0H30v-248h33v105h134v-105h34V0h-34" id="cd"/><path fill="#333" d="M177-190C167-65 218 103 67 71c-23-6-38-20-44-43l32-5c15 47 100 32 89-28v-30C133-14 115 1 83 1 29 1 15-40 15-95c0-56 16-97 71-98 29-1 48 16 59 35 1-10 0-23 2-32h30zM94-22c36 0 50-32 50-73 0-42-14-75-50-75-39 0-46 34-46 75s6 73 46 73" id="ce"/><g id="G"><use transform="matrix(0.05,0,0,0.05,0,0)" xlink:href="#cd"/><use transform="matrix(0.05,0,0,0.05,12.950000000000001,0)" xlink:href="#bB"/><use transform="matrix(0.05,0,0,0.05,16.900000000000002,0)" xlink:href="#bK"/><use transform="matrix(0.05,0,0,0.05,22.85,0)" xlink:href="#bB"/><use transform="matrix(0.05,0,0,0.05,26.8,0)" xlink:href="#bL"/><use transform="matrix(0.05,0,0,0.05,36.8,0)" xlink:href="#ce"/></g><path fill="#333" d="M240 0l2-218c-23 76-54 145-80 218h-23L58-218 59 0H30v-248h44l77 211c21-75 51-140 76-211h43V0h-30" id="cf"/><g id="H"><use transform="matrix(0.05,0,0,0.05,0,0)" xlink:href="#cf"/><use transform="matrix(0.05,0,0,0.05,14.950000000000001,0)" xlink:href="#bF"/><use transform="matrix(0.05,0,0,0.05,24.950000000000003,0)" xlink:href="#bK"/><use transform="matrix(0.05,0,0,0.05,30.900000000000002,0)" xlink:href="#bz"/><use transform="matrix(0.05,0,0,0.05,39.900000000000006,0)" xlink:href="#bF"/><use transform="matrix(0.05,0,0,0.05,49.900000000000006,0)" xlink:href="#bL"/><use transform="matrix(0.05,0,0,0.05,59.900000000000006,0)" xlink:href="#bP"/><use transform="matrix(0.05,0,0,0.05,69.9,0)" xlink:href="#bK"/><use transform="matrix(0.05,0,0,0.05,75.85000000000001,0)" xlink:href="#bD"/><use transform="matrix(0.05,0,0,0.05,84.85000000000001,0)" xlink:href="#bX"/><use transform="matrix(0.05,0,0,0.05,96.85000000000001,0)" xlink:href="#bP"/><use transform="matrix(0.05,0,0,0.05,106.85000000000001,0)" xlink:href="#bL"/><use transform="matrix(0.05,0,0,0.05,116.85000000000001,0)" xlink:href="#bF"/><use transform="matrix(0.05,0,0,0.05,126.85000000000001,0)" xlink:href="#bG"/></g><path fill="#333" d="M63-220v92h138v28H63V0H30v-248h175v28H63" id="cg"/><g id="I"><use transform="matrix(0.05,0,0,0.05,0,0)" xlink:href="#bB"/><use transform="matrix(0.05,0,0,0.05,3.95,0)" xlink:href="#bN"/><use transform="matrix(0.05,0,0,0.05,12.949999999999998,0)" xlink:href="#cd"/><use transform="matrix(0.05,0,0,0.05,25.899999999999995,0)" xlink:href="#bB"/><use transform="matrix(0.05,0,0,0.05,29.849999999999994,0)" xlink:href="#bK"/><use transform="matrix(0.05,0,0,0.05,35.8,0)" xlink:href="#bF"/><use transform="matrix(0.05,0,0,0.05,45.8,0)" xlink:href="#bR"/><use transform="matrix(0.05,0,0,0.05,55.79999999999999,0)" xlink:href="#cg"/><use transform="matrix(0.05,0,0,0.05,66.75,0)" xlink:href="#bB"/><use transform="matrix(0.05,0,0,0.05,70.7,0)" xlink:href="#bF"/><use transform="matrix(0.05,0,0,0.05,80.7,0)" xlink:href="#bG"/><use transform="matrix(0.05,0,0,0.05,84.65,0)" xlink:href="#bR"/></g><g id="J"><use transform="matrix(0.05,0,0,0.05,0,0)" xlink:href="#bL"/><use transform="matrix(0.05,0,0,0.05,10,0)" xlink:href="#bP"/><use transform="matrix(0.05,0,0,0.05,20,0)" xlink:href="#bI"/><use transform="matrix(0.05,0,0,0.05,34.95,0)" xlink:href="#bF"/><use transform="matrix(0.05,0,0,0.05,44.95,0)" xlink:href="#cg"/><use transform="matrix(0.05,0,0,0.05,55.900000000000006,0)" xlink:href="#bB"/><use transform="matrix(0.05,0,0,0.05,59.85,0)" xlink:href="#bF"/><use transform="matrix(0.05,0,0,0.05,69.85000000000001,0)" xlink:href="#bG"/><use transform="matrix(0.05,0,0,0.05,73.80000000000001,0)" xlink:href="#bR"/></g><g id="K"><use transform="matrix(0.05,0,0,0.05,0,0)" xlink:href="#bJ"/><use transform="matrix(0.05,0,0,0.05,12,0)" xlink:href="#bA"/><use transform="matrix(0.05,0,0,0.05,17,0)" xlink:href="#bK"/><use transform="matrix(0.05,0,0,0.05,22.95,0)" xlink:href="#bB"/><use transform="matrix(0.05,0,0,0.05,26.899999999999995,0)" xlink:href="#bL"/><use transform="matrix(0.05,0,0,0.05,36.9,0)" xlink:href="#ce"/></g><path fill="#333" d="M101-234c-31-9-42 10-38 44h38v23H63V0H32v-167H5v-23h27c-7-52 17-82 69-68v24" id="ch"/><path fill="#333" d="M127-220V0H93v-220H8v-28h204v28h-85" id="ci"/><path fill="#333" d="M141 0L90-78 38 0H4l68-98-65-92h35l48 74 47-74h35l-64 92 68 98h-35" id="cj"/><g id="L"><use transform="matrix(0.05,0,0,0.05,0,0)" xlink:href="#ch"/><use transform="matrix(0.05,0,0,0.05,5,0)" xlink:href="#bG"/><use transform="matrix(0.05,0,0,0.05,8.95,0)" xlink:href="#bP"/><use transform="matrix(0.05,0,0,0.05,18.95,0)" xlink:href="#bC"/><use transform="matrix(0.05,0,0,0.05,27.950000000000003,0)" xlink:href="#bH"/><use transform="matrix(0.05,0,0,0.05,37.95,0)" xlink:href="#bK"/><use transform="matrix(0.05,0,0,0.05,43.900000000000006,0)" xlink:href="#ci"/><use transform="matrix(0.05,0,0,0.05,52.85,0)" xlink:href="#bF"/><use transform="matrix(0.05,0,0,0.05,62.85,0)" xlink:href="#cj"/><use transform="matrix(0.05,0,0,0.05,71.85000000000001,0)" xlink:href="#bA"/><use transform="matrix(0.05,0,0,0.05,76.85000000000001,0)" xlink:href="#cg"/><use transform="matrix(0.05,0,0,0.05,87.80000000000001,0)" xlink:href="#bB"/><use transform="matrix(0.05,0,0,0.05,91.75000000000001,0)" xlink:href="#bF"/><use transform="matrix(0.05,0,0,0.05,101.75000000000001,0)" xlink:href="#bG"/><use transform="matrix(0.05,0,0,0.05,105.7,0)" xlink:href="#bR"/></g><g id="M"><use transform="matrix(0.05,0,0,0.05,0,0)" xlink:href="#bz"/><use transform="matrix(0.05,0,0,0.05,9,0)" xlink:href="#bH"/><use transform="matrix(0.05,0,0,0.05,19,0)" xlink:href="#bN"/><use transform="matrix(0.05,0,0,0.05,28,0)" xlink:href="#bA"/><use transform="matrix(0.05,0,0,0.05,33,0)" xlink:href="#cg"/><use transform="matrix(0.05,0,0,0.05,43.95,0)" xlink:href="#bB"/><use transform="matrix(0.05,0,0,0.05,47.900000000000006,0)" xlink:href="#bF"/><use transform="matrix(0.05,0,0,0.05,57.900000000000006,0)" xlink:href="#bG"/><use transform="matrix(0.05,0,0,0.05,61.85,0)" xlink:href="#bR"/></g><g id="N"><use transform="matrix(0.05,0,0,0.05,0,0)" xlink:href="#bQ"/><use transform="matrix(0.05,0,0,0.05,12.950000000000001,0)" xlink:href="#bH"/><use transform="matrix(0.05,0,0,0.05,22.950000000000003,0)" xlink:href="#bB"/><use transform="matrix(0.05,0,0,0.05,26.900000000000002,0)" xlink:href="#bL"/></g><g id="O"><use transform="matrix(0.05,0,0,0.05,0,0)" xlink:href="#bA"/><use transform="matrix(0.05,0,0,0.05,5,0)" xlink:href="#bK"/><use transform="matrix(0.05,0,0,0.05,10.95,0)" xlink:href="#bP"/><use transform="matrix(0.05,0,0,0.05,20.95,0)" xlink:href="#bB"/><use transform="matrix(0.05,0,0,0.05,24.9,0)" xlink:href="#bA"/><use transform="matrix(0.05,0,0,0.05,29.899999999999995,0)" xlink:href="#cg"/><use transform="matrix(0.05,0,0,0.05,40.85,0)" xlink:href="#bB"/><use transform="matrix(0.05,0,0,0.05,44.800000000000004,0)" xlink:href="#bF"/><use transform="matrix(0.05,0,0,0.05,54.800000000000004,0)" xlink:href="#bG"/><use transform="matrix(0.05,0,0,0.05,58.75,0)" xlink:href="#bR"/></g><path fill="#333" d="M33 0v-248h34V0H33" id="ck"/><g id="P"><use transform="matrix(0.05,0,0,0.05,0,0)" xlink:href="#ck"/><use transform="matrix(0.05,0,0,0.05,5,0)" xlink:href="#bL"/><use transform="matrix(0.05,0,0,0.05,15,0)" xlink:href="#bA"/><use transform="matrix(0.05,0,0,0.05,20,0)" xlink:href="#bF"/><use transform="matrix(0.05,0,0,0.05,30,0)" xlink:href="#ce"/><use transform="matrix(0.05,0,0,0.05,40,0)" xlink:href="#bF"/><use transform="matrix(0.05,0,0,0.05,50,0)" xlink:href="#bK"/></g><path fill="#333" d="M143 0L79-87 56-68V0H24v-261h32v163l83-92h37l-77 82L181 0h-38" id="cl"/><g id="Q"><use transform="matrix(0.05,0,0,0.05,0,0)" xlink:href="#bP"/><use transform="matrix(0.05,0,0,0.05,10,0)" xlink:href="#bA"/><use transform="matrix(0.05,0,0,0.05,15,0)" xlink:href="#bA"/><use transform="matrix(0.05,0,0,0.05,20,0)" xlink:href="#bP"/><use transform="matrix(0.05,0,0,0.05,30,0)" xlink:href="#bz"/><use transform="matrix(0.05,0,0,0.05,39,0)" xlink:href="#cl"/><use transform="matrix(0.05,0,0,0.05,48,0)" xlink:href="#cg"/><use transform="matrix(0.05,0,0,0.05,58.95,0)" xlink:href="#bB"/><use transform="matrix(0.05,0,0,0.05,62.900000000000006,0)" xlink:href="#bF"/><use transform="matrix(0.05,0,0,0.05,72.9,0)" xlink:href="#bG"/><use transform="matrix(0.05,0,0,0.05,76.85000000000001,0)" xlink:href="#bR"/></g><g id="R"><use transform="matrix(0.05,0,0,0.05,0,0)" xlink:href="#bR"/><use transform="matrix(0.05,0,0,0.05,10,0)" xlink:href="#bF"/><use transform="matrix(0.05,0,0,0.05,20,0)" xlink:href="#ch"/><use transform="matrix(0.05,0,0,0.05,25,0)" xlink:href="#bF"/><use transform="matrix(0.05,0,0,0.05,35,0)" xlink:href="#bL"/><use transform="matrix(0.05,0,0,0.05,45,0)" xlink:href="#bN"/><use transform="matrix(0.05,0,0,0.05,54,0)" xlink:href="#bF"/><use transform="matrix(0.05,0,0,0.05,64,0)" xlink:href="#cg"/><use transform="matrix(0.05,0,0,0.05,74.95,0)" xlink:href="#bB"/><use transform="matrix(0.05,0,0,0.05,78.9,0)" xlink:href="#bF"/><use transform="matrix(0.05,0,0,0.05,88.9,0)" xlink:href="#bG"/><use transform="matrix(0.05,0,0,0.05,92.85000000000001,0)" xlink:href="#bR"/></g><path fill="#333" d="M106-169C34-169 62-67 57 0H25v-261h32l-1 103c12-21 28-36 61-36 89 0 53 116 60 194h-32v-121c2-32-8-49-39-48" id="cm"/><g id="S"><use transform="matrix(0.05,0,0,0.05,0,0)" xlink:href="#bU"/><use transform="matrix(0.05,0,0,0.05,10,0)" xlink:href="#bT"/><use transform="matrix(0.05,0,0,0.05,20,0)" xlink:href="#bK"/><use transform="matrix(0.05,0,0,0.05,25.950000000000003,0)" xlink:href="#bz"/><use transform="matrix(0.05,0,0,0.05,34.95,0)" xlink:href="#cm"/><use transform="matrix(0.05,0,0,0.05,44.95,0)" xlink:href="#bP"/><use transform="matrix(0.05,0,0,0.05,54.95,0)" xlink:href="#bN"/><use transform="matrix(0.05,0,0,0.05,63.95,0)" xlink:href="#bF"/><use transform="matrix(0.05,0,0,0.05,73.95,0)" xlink:href="#cf"/><use transform="matrix(0.05,0,0,0.05,88.9,0)" xlink:href="#bF"/><use transform="matrix(0.05,0,0,0.05,98.9,0)" xlink:href="#bK"/><use transform="matrix(0.05,0,0,0.05,104.85000000000001,0)" xlink:href="#bz"/><use transform="matrix(0.05,0,0,0.05,113.85000000000001,0)" xlink:href="#bF"/><use transform="matrix(0.05,0,0,0.05,123.85000000000001,0)" xlink:href="#bL"/><use transform="matrix(0.05,0,0,0.05,133.85000000000002,0)" xlink:href="#bP"/><use transform="matrix(0.05,0,0,0.05,143.85000000000002,0)" xlink:href="#bK"/><use transform="matrix(0.05,0,0,0.05,149.8,0)" xlink:href="#bD"/><use transform="matrix(0.05,0,0,0.05,158.8,0)" xlink:href="#bV"/><use transform="matrix(0.05,0,0,0.05,164.75,0)" xlink:href="#bz"/><use transform="matrix(0.05,0,0,0.05,173.75,0)" xlink:href="#bH"/><use transform="matrix(0.05,0,0,0.05,183.75,0)" xlink:href="#bN"/><use transform="matrix(0.05,0,0,0.05,192.75,0)" xlink:href="#bA"/></g><path fill="#333" d="M33-154v-36h34v36H33zM33 0v-36h34V0H33" id="cn"/><use transform="matrix(0.05,0,0,0.05,0,0)" xlink:href="#cn" id="T"/><g id="U"><use transform="matrix(0.05,0,0,0.05,0,0)" xlink:href="#bQ"/><use transform="matrix(0.05,0,0,0.05,12.950000000000001,0)" xlink:href="#bH"/><use transform="matrix(0.05,0,0,0.05,22.950000000000003,0)" xlink:href="#bB"/><use transform="matrix(0.05,0,0,0.05,26.900000000000002,0)" xlink:href="#bL"/><use transform="matrix(0.05,0,0,0.05,36.900000000000006,0)" xlink:href="#bW"/></g><g id="V"><use transform="matrix(0.05,0,0,0.05,0,0)" xlink:href="#bC"/><use transform="matrix(0.05,0,0,0.05,9,0)" xlink:href="#bH"/><use transform="matrix(0.05,0,0,0.05,19,0)" xlink:href="#bB"/><use transform="matrix(0.05,0,0,0.05,22.95,0)" xlink:href="#bR"/></g><g id="W"><use transform="matrix(0.05,0,0,0.05,0,0)" xlink:href="#bN"/><use transform="matrix(0.05,0,0,0.05,9,0)" xlink:href="#bF"/><use transform="matrix(0.05,0,0,0.05,19,0)" xlink:href="#bA"/><use transform="matrix(0.05,0,0,0.05,24,0)" xlink:href="#bT"/><use transform="matrix(0.05,0,0,0.05,34,0)" xlink:href="#bU"/><use transform="matrix(0.05,0,0,0.05,44,0)" xlink:href="#bX"/><use transform="matrix(0.05,0,0,0.05,56,0)" xlink:href="#bP"/><use transform="matrix(0.05,0,0,0.05,66,0)" xlink:href="#bL"/><use transform="matrix(0.05,0,0,0.05,76,0)" xlink:href="#bF"/><use transform="matrix(0.05,0,0,0.05,86,0)" xlink:href="#bG"/><use transform="matrix(0.05,0,0,0.05,89.95,0)" xlink:href="#bV"/><use transform="matrix(0.05,0,0,0.05,95.9,0)" xlink:href="#bI"/><use transform="matrix(0.05,0,0,0.05,110.85000000000001,0)" xlink:href="#bF"/><use transform="matrix(0.05,0,0,0.05,120.85000000000001,0)" xlink:href="#bK"/><use transform="matrix(0.05,0,0,0.05,126.80000000000001,0)" xlink:href="#bz"/><use transform="matrix(0.05,0,0,0.05,135.8,0)" xlink:href="#bF"/><use transform="matrix(0.05,0,0,0.05,145.8,0)" xlink:href="#bL"/><use transform="matrix(0.05,0,0,0.05,155.8,0)" xlink:href="#bP"/><use transform="matrix(0.05,0,0,0.05,165.8,0)" xlink:href="#bK"/><use transform="matrix(0.05,0,0,0.05,171.75,0)" xlink:href="#bD"/><use transform="matrix(0.05,0,0,0.05,180.75,0)" xlink:href="#cn"/></g><g id="X"><use transform="matrix(0.05,0,0,0.05,0,0)" xlink:href="#cf"/><use transform="matrix(0.05,0,0,0.05,14.950000000000001,0)" xlink:href="#bF"/><use transform="matrix(0.05,0,0,0.05,24.950000000000003,0)" xlink:href="#bK"/><use transform="matrix(0.05,0,0,0.05,30.900000000000002,0)" xlink:href="#bz"/><use transform="matrix(0.05,0,0,0.05,39.900000000000006,0)" xlink:href="#bF"/><use transform="matrix(0.05,0,0,0.05,49.900000000000006,0)" xlink:href="#bL"/><use transform="matrix(0.05,0,0,0.05,59.900000000000006,0)" xlink:href="#bP"/><use transform="matrix(0.05,0,0,0.05,69.9,0)" xlink:href="#bK"/><use transform="matrix(0.05,0,0,0.05,75.85000000000001,0)" xlink:href="#bD"/><use transform="matrix(0.05,0,0,0.05,84.85000000000001,0)" xlink:href="#bW"/></g><g id="Y"><use transform="matrix(0.05,0,0,0.05,0,0)" xlink:href="#bX"/><use transform="matrix(0.05,0,0,0.05,12,0)" xlink:href="#bP"/><use transform="matrix(0.05,0,0,0.05,22,0)" xlink:href="#bL"/><use transform="matrix(0.05,0,0,0.05,32,0)" xlink:href="#bF"/><use transform="matrix(0.05,0,0,0.05,42,0)" xlink:href="#bG"/></g><path fill="#333" d="M206 0h-36l-40-164L89 0H53L-1-190h32L70-26l43-164h34l41 164 42-164h31" id="co"/><g id="Z"><use transform="matrix(0.05,0,0,0.05,0,0)" xlink:href="#co"/><use transform="matrix(0.05,0,0,0.05,12.950000000000001,0)" xlink:href="#bB"/><use transform="matrix(0.05,0,0,0.05,16.900000000000002,0)" xlink:href="#bR"/><use transform="matrix(0.05,0,0,0.05,26.900000000000002,0)" xlink:href="#bA"/><use transform="matrix(0.05,0,0,0.05,31.900000000000002,0)" xlink:href="#cm"/></g><path fill="#333" d="M30-248c118-7 216 8 213 122C240-48 200 0 122 0H30v-248zM63-27c89 8 146-16 146-99s-60-101-146-95v194" id="cp"/><g id="aa"><use transform="matrix(0.05,0,0,0.05,0,0)" xlink:href="#cp"/><use transform="matrix(0.05,0,0,0.05,12.950000000000001,0)" xlink:href="#bU"/><use transform="matrix(0.05,0,0,0.05,22.950000000000003,0)" xlink:href="#bB"/></g><g id="ab"><use transform="matrix(0.05,0,0,0.05,0,0)" xlink:href="#cm"/><use transform="matrix(0.05,0,0,0.05,10,0)" xlink:href="#bF"/><use transform="matrix(0.05,0,0,0.05,20,0)" xlink:href="#bB"/><use transform="matrix(0.05,0,0,0.05,23.95,0)" xlink:href="#ce"/><use transform="matrix(0.05,0,0,0.05,33.95,0)" xlink:href="#cm"/><use transform="matrix(0.05,0,0,0.05,43.95,0)" xlink:href="#bA"/></g><g id="ac"><use transform="matrix(0.05,0,0,0.05,0,0)" xlink:href="#bU"/><use transform="matrix(0.05,0,0,0.05,10,0)" xlink:href="#bH"/><use transform="matrix(0.05,0,0,0.05,20,0)" xlink:href="#bN"/><use transform="matrix(0.05,0,0,0.05,29,0)" xlink:href="#bB"/><use transform="matrix(0.05,0,0,0.05,32.95,0)" xlink:href="#bA"/><use transform="matrix(0.05,0,0,0.05,37.95,0)" xlink:href="#bB"/><use transform="matrix(0.05,0,0,0.05,41.900000000000006,0)" xlink:href="#bH"/><use transform="matrix(0.05,0,0,0.05,51.900000000000006,0)" xlink:href="#bL"/></g><g id="ad"><use transform="matrix(0.05,0,0,0.05,0,0)" xlink:href="#bX"/><use transform="matrix(0.05,0,0,0.05,12,0)" xlink:href="#bH"/><use transform="matrix(0.05,0,0,0.05,22,0)" xlink:href="#bN"/><use transform="matrix(0.05,0,0,0.05,31,0)" xlink:href="#bB"/><use transform="matrix(0.05,0,0,0.05,34.95,0)" xlink:href="#bA"/><use transform="matrix(0.05,0,0,0.05,39.95,0)" xlink:href="#bB"/><use transform="matrix(0.05,0,0,0.05,43.900000000000006,0)" xlink:href="#bH"/><use transform="matrix(0.05,0,0,0.05,53.900000000000006,0)" xlink:href="#bL"/></g><g id="ae"><use transform="matrix(0.05,0,0,0.05,0,0)" xlink:href="#bN"/><use transform="matrix(0.05,0,0,0.05,9,0)" xlink:href="#bF"/><use transform="matrix(0.05,0,0,0.05,19,0)" xlink:href="#bA"/><use transform="matrix(0.05,0,0,0.05,24,0)" xlink:href="#bT"/><use transform="matrix(0.05,0,0,0.05,34,0)" xlink:href="#bU"/><use transform="matrix(0.05,0,0,0.05,44,0)" xlink:href="#bX"/><use transform="matrix(0.05,0,0,0.05,56,0)" xlink:href="#bP"/><use transform="matrix(0.05,0,0,0.05,66,0)" xlink:href="#bB"/><use transform="matrix(0.05,0,0,0.05,69.95,0)" xlink:href="#bL"/><use transform="matrix(0.05,0,0,0.05,79.95,0)" xlink:href="#bF"/><use transform="matrix(0.05,0,0,0.05,89.95,0)" xlink:href="#bG"/><use transform="matrix(0.05,0,0,0.05,93.9,0)" xlink:href="#bV"/><use transform="matrix(0.05,0,0,0.05,99.85000000000001,0)" xlink:href="#bW"/></g><path fill="#333" d="M143 4C61 4 22-44 18-125c-5-107 100-154 193-111 17 8 29 25 37 43l-32 9c-13-25-37-40-76-40-61 0-88 39-88 99 0 61 29 100 91 101 35 0 62-11 79-27v-45h-74v-28h105v86C228-13 192 4 143 4" id="cq"/><g id="af"><use transform="matrix(0.05,0,0,0.05,0,0)" xlink:href="#cq"/><use transform="matrix(0.05,0,0,0.05,14,0)" xlink:href="#bP"/><use transform="matrix(0.05,0,0,0.05,24,0)" xlink:href="#bI"/><use transform="matrix(0.05,0,0,0.05,38.95,0)" xlink:href="#bF"/><use transform="matrix(0.05,0,0,0.05,48.95,0)" xlink:href="#bX"/><use transform="matrix(0.05,0,0,0.05,60.95,0)" xlink:href="#bP"/><use transform="matrix(0.05,0,0,0.05,70.95,0)" xlink:href="#bL"/><use transform="matrix(0.05,0,0,0.05,80.95,0)" xlink:href="#bF"/><use transform="matrix(0.05,0,0,0.05,90.95,0)" xlink:href="#bG"/></g><path fill="#333" d="M190 0L58-211 59 0H30v-248h39L202-35l-2-213h31V0h-41" id="cr"/><g id="ag"><use transform="matrix(0.05,0,0,0.05,0,0)" xlink:href="#bB"/><use transform="matrix(0.05,0,0,0.05,3.95,0)" xlink:href="#bN"/><use transform="matrix(0.05,0,0,0.05,12.949999999999998,0)" xlink:href="#cr"/><use transform="matrix(0.05,0,0,0.05,25.899999999999995,0)" xlink:href="#bF"/><use transform="matrix(0.05,0,0,0.05,35.9,0)" xlink:href="#co"/><use transform="matrix(0.05,0,0,0.05,48.85,0)" xlink:href="#cq"/><use transform="matrix(0.05,0,0,0.05,62.85,0)" xlink:href="#bP"/><use transform="matrix(0.05,0,0,0.05,72.85,0)" xlink:href="#bI"/><use transform="matrix(0.05,0,0,0.05,87.8,0)" xlink:href="#bF"/></g><g id="ah"><use transform="matrix(0.05,0,0,0.05,0,0)" xlink:href="#bN"/><use transform="matrix(0.05,0,0,0.05,9,0)" xlink:href="#cm"/><use transform="matrix(0.05,0,0,0.05,19,0)" xlink:href="#bH"/><use transform="matrix(0.05,0,0,0.05,29,0)" xlink:href="#co"/><use transform="matrix(0.05,0,0,0.05,41.95,0)" xlink:href="#bX"/><use transform="matrix(0.05,0,0,0.05,53.95,0)" xlink:href="#bK"/><use transform="matrix(0.05,0,0,0.05,59.900000000000006,0)" xlink:href="#bH"/><use transform="matrix(0.05,0,0,0.05,69.9,0)" xlink:href="#ce"/><use transform="matrix(0.05,0,0,0.05,79.9,0)" xlink:href="#bK"/><use transform="matrix(0.05,0,0,0.05,85.85000000000001,0)" xlink:href="#bF"/><use transform="matrix(0.05,0,0,0.05,95.85000000000001,0)" xlink:href="#bN"/><use transform="matrix(0.05,0,0,0.05,104.85000000000001,0)" xlink:href="#bN"/><use transform="matrix(0.05,0,0,0.05,113.85000000000001,0)" xlink:href="#bV"/><use transform="matrix(0.05,0,0,0.05,119.80000000000001,0)" xlink:href="#ce"/><use transform="matrix(0.05,0,0,0.05,129.8,0)" xlink:href="#bP"/><use transform="matrix(0.05,0,0,0.05,139.8,0)" xlink:href="#bI"/><use transform="matrix(0.05,0,0,0.05,154.75,0)" xlink:href="#bF"/><use transform="matrix(0.05,0,0,0.05,164.75,0)" xlink:href="#cn"/></g><g id="ai"><use transform="matrix(0.05,0,0,0.05,0,0)" xlink:href="#cq"/><use transform="matrix(0.05,0,0,0.05,14,0)" xlink:href="#bP"/><use transform="matrix(0.05,0,0,0.05,24,0)" xlink:href="#bI"/><use transform="matrix(0.05,0,0,0.05,38.95,0)" xlink:href="#bF"/><use transform="matrix(0.05,0,0,0.05,48.95,0)" xlink:href="#bW"/></g><g id="aj"><use transform="matrix(0.05,0,0,0.05,0,0)" xlink:href="#cq"/><use transform="matrix(0.05,0,0,0.05,14,0)" xlink:href="#bP"/><use transform="matrix(0.05,0,0,0.05,24,0)" xlink:href="#bI"/><use transform="matrix(0.05,0,0,0.05,38.95,0)" xlink:href="#bF"/><use transform="matrix(0.05,0,0,0.05,48.95,0)" xlink:href="#cp"/><use transform="matrix(0.05,0,0,0.05,61.900000000000006,0)" xlink:href="#bP"/><use transform="matrix(0.05,0,0,0.05,71.9,0)" xlink:href="#bA"/><use transform="matrix(0.05,0,0,0.05,76.9,0)" xlink:href="#bP"/></g><g id="ak"><use transform="matrix(0.05,0,0,0.05,0,0)" xlink:href="#bN"/><use transform="matrix(0.05,0,0,0.05,9,0)" xlink:href="#bA"/><use transform="matrix(0.05,0,0,0.05,14,0)" xlink:href="#bP"/><use transform="matrix(0.05,0,0,0.05,24,0)" xlink:href="#bK"/><use transform="matrix(0.05,0,0,0.05,29.950000000000003,0)" xlink:href="#bA"/><use transform="matrix(0.05,0,0,0.05,34.95,0)" xlink:href="#bO"/><use transform="matrix(0.05,0,0,0.05,46.95,0)" xlink:href="#bT"/><use transform="matrix(0.05,0,0,0.05,56.95,0)" xlink:href="#bA"/><use transform="matrix(0.05,0,0,0.05,61.95,0)" xlink:href="#bA"/><use transform="matrix(0.05,0,0,0.05,66.95,0)" xlink:href="#bH"/><use transform="matrix(0.05,0,0,0.05,76.95,0)" xlink:href="#bL"/><use transform="matrix(0.05,0,0,0.05,86.95,0)" xlink:href="#bV"/><use transform="matrix(0.05,0,0,0.05,92.9,0)" xlink:href="#ce"/><use transform="matrix(0.05,0,0,0.05,102.9,0)" xlink:href="#bP"/><use transform="matrix(0.05,0,0,0.05,112.9,0)" xlink:href="#bI"/><use transform="matrix(0.05,0,0,0.05,127.85000000000001,0)" xlink:href="#bF"/><use transform="matrix(0.05,0,0,0.05,137.85000000000002,0)" xlink:href="#cn"/></g><g id="al"><use transform="matrix(0.05,0,0,0.05,0,0)" xlink:href="#by"/><use transform="matrix(0.05,0,0,0.05,12,0)" xlink:href="#bz"/><use transform="matrix(0.05,0,0,0.05,21,0)" xlink:href="#bA"/><use transform="matrix(0.05,0,0,0.05,26,0)" xlink:href="#bB"/><use transform="matrix(0.05,0,0,0.05,29.950000000000003,0)" xlink:href="#bC"/><use transform="matrix(0.05,0,0,0.05,38.95,0)" xlink:href="#bB"/><use transform="matrix(0.05,0,0,0.05,42.900000000000006,0)" xlink:href="#bA"/><use transform="matrix(0.05,0,0,0.05,47.900000000000006,0)" xlink:href="#bD"/><use transform="matrix(0.05,0,0,0.05,56.900000000000006,0)" xlink:href="#ca"/><use transform="matrix(0.05,0,0,0.05,67.4,0)" xlink:href="#cd"/><use transform="matrix(0.05,0,0,0.05,80.35000000000001,0)" xlink:href="#bB"/><use transform="matrix(0.05,0,0,0.05,84.30000000000001,0)" xlink:href="#bK"/><use transform="matrix(0.05,0,0,0.05,90.25000000000001,0)" xlink:href="#bB"/><use transform="matrix(0.05,0,0,0.05,94.20000000000002,0)" xlink:href="#bL"/><use transform="matrix(0.05,0,0,0.05,104.2,0)" xlink:href="#ce"/></g><g id="am"><use transform="matrix(0.05,0,0,0.05,0,0)" xlink:href="#bJ"/><use transform="matrix(0.05,0,0,0.05,12,0)" xlink:href="#bz"/><use transform="matrix(0.05,0,0,0.05,21,0)" xlink:href="#bK"/><use transform="matrix(0.05,0,0,0.05,26.950000000000003,0)" xlink:href="#bF"/><use transform="matrix(0.05,0,0,0.05,36.95,0)" xlink:href="#bF"/><use transform="matrix(0.05,0,0,0.05,46.95,0)" xlink:href="#bL"/><use transform="matrix(0.05,0,0,0.05,56.95,0)" xlink:href="#cb"/></g><g id="an"><use transform="matrix(0.05,0,0,0.05,0,0)" xlink:href="#bN"/><use transform="matrix(0.05,0,0,0.05,9,0)" xlink:href="#bF"/><use transform="matrix(0.05,0,0,0.05,19,0)" xlink:href="#bA"/><use transform="matrix(0.05,0,0,0.05,24,0)" xlink:href="#bT"/><use transform="matrix(0.05,0,0,0.05,34,0)" xlink:href="#bU"/><use transform="matrix(0.05,0,0,0.05,44,0)" xlink:href="#bX"/><use transform="matrix(0.05,0,0,0.05,56,0)" xlink:href="#bP"/><use transform="matrix(0.05,0,0,0.05,66,0)" xlink:href="#bL"/><use transform="matrix(0.05,0,0,0.05,76,0)" xlink:href="#bF"/><use transform="matrix(0.05,0,0,0.05,86,0)" xlink:href="#bG"/><use transform="matrix(0.05,0,0,0.05,89.95,0)" xlink:href="#bV"/><use transform="matrix(0.05,0,0,0.05,95.9,0)" xlink:href="#ce"/><use transform="matrix(0.05,0,0,0.05,105.9,0)" xlink:href="#bP"/><use transform="matrix(0.05,0,0,0.05,115.9,0)" xlink:href="#bI"/><use transform="matrix(0.05,0,0,0.05,130.85,0)" xlink:href="#bF"/><use transform="matrix(0.05,0,0,0.05,140.85,0)" xlink:href="#cn"/></g><g id="ao"><use transform="matrix(0.05,0,0,0.05,0,0)" xlink:href="#bR"/><use transform="matrix(0.05,0,0,0.05,10,0)" xlink:href="#bF"/><use transform="matrix(0.05,0,0,0.05,20,0)" xlink:href="#bG"/><use transform="matrix(0.05,0,0,0.05,23.95,0)" xlink:href="#bF"/><use transform="matrix(0.05,0,0,0.05,33.95,0)" xlink:href="#bA"/><use transform="matrix(0.05,0,0,0.05,38.95,0)" xlink:href="#bF"/><use transform="matrix(0.05,0,0,0.05,48.95,0)" xlink:href="#bO"/><use transform="matrix(0.05,0,0,0.05,60.95,0)" xlink:href="#bT"/><use transform="matrix(0.05,0,0,0.05,70.95,0)" xlink:href="#bA"/><use transform="matrix(0.05,0,0,0.05,75.95,0)" xlink:href="#bA"/><use transform="matrix(0.05,0,0,0.05,80.95,0)" xlink:href="#bH"/><use transform="matrix(0.05,0,0,0.05,90.95,0)" xlink:href="#bL"/><use transform="matrix(0.05,0,0,0.05,100.95,0)" xlink:href="#bV"/><use transform="matrix(0.05,0,0,0.05,106.9,0)" xlink:href="#ce"/><use transform="matrix(0.05,0,0,0.05,116.9,0)" xlink:href="#bP"/><use transform="matrix(0.05,0,0,0.05,126.9,0)" xlink:href="#bI"/><use transform="matrix(0.05,0,0,0.05,141.85,0)" xlink:href="#bF"/><use transform="matrix(0.05,0,0,0.05,151.85,0)" xlink:href="#cn"/></g><g id="ap"><use transform="matrix(0.05,0,0,0.05,0,0)" xlink:href="#cq"/><use transform="matrix(0.05,0,0,0.05,14,0)" xlink:href="#bP"/><use transform="matrix(0.05,0,0,0.05,24,0)" xlink:href="#bI"/><use transform="matrix(0.05,0,0,0.05,38.95,0)" xlink:href="#bF"/></g><g id="aq"><use transform="matrix(0.05,0,0,0.05,0,0)" xlink:href="#cm"/><use transform="matrix(0.05,0,0,0.05,10,0)" xlink:href="#bP"/><use transform="matrix(0.05,0,0,0.05,20,0)" xlink:href="#bN"/><use transform="matrix(0.05,0,0,0.05,29,0)" xlink:href="#bX"/><use transform="matrix(0.05,0,0,0.05,41,0)" xlink:href="#bK"/><use transform="matrix(0.05,0,0,0.05,46.95,0)" xlink:href="#bH"/><use transform="matrix(0.05,0,0,0.05,56.95,0)" xlink:href="#ce"/><use transform="matrix(0.05,0,0,0.05,66.95,0)" xlink:href="#bK"/><use transform="matrix(0.05,0,0,0.05,72.9,0)" xlink:href="#bF"/><use transform="matrix(0.05,0,0,0.05,82.9,0)" xlink:href="#bN"/><use transform="matrix(0.05,0,0,0.05,91.9,0)" xlink:href="#bN"/></g><g id="ar"><use transform="matrix(0.05,0,0,0.05,0,0)" xlink:href="#bG"/><use transform="matrix(0.05,0,0,0.05,3.95,0)" xlink:href="#bH"/><use transform="matrix(0.05,0,0,0.05,13.949999999999998,0)" xlink:href="#bP"/><use transform="matrix(0.05,0,0,0.05,23.95,0)" xlink:href="#bR"/><use transform="matrix(0.05,0,0,0.05,33.95,0)" xlink:href="#bX"/><use transform="matrix(0.05,0,0,0.05,45.95,0)" xlink:href="#bK"/><use transform="matrix(0.05,0,0,0.05,51.900000000000006,0)" xlink:href="#bH"/><use transform="matrix(0.05,0,0,0.05,61.900000000000006,0)" xlink:href="#ce"/><use transform="matrix(0.05,0,0,0.05,71.9,0)" xlink:href="#bK"/><use transform="matrix(0.05,0,0,0.05,77.85000000000001,0)" xlink:href="#bF"/><use transform="matrix(0.05,0,0,0.05,87.85000000000001,0)" xlink:href="#bN"/><use transform="matrix(0.05,0,0,0.05,96.85000000000001,0)" xlink:href="#bN"/><use transform="matrix(0.05,0,0,0.05,105.85000000000001,0)" xlink:href="#bV"/><use transform="matrix(0.05,0,0,0.05,111.80000000000001,0)" xlink:href="#bW"/></g><g id="as"><use transform="matrix(0.05,0,0,0.05,0,0)" xlink:href="#bL"/><use transform="matrix(0.05,0,0,0.05,10,0)" xlink:href="#bF"/><use transform="matrix(0.05,0,0,0.05,20,0)" xlink:href="#co"/><use transform="matrix(0.05,0,0,0.05,32.95,0)" xlink:href="#cq"/><use transform="matrix(0.05,0,0,0.05,46.95,0)" xlink:href="#bP"/><use transform="matrix(0.05,0,0,0.05,56.95,0)" xlink:href="#bI"/><use transform="matrix(0.05,0,0,0.05,71.9,0)" xlink:href="#bF"/><use transform="matrix(0.05,0,0,0.05,81.9,0)" xlink:href="#bV"/><use transform="matrix(0.05,0,0,0.05,87.85000000000001,0)" xlink:href="#bW"/></g><g id="at"><use transform="matrix(0.05,0,0,0.05,0,0)" xlink:href="#bG"/><use transform="matrix(0.05,0,0,0.05,3.95,0)" xlink:href="#bH"/><use transform="matrix(0.05,0,0,0.05,13.949999999999998,0)" xlink:href="#bP"/><use transform="matrix(0.05,0,0,0.05,23.95,0)" xlink:href="#bR"/><use transform="matrix(0.05,0,0,0.05,33.95,0)" xlink:href="#cq"/><use transform="matrix(0.05,0,0,0.05,47.95,0)" xlink:href="#bP"/><use transform="matrix(0.05,0,0,0.05,57.95,0)" xlink:href="#bI"/><use transform="matrix(0.05,0,0,0.05,72.9,0)" xlink:href="#bF"/><use transform="matrix(0.05,0,0,0.05,82.9,0)" xlink:href="#bV"/><use transform="matrix(0.05,0,0,0.05,88.85000000000001,0)" xlink:href="#cq"/><use transform="matrix(0.05,0,0,0.05,102.85000000000001,0)" xlink:href="#bP"/><use transform="matrix(0.05,0,0,0.05,112.85000000000001,0)" xlink:href="#bI"/><use transform="matrix(0.05,0,0,0.05,127.80000000000001,0)" xlink:href="#bF"/><use transform="matrix(0.05,0,0,0.05,137.8,0)" xlink:href="#cp"/><use transform="matrix(0.05,0,0,0.05,150.75,0)" xlink:href="#bP"/><use transform="matrix(0.05,0,0,0.05,160.75,0)" xlink:href="#bA"/><use transform="matrix(0.05,0,0,0.05,165.75,0)" xlink:href="#bP"/><use transform="matrix(0.05,0,0,0.05,175.75,0)" xlink:href="#bW"/></g><g id="au"><use transform="matrix(0.05,0,0,0.05,0,0)" xlink:href="#bR"/><use transform="matrix(0.05,0,0,0.05,10,0)" xlink:href="#bF"/><use transform="matrix(0.05,0,0,0.05,20,0)" xlink:href="#bG"/><use transform="matrix(0.05,0,0,0.05,23.95,0)" xlink:href="#bF"/><use transform="matrix(0.05,0,0,0.05,33.95,0)" xlink:href="#bA"/><use transform="matrix(0.05,0,0,0.05,38.95,0)" xlink:href="#bF"/><use transform="matrix(0.05,0,0,0.05,48.95,0)" xlink:href="#cq"/><use transform="matrix(0.05,0,0,0.05,62.95,0)" xlink:href="#bP"/><use transform="matrix(0.05,0,0,0.05,72.95,0)" xlink:href="#bI"/><use transform="matrix(0.05,0,0,0.05,87.9,0)" xlink:href="#bF"/><use transform="matrix(0.05,0,0,0.05,97.9,0)" xlink:href="#bV"/><use transform="matrix(0.05,0,0,0.05,103.85000000000001,0)" xlink:href="#cq"/><use transform="matrix(0.05,0,0,0.05,117.85000000000001,0)" xlink:href="#bP"/><use transform="matrix(0.05,0,0,0.05,127.85000000000001,0)" xlink:href="#bI"/><use transform="matrix(0.05,0,0,0.05,142.8,0)" xlink:href="#bF"/><use transform="matrix(0.05,0,0,0.05,152.8,0)" xlink:href="#cp"/><use transform="matrix(0.05,0,0,0.05,165.75,0)" xlink:href="#bP"/><use transform="matrix(0.05,0,0,0.05,175.75,0)" xlink:href="#bA"/><use transform="matrix(0.05,0,0,0.05,180.75,0)" xlink:href="#bP"/><use transform="matrix(0.05,0,0,0.05,190.75,0)" xlink:href="#bW"/></g><path fill="#333" d="M68-38c1 34 0 65-14 84H32c9-13 17-26 17-46H33v-38h35" id="cs"/><path fill="#333" d="M33 0v-38h34V0H33" id="ct"/><path fill="#333" d="M80-196l47-18 7 23-49 13 32 44-20 13-27-46-27 45-21-12 33-44-49-13 8-23 47 19-2-53h23" id="cu"/><g id="av"><use transform="matrix(0.05,0,0,0.05,0,0)" xlink:href="#cc"/><use transform="matrix(0.05,0,0,0.05,10,0)" xlink:href="#cs"/><use transform="matrix(0.05,0,0,0.05,15,0)" xlink:href="#ct"/><use transform="matrix(0.05,0,0,0.05,20,0)" xlink:href="#ct"/><use transform="matrix(0.05,0,0,0.05,25,0)" xlink:href="#cu"/></g><g id="aw"><use transform="matrix(0.05,0,0,0.05,0,0)" xlink:href="#cf"/><use transform="matrix(0.05,0,0,0.05,14.950000000000001,0)" xlink:href="#bF"/><use transform="matrix(0.05,0,0,0.05,24.950000000000003,0)" xlink:href="#bK"/><use transform="matrix(0.05,0,0,0.05,30.900000000000002,0)" xlink:href="#bz"/><use transform="matrix(0.05,0,0,0.05,39.900000000000006,0)" xlink:href="#bF"/><use transform="matrix(0.05,0,0,0.05,49.900000000000006,0)" xlink:href="#bL"/><use transform="matrix(0.05,0,0,0.05,59.900000000000006,0)" xlink:href="#bP"/><use transform="matrix(0.05,0,0,0.05,69.9,0)" xlink:href="#bK"/><use transform="matrix(0.05,0,0,0.05,75.85000000000001,0)" xlink:href="#bD"/></g><path fill="#333" d="M115-194c53 0 69 39 70 98 0 66-23 100-70 100C84 3 66-7 56-30L54 0H23l1-261h32v101c10-23 28-34 59-34zm-8 174c40 0 45-34 45-75 0-40-5-75-45-74-42 0-51 32-51 76 0 43 10 73 51 73" id="cv"/><g id="ax"><use transform="matrix(0.05,0,0,0.05,0,0)" xlink:href="#bB"/><use transform="matrix(0.05,0,0,0.05,3.95,0)" xlink:href="#bN"/><use transform="matrix(0.05,0,0,0.05,12.949999999999998,0)" xlink:href="#by"/><use transform="matrix(0.05,0,0,0.05,24.6,0)" xlink:href="#bC"/><use transform="matrix(0.05,0,0,0.05,33.6,0)" xlink:href="#bP"/><use transform="matrix(0.05,0,0,0.05,43.6,0)" xlink:href="#bB"/><use transform="matrix(0.05,0,0,0.05,47.550000000000004,0)" xlink:href="#bG"/><use transform="matrix(0.05,0,0,0.05,51.5,0)" xlink:href="#bP"/><use transform="matrix(0.05,0,0,0.05,61.5,0)" xlink:href="#cv"/><use transform="matrix(0.05,0,0,0.05,71.5,0)" xlink:href="#bG"/><use transform="matrix(0.05,0,0,0.05,75.45,0)" xlink:href="#bF"/></g><g id="ay"><use transform="matrix(0.05,0,0,0.05,0,0)" xlink:href="#bB"/><use transform="matrix(0.05,0,0,0.05,3.95,0)" xlink:href="#bN"/><use transform="matrix(0.05,0,0,0.05,12.949999999999998,0)" xlink:href="#cd"/><use transform="matrix(0.05,0,0,0.05,25.899999999999995,0)" xlink:href="#bB"/><use transform="matrix(0.05,0,0,0.05,29.849999999999994,0)" xlink:href="#bK"/><use transform="matrix(0.05,0,0,0.05,35.8,0)" xlink:href="#bF"/><use transform="matrix(0.05,0,0,0.05,45.8,0)" xlink:href="#bR"/></g><g id="az"><use transform="matrix(0.05,0,0,0.05,0,0)" xlink:href="#bL"/><use transform="matrix(0.05,0,0,0.05,10,0)" xlink:href="#bP"/><use transform="matrix(0.05,0,0,0.05,20,0)" xlink:href="#bI"/><use transform="matrix(0.05,0,0,0.05,34.95,0)" xlink:href="#bF"/></g><g id="aA"><use transform="matrix(0.05,0,0,0.05,0,0)" xlink:href="#bz"/><use transform="matrix(0.05,0,0,0.05,9,0)" xlink:href="#bH"/><use transform="matrix(0.05,0,0,0.05,19,0)" xlink:href="#bN"/><use transform="matrix(0.05,0,0,0.05,28,0)" xlink:href="#bA"/></g><g id="aB"><use transform="matrix(0.05,0,0,0.05,0,0)" xlink:href="#bA"/><use transform="matrix(0.05,0,0,0.05,5,0)" xlink:href="#bK"/><use transform="matrix(0.05,0,0,0.05,10.95,0)" xlink:href="#bP"/><use transform="matrix(0.05,0,0,0.05,20.95,0)" xlink:href="#bB"/><use transform="matrix(0.05,0,0,0.05,24.9,0)" xlink:href="#bA"/></g><g id="aC"><use transform="matrix(0.05,0,0,0.05,0,0)" xlink:href="#bP"/><use transform="matrix(0.05,0,0,0.05,10,0)" xlink:href="#bA"/><use transform="matrix(0.05,0,0,0.05,15,0)" xlink:href="#bA"/><use transform="matrix(0.05,0,0,0.05,20,0)" xlink:href="#bP"/><use transform="matrix(0.05,0,0,0.05,30,0)" xlink:href="#bz"/><use transform="matrix(0.05,0,0,0.05,39,0)" xlink:href="#cl"/></g><g id="aD"><use transform="matrix(0.05,0,0,0.05,0,0)" xlink:href="#bR"/><use transform="matrix(0.05,0,0,0.05,10,0)" xlink:href="#bF"/><use transform="matrix(0.05,0,0,0.05,20,0)" xlink:href="#ch"/><use transform="matrix(0.05,0,0,0.05,25,0)" xlink:href="#bF"/><use transform="matrix(0.05,0,0,0.05,35,0)" xlink:href="#bL"/><use transform="matrix(0.05,0,0,0.05,45,0)" xlink:href="#bN"/><use transform="matrix(0.05,0,0,0.05,54,0)" xlink:href="#bF"/></g><g id="aE"><use transform="matrix(0.05,0,0,0.05,0,0)" xlink:href="#ch"/><use transform="matrix(0.05,0,0,0.05,5,0)" xlink:href="#bG"/><use transform="matrix(0.05,0,0,0.05,8.95,0)" xlink:href="#bP"/><use transform="matrix(0.05,0,0,0.05,18.95,0)" xlink:href="#bC"/><use transform="matrix(0.05,0,0,0.05,27.950000000000003,0)" xlink:href="#bH"/><use transform="matrix(0.05,0,0,0.05,37.95,0)" xlink:href="#bK"/><use transform="matrix(0.05,0,0,0.05,43.900000000000006,0)" xlink:href="#ci"/><use transform="matrix(0.05,0,0,0.05,52.85,0)" xlink:href="#bF"/><use transform="matrix(0.05,0,0,0.05,62.85,0)" xlink:href="#cj"/><use transform="matrix(0.05,0,0,0.05,71.85000000000001,0)" xlink:href="#bA"/></g><use transform="matrix(0.05,0,0,0.05,0,0)" xlink:href="#cc" id="aF"/></defs></g></svg>